<?xml version="1.0" encoding="utf-8"?>
<!-- Generator: Adobe Illustrator 16.2.1, SVG Export Plug-In . SVG Version: 6.00 Build 0)  -->
<!DOCTYPE svg PUBLIC "-//W3C//DTD SVG 1.1//EN" "http://www.w3.org/Graphics/SVG/1.1/DTD/svg11.dtd">
<svg version="1.1" id="Layer_1" xmlns="http://www.w3.org/2000/svg" xmlns:xlink="http://www.w3.org/1999/xlink" x="0px" y="0px"
	 width="57.673px" height="63.166px" viewBox="0 0 57.673 63.166" enable-background="new 0 0 57.673 63.166" xml:space="preserve">
<g>
	<path fill="#54504B" d="M57.545,49.126c-0.211-0.421-0.642-0.688-1.111-0.688h-4.623L29.963,0.723
		c-0.054-0.115-0.126-0.214-0.21-0.299C29.526,0.168,29.205,0,28.837,0s-0.689,0.168-0.916,0.424
		c-0.084,0.085-0.156,0.184-0.21,0.299L5.864,48.438H1.239c-0.469,0-0.899,0.268-1.112,0.688c-0.207,0.423-0.16,0.925,0.131,1.3
		L9.627,62.68c0.231,0.308,0.594,0.486,0.98,0.486h36.458c0.388,0,0.75-0.179,0.981-0.486l9.369-12.254
		C57.705,50.051,57.754,49.549,57.545,49.126z M30.074,6.913l19.013,41.524H30.074V6.913z M27.6,6.913v41.524H8.587L27.6,6.913z
		 M46.453,60.691H11.222l-7.478-9.779H53.93L46.453,60.691z"/>
</g>
</svg>
