<?xml version="1.0" encoding="utf-8"?>
<!-- Generator: Adobe Illustrator 16.2.1, SVG Export Plug-In . SVG Version: 6.00 Build 0)  -->
<!DOCTYPE svg PUBLIC "-//W3C//DTD SVG 1.1//EN" "http://www.w3.org/Graphics/SVG/1.1/DTD/svg11.dtd">
<svg version="1.1" id="Layer_1" xmlns="http://www.w3.org/2000/svg" xmlns:xlink="http://www.w3.org/1999/xlink" x="0px" y="0px"
	 width="49.438px" height="54.18px" viewBox="0 0 49.438 54.18" enable-background="new 0 0 49.438 54.18" xml:space="preserve">
<rect x="11.244" y="22.23" fill="#54504B" width="9.712" height="9.716"/>
<rect x="28.473" y="22.23" fill="#54504B" width="9.716" height="9.716"/>
<rect x="11.244" y="39.301" fill="#54504B" width="9.712" height="13.748"/>
<g>
	<path fill="#54504B" d="M2.475,51.706h44.488V18.208L24.721,2.745L2.475,18.208V51.706z M48.2,54.18H1.238
		C0.557,54.18,0,53.627,0,52.942V17.56c0-0.406,0.198-0.786,0.532-1.015L24.016,0.221c0.426-0.295,0.986-0.295,1.412,0
		l23.479,16.324c0.333,0.229,0.531,0.608,0.531,1.015v35.382C49.438,53.627,48.883,54.18,48.2,54.18"/>
</g>
</svg>
