<?xml version="1.0" encoding="utf-8"?>
<!-- Generator: Adobe Illustrator 16.2.1, SVG Export Plug-In . SVG Version: 6.00 Build 0)  -->
<!DOCTYPE svg PUBLIC "-//W3C//DTD SVG 1.1//EN" "http://www.w3.org/Graphics/SVG/1.1/DTD/svg11.dtd">
<svg version="1.1" id="Layer_1" xmlns="http://www.w3.org/2000/svg" xmlns:xlink="http://www.w3.org/1999/xlink" x="0px" y="0px"
	 width="47.379px" height="62.709px" viewBox="0 0 47.379 62.709" enable-background="new 0 0 47.379 62.709" xml:space="preserve">
<g>
	<path fill="#54504B" d="M23.658,2.646C20.23,4.606,2.451,15.647,2.466,33.402C2.48,45.293,13.414,51.71,23.693,51.71v1.234
		l0.027-1.234c5.473-0.006,10.828-1.774,14.695-4.852c2.969-2.362,6.502-6.62,6.496-13.499C44.894,15.604,27.09,4.6,23.658,2.646
		 M23.721,54.18h-0.027C12.216,54.18,0.015,46.897,0,33.405C-0.023,12.337,22.146,0.627,23.093,0.138
		c0.348-0.184,0.774-0.184,1.131,0c0.942,0.485,23.136,12.15,23.155,33.219c0.009,6.224-2.557,11.562-7.426,15.433
		C35.66,52.21,29.744,54.173,23.721,54.18"/>
	<path fill="#54504B" d="M23.735,62.709c-0.683,0-1.231-0.551-1.231-1.233l-0.049-27.421c-0.006-0.681,0.547-1.234,1.232-1.236
		c0.682,0,1.232,0.551,1.232,1.232l0.047,27.42C24.973,62.153,24.422,62.707,23.735,62.709"/>
	<path fill="#54504B" d="M23.706,47.194c-0.274,0-0.551-0.092-0.772-0.273l-7.789-6.278c-0.531-0.428-0.613-1.207-0.188-1.738
		c0.43-0.53,1.203-0.617,1.734-0.187l7.015,5.653l6.995-5.668c0.531-0.426,1.311-0.348,1.734,0.182
		c0.432,0.531,0.35,1.308-0.178,1.737l-7.773,6.296C24.258,47.103,23.982,47.194,23.706,47.194"/>
</g>
</svg>
