<?xml version="1.0" encoding="utf-8"?>
<!-- Generator: Adobe Illustrator 16.2.1, SVG Export Plug-In . SVG Version: 6.00 Build 0)  -->
<!DOCTYPE svg PUBLIC "-//W3C//DTD SVG 1.1//EN" "http://www.w3.org/Graphics/SVG/1.1/DTD/svg11.dtd">
<svg version="1.1" id="Layer_1" xmlns="http://www.w3.org/2000/svg" xmlns:xlink="http://www.w3.org/1999/xlink" x="0px" y="0px"
	 width="341.668px" height="238.954px" viewBox="0 0 341.668 238.954" enable-background="new 0 0 341.668 238.954"
	 xml:space="preserve">
<g>
	<defs>
		<rect id="SVGID_1_" x="0.002" y="0.001" width="341.665" height="238.953"/>
	</defs>
	<clipPath id="SVGID_2_">
		<use xlink:href="#SVGID_1_"  overflow="visible"/>
	</clipPath>
	<path clip-path="url(#SVGID_2_)" fill="#54514C" d="M199.215,125.229c0.457-0.853,0.866-1.687,1.344-2.479
		c1.035-1.743,1.415-3.648,1.432-5.654c0-0.198-0.017-0.4-0.009-0.599c0.017-0.259,0.113-0.449,0.425-0.413
		c0.355,0.041,0.493-0.137,0.534-0.485c0.108-0.817,0.189-0.885,1.031-0.958c1.039-0.093,1.039-0.093,0.954-1.161
		c-0.064-0.76,0.093-0.926,1.112-1.12c0.348,1.165,0.712,2.333,1.031,3.519c0.049,0.174-0.097,0.433-0.218,0.615
		c-0.235,0.352-0.519,0.667-0.77,1.011c-0.533,0.72-0.934,1.61-1.621,2.107c-0.68,0.485-1.063,1.084-1.436,1.759
		c-0.647,1.201-1.214,2.451-2.2,3.434C200.38,125.241,199.895,125.459,199.215,125.229"/>
	<path clip-path="url(#SVGID_2_)" fill="#54514C" d="M183.689,124.618c0.255-1.311,0.473-2.604,0.764-3.879
		c0.086-0.396,0.324-0.772,0.559-1.112c0.663-0.979,1.343-1.95,2.055-2.892c0.263-0.352,0.615-0.651,0.979-0.898
		c0.412-0.283,0.704-0.117,0.712,0.388c0.008,0.287-0.069,0.607-0.21,0.854c-0.3,0.534-0.615,1.083-1.023,1.537
		c-1.152,1.323-1.824,2.892-2.391,4.525c-0.121,0.348-0.259,0.684-0.4,1.027C184.562,124.578,184.284,124.771,183.689,124.618"/>
	<path clip-path="url(#SVGID_2_)" fill="#54514C" d="M133.36,120.537c-0.099,0.393-0.387,0.591-0.797,0.672
		c-0.586,0.121-1.187,0.234-1.759,0.42c-0.683,0.218-1.027,0.182-1.462-0.295c-0.328-0.364-0.305-0.789,0.122-1.003
		c1.067-0.538,2.182-0.861,3.387-0.51C133.187,119.918,133.4,120.113,133.36,120.537"/>
	<path clip-path="url(#SVGID_2_)" fill="#54514C" d="M148.544,123.89c0.041-0.55,0.265-0.813,0.72-0.849
		c0.446-0.033,0.865,0.234,0.928,0.716c0.062,0.501,0.095,1.035-0.016,1.517c-0.125,0.529-0.568,0.671-1.161,0.534
		c-0.51-0.117-0.554-0.473-0.506-0.918C148.553,124.562,148.536,124.226,148.544,123.89"/>
	<path clip-path="url(#SVGID_2_)" fill="#54514C" d="M144.173,129.771c-0.659,0.481-1.165,0.521-1.662,0.178
		c-0.413-0.283-0.555-0.784-0.313-1.108c0.265-0.356,0.814-0.392,1.179-0.037C143.663,129.087,143.894,129.431,144.173,129.771"/>
	<path clip-path="url(#SVGID_2_)" fill="#54514C" d="M151.804,125.265c-0.463-0.061-0.787-0.42-0.744-0.833
		c0.037-0.413,0.538-0.76,0.989-0.692c0.443,0.065,0.783,0.494,0.734,0.918C152.736,125.091,152.34,125.33,151.804,125.265"/>
	<path clip-path="url(#SVGID_2_)" fill="#54514C" d="M148.561,130.692c-0.481-0.073-0.89-0.518-0.829-0.906
		c0.067-0.392,0.469-0.635,0.92-0.562c0.502,0.085,0.894,0.546,0.821,0.966C149.414,130.522,148.995,130.753,148.561,130.692"/>
	<path clip-path="url(#SVGID_2_)" fill="#54514C" d="M138.677,127.324c0.335-0.081,0.754-0.324,0.973-0.202
		c0.323,0.182,0.505,0.623,0.782,0.995C139.438,128.367,138.938,128.145,138.677,127.324"/>
	<path clip-path="url(#SVGID_2_)" fill="#54514C" d="M198.395,97.097c0.036,0.036,0.076,0.069,0.117,0.105
		c0.093-0.093,0.238-0.178,0.267-0.283c0.21-0.785-0.024-1.61-0.542-1.974C198.289,95.673,198.342,96.385,198.395,97.097
		 M170.117,97.089c-1.011-0.542-1.011-0.534-1.49,0.267c-0.188,0.312-0.067,0.501,0.182,0.651c0.364,0.218,0.91,0.016,1.084-0.384
		C169.959,97.457,170.034,97.287,170.117,97.089 M167.094,97.586c-0.423,0.501-0.87,1.031-1.359,1.618
		c0.72,0.198,1.371,0.38,1.992,0.554C167.512,99.021,167.304,98.318,167.094,97.586 M136.662,185.994
		c0.059,0.016,0.117,0.036,0.183,0.057c0.533-0.651,1.051-1.318,1.615-1.941c0.423-0.469,0.597-0.963,0.514-1.594
		c-0.103-0.792-0.142-1.589-0.202-2.386c-0.059-0.004-0.117-0.012-0.174-0.021C137.706,181.99,136.962,183.92,136.662,185.994
		 M139.267,136.472c-0.79-0.227-1.526-0.36-2.202-0.647c-1.06-0.453-2.083-0.979-3.102-1.517c-0.501-0.263-0.821-0.186-1.078,0.34
		c1.036,0.95,2.154,1.784,3.509,2.236C137.384,137.22,138.322,137.164,139.267,136.472 M125.134,120.437
		c-0.066,0.55-0.196,1.007-0.161,1.443c0.127,1.731,0.257,3.466,0.483,5.185c0.19,1.46,0.916,2.681,2.035,3.83
		c-0.059-0.619-0.13-1.108-0.146-1.597c-0.067-1.573-0.232-3.11-0.724-4.626c-0.348-1.072-0.679-2.221-0.087-3.381
		C126.072,121.006,125.646,120.748,125.134,120.437 M146.688,84.875c2.618-2.686,5.239-5.363,7.827-8.02
		c0.043,0.008,0.004-0.012-0.02,0c-0.122,0.057-0.237,0.113-0.348,0.182c-1.114,0.691-2.245,1.322-3.517,1.698
		c-0.886,0.263-1.68,0.752-2.36,1.448c0.396,0.469,0.162,0.817-0.178,1.177c-0.672,0.712-1.327,1.436-2.014,2.184
		C146.49,83.904,147.228,84.106,146.688,84.875 M205.783,166.092c0.578-0.505,0.765-0.962,0.672-1.634
		c-0.146-1.022-0.805-1.775-1.182-2.677c-0.186-0.441-0.433-0.47-0.845-0.259c-1.768,0.901-3.552,1.775-5.331,2.661
		c-1.152,0.578-2.309,1.156-3.466,1.719c-0.335,0.166-0.404,0.393-0.282,0.728c0.133,0.38,0.38,0.154,0.574,0.113
		c0.412-0.097,0.832-0.198,1.229-0.355c2.273-0.902,4.578-1.731,6.273-3.66c0.663-0.748,1.205-0.644,1.564,0.315
		c0.227,0.599,0.304,1.258,0.453,1.889C205.537,165.291,205.65,165.651,205.783,166.092 M94.773,141.317
		c-0.062,0.372-0.117,0.712-0.178,1.056c-0.536,3.13-0.734,6.264-0.216,9.423c0.252,1.553,0.881,2.928,1.818,4.165
		c0.245,0.32,0.604,0.578,0.982,0.332c0.376-0.255,0.168-0.639,0.037-0.999c-0.245-0.684-0.538-1.375-0.647-2.087
		c-0.352-2.305-0.321-4.627-0.091-6.944c0.153-1.553,0.366-3.102,0.556-4.671C96.197,141.491,95.502,141.406,94.773,141.317
		 M207.644,165.991c1.739-1.076,3.438-2.104,5.116-3.175c0.765-0.485,1.25-1.233,1.553-2.083c0.417-1.124,0.291-2.31,0.271-3.474
		c-0.008-0.19-0.219-0.372-0.372-0.623c-2.479,1.804-4.886,3.555-7.224,5.254C207.215,163.289,207.421,164.588,207.644,165.991
		 M195.276,174.241c0.631-0.359,1.197-0.667,1.755-0.995c1.869-1.1,3.745-2.188,5.598-3.32c1.221-0.752,1.472-1.885,0.865-3.166
		c-0.17-0.364-0.178-0.821-0.198-1.242c-0.012-0.348,0.077-0.703,0.13-1.136c-0.441,0.234-0.781,0.433-1.137,0.603
		c-2.095,1.031-4.193,2.055-6.285,3.094c-0.153,0.076-0.363,0.299-0.355,0.433C195.77,170.407,195.632,172.284,195.276,174.241
		 M175.176,99.572c0.854-2.948-2.099-7.082-5.568-7.875c-4.386-0.995-8.437,1.938-9.148,6.625c-0.663,4.339,2.501,8.432,6.766,8.752
		c3.632,0.279,7.667-2.754,7.705-5.86c-0.247-0.017-0.51-0.069-0.757-0.044c-0.909,0.093-1.8,0.149-2.689-0.17
		c-0.189-0.069-0.58,0.089-0.708,0.267c-0.311,0.42-0.698,0.574-1.161,0.509c-1.011-0.146-2.02-0.307-3.019-0.501
		c-0.501-0.101-0.96-0.154-1.438,0.113c-0.483,0.275-0.969,0.125-1.391-0.182c-0.289-0.214-0.344-0.518-0.127-0.833
		c0.079-0.122,0.17-0.239,0.257-0.368c-0.323-0.36-0.635-0.7-0.936-1.04c0.062-0.089,0.091-0.149,0.141-0.194
		c0.111-0.097,0.227-0.194,0.348-0.279c1.126-0.813,2.024-1.735,1.814-3.309c-0.022-0.153,0.23-0.425,0.417-0.505
		c0.532-0.247,1.094-0.425,1.646-0.627c0.198-0.069,0.413-0.222,0.595-0.194c0.999,0.146,1.931,0.417,2.489,1.399
		c0.394,0.692,0.841,1.359,1.296,2.01C172.56,98.476,173.772,99.131,175.176,99.572 M165.403,167.516
		c-0.415-0.109-0.933-0.198-1.424-0.368c-1.917-0.646-3.828-1.314-5.737-1.993c-0.214-0.077-0.427-0.259-0.554-0.453
		c-0.774-1.145-1.777-2.002-3.023-2.572c-0.265-0.121-0.56-0.263-0.738-0.481c-1.096-1.351-2.162-2.733-3.246-4.093
		c-0.212-0.267-0.473-0.485-0.718-0.728c-0.028,0.028-0.057,0.052-0.087,0.085c-0.024-0.142-0.044-0.283-0.079-0.485
		c-0.077,0.097-0.127,0.142-0.156,0.193c-1.331,2.14-2.066,4.474-2.18,6.997c-0.021,0.481-0.111,1.027,0.07,1.436
		c0.659,1.473,1.335,2.952,2.655,3.976c0.957,0.748,1.951,1.415,3.035,1.981c2.896,1.517,5.733,3.139,8.598,4.708
		c0.352,0.194,0.74,0.319,1.139,0.485c0.339-1.533,0.604-3.014,1.011-4.461C164.38,170.298,164.932,168.887,165.403,167.516
		 M179.455,172.118c0-0.049,0-0.101,0.004-0.157c0.667-0.353,1.355-0.655,2.14-0.53c0.865,0.138,1.674-0.021,2.471-0.34
		c0.368-0.142,0.732-0.312,1.104-0.437c0.25-0.081,0.533-0.174,0.768-0.121c0.604,0.141,1.141-0.013,1.691-0.215
		c0.558-0.21,1.116-0.404,1.678-0.603c0.708-0.242,0.927-0.142,1.242,0.554c0.51,1.137,0.646,2.346,0.525,3.575
		c-0.085,0.979-0.287,1.95-0.429,2.925c-0.104,0.703,0.13,0.914,0.801,0.699c1.237-0.389,2.038-1.29,2.362-2.491
		c0.485-1.792,0.68-3.644,0.606-5.513c-0.073-1.649-0.259-3.239-1.755-4.299c-0.478-0.336-0.923-0.465-1.473-0.223
		c-1.59,0.7-3.195,1.375-4.78,2.066c-0.17,0.069-0.308,0.207-0.501,0.349c0.469,0.335,0.881,0.255,1.302,0.149
		c1.023-0.271,1.286-0.149,1.864,0.897c-2.277,0.995-4.654,1.577-7.086,1.962c-2.438,0.388-4.881,0.312-7.315,0.076
		c-2.476-0.242-4.645-1.521-7.063-2.236c-0.647,1.549-1.276,3.058-1.921,4.619c0.344-0.024,0.558-0.049,0.771-0.045
		c0.782,0.013,1.262,0.368,1.432,1.052c0.137,0.558-0.174,0.954-0.732,0.878c-0.695-0.09-1.458-0.109-1.607-1.112
		c-0.041,0.024-0.075,0.04-0.111,0.061c-0.303,1.148-0.601,2.289-0.912,3.458c0.332,0.153,0.601,0.319,0.896,0.412
		c0.957,0.308,1.909,0.644,2.886,0.857c1.951,0.425,3.913,0.797,5.878,1.148c3.373,0.603,6.722,0.526,10.029-0.505
		c1.299-0.405,2.54-1.048,3.964-0.987c0.453,0.017,0.886-0.529,0.926-0.986c0.045-0.514-0.287-0.736-0.708-0.891
		c-0.088-0.036-0.178-0.084-0.267-0.129c-0.493-0.267-0.622-0.643-0.299-1.108c0.242-0.352,0.534-0.703,0.882-0.938
		c0.654-0.433,0.926-1.015,0.994-1.787c0.13-1.464-0.193-1.804-1.553-1.326c-2.427,0.849-4.922,1.266-7.47,1.383
		C180.28,172.28,179.867,172.171,179.455,172.118 M92.499,142.651c0.133-0.603,0.265-1.197,0.394-1.795
		c0.095-0.441,0.198-0.886,0.269-1.327c0.107-0.712,0.505-1.116,1.205-1.189c1.802-0.198,3.604-0.441,5.409-0.542
		c1.709-0.093,3.432-0.113,5.143-0.016c1.292,0.081,2.564,0.433,3.856,0.603c0.977,0.129,1.967,0.162,2.953,0.234
		c0.111,0.008,0.22,0.024,0.386,0.049c0.037,2.459,0.079,4.905,0.12,7.449c5.189-4.157,10.784-7.664,15.518-12.359
		c-0.182-0.142-0.387-0.324-0.617-0.469c-2.216-1.387-3.362-3.543-3.797-6.018c-0.352-1.986-0.374-4.048-0.427-6.079
		c-0.016-0.708,0.318-1.419,0.471-2.135c0.042-0.194,0.071-0.437-0.004-0.611c-0.384-0.926-0.51-1.885-0.463-2.888
		c0.012-0.279-0.043-0.631-0.205-0.841c-0.942-1.205-0.968-2.568-0.768-4.004c0.115-0.825,0.495-1.444,1.158-1.893
		c0.92-0.627,1.834-1.258,2.778-1.845c1.569-0.986,3.186-1.904,4.742-2.912c1.517-0.979,3.106-1.763,4.829-2.289
		c1.81-0.542,3.549-1.278,5.192-2.216c0.3-0.17,0.585-0.498,0.718-0.817c0.252-0.59,0.417-1.233,0.579-1.864
		c0.157-0.607,0.521-0.938,1.13-1.032c0.568-0.084,0.896,0.174,0.888,0.765c-0.004,0.376-0.05,0.756-0.079,1.189
		c1.519-0.631,2.628-1.666,3.333-3.142c0.042-0.081-0.017-0.251-0.077-0.348c-0.244-0.356-0.514-0.691-0.762-1.047
		c-0.083-0.117-0.133-0.267-0.216-0.445c-0.087,0.004-0.249,0.052-0.376,0.008c-0.245-0.097-0.561-0.19-0.676-0.389
		c-0.095-0.149-0.004-0.501,0.115-0.691c0.498-0.793,1.094-1.484,2.097-1.626c0.091-0.012,0.178-0.149,0.235-0.247
		c0.046-0.065,0.042-0.158,0.062-0.243c0.216-0.854,0.688-1.112,1.509-0.772c0.17,0.069,0.344,0.328,0.376,0.518
		c0.075,0.473,0.07,0.958,0.107,1.614c0.403-0.344,0.771-0.586,1.043-0.91c0.896-1.031,1.761-2.087,2.608-3.151
		c0.237-0.299,0.445-0.352,0.75-0.169c0.099,0.056,0.212,0.093,0.311,0.149c0.775,0.404,0.91,0.837,0.353,1.561
		c-0.73,0.926-1.521,1.808-2.312,2.686c-0.463,0.513-0.902,1.072-1.632,1.25c-0.091,0.028-0.158,0.214-0.202,0.336
		c-0.187,0.509-0.3,1.051-0.548,1.524c-0.443,0.854-0.993,1.654-1.444,2.507c-0.406,0.769-0.979,1.347-1.719,1.751
		c-2.034,1.116-4.038,2.289-6.125,3.3c-1.152,0.554-2.427,0.841-3.658,1.222c-3.075,0.95-4.202,1.517-6.386,3.292
		c0.584,0.089,1.065,0.186,1.553,0.227c0.971,0.085,1.943,0.182,2.912,0.186c1.264,0.004,1.848,0.825,2.303,1.812
		c0.584,1.262,1.399,2.325,2.455,3.223c0.857,0.736,0.833,1.759-0.036,2.495c-0.9,0.764-1.441,1.654-1.396,2.896
		c0.024,0.655-0.307,1.233-0.853,1.622c-0.621,0.449-1.251,0.877-1.889,1.298c-0.791,0.521-1.251,0.481-1.967-0.134
		c-0.1-0.085-0.203-0.17-0.29-0.267c-0.771-0.866-1.656-1.25-2.861-1.031c-1.043,0.182-1.769-0.502-2.271-1.379
		c-0.396-0.704-0.766-1.436-1.126-2.164c-0.415-0.845,0.414-2.451,1.338-2.483c0.787-0.028,1.585,0.057,2.36,0.19
		c0.576,0.097,0.98,0.525,1.233,1.063c0.097,0.194,0.174,0.396,0.237,0.606c0.315,1.08,0.87,1.998,1.731,2.714
		c0.079,0.073,0.2,0.121,0.303,0.121c0.392,0.008,0.791-0.012,1.183-0.004c0.44,0.008,0.584-0.238,0.671-0.639
		c0.118-0.55,0.209-1.145,0.498-1.602c0.307-0.485,0.794-0.882,1.28-1.209c0.352-0.243,0.392-0.465,0.218-0.776
		c-0.103-0.186-0.261-0.348-0.427-0.473c-1.088-0.882-1.925-1.97-2.521-3.235c-0.198-0.425-0.483-0.712-0.94-0.813
		c-1.597-0.336-3.197-0.655-4.79-1.011c-0.589-0.125-1.09-0.028-1.6,0.295c-0.878,0.562-1.759,1.14-2.695,1.597
		c-0.92,0.453-1.143,1.242-1.229,2.127c-0.043,0.433,0.04,0.894,0.127,1.331c0.024,0.122,0.253,0.275,0.398,0.287
		c0.306,0.024,0.621-0.036,0.933-0.061c0.479-0.041,0.731,0.198,0.843,0.651c0.245,0.986,0.518,1.965,0.771,2.944
		c0.039,0.146,0.083,0.299,0.075,0.445c-0.063,1.015,0.355,1.82,1.06,2.483c0.614,0.578,0.733,1.209,0.394,1.99
		c-0.36,0.829-0.22,1.683,0.046,2.5c0.443,1.379,0.926,2.746,1.392,4.121c0.157,0.465,0.467,0.76,0.926,0.894
		c0.817,0.235,1.397,0.765,1.86,1.472c1.126,1.715,2.613,3.025,4.54,3.688c0.877,0.307,1.846,0.32,2.77,0.505
		c1.45,0.299,2.829,0.809,4.079,1.606c2.277,1.436,4.787,1.893,7.413,1.981c0.985,0.033,1.972,0.158,2.948,0.287
		c0.328,0.041,0.633,0.227,1.012,0.364c-1.312,0.91-2.644,1.246-4.138,0.979c-1.082-0.194-2.186-0.279-3.45-0.429
		c0.099,0.437,0.099,0.764,0.241,1.003c0.372,0.627,0.771,1.242,1.229,1.808c0.928,1.148,1.913,2.248,2.853,3.385
		c0.581,0.695,0.728,1.439,0.592,2.406c-0.285,1.958-0.091,3.943,0.281,5.881c0.245,1.254,0.651,2.479,0.999,3.713
		c0.348,1.233,1.262,2.091,2.253,2.669c2.659,1.557,5.164,3.405,8.054,4.529c0.17,0.069,0.344,0.126,0.514,0.183
		c1.513,0.505,1.687,0.448,2.604-0.83c1.139-1.589,2.291-3.174,2.92-5.047c0.427-1.278,0.767-2.597,1.007-3.919
		c0.736-4.085,0.314-8.141-0.498-12.149c-0.973-4.804-2.121-9.568-3.126-14.365c-0.601-2.888-1.169-5.788-1.596-8.708
		c-0.475-3.256-0.107-6.499,0.714-9.686c0.127-0.501,0.234-1.011,0.364-1.561c-0.352-0.044-0.704-0.101-1.056-0.125
		c-4.37-0.291-7.179-4.016-7.828-6.96c-0.295-1.334-0.153-2.657,0.017-3.988c0.079-0.574,0.149-1.161,0.257-1.735
		c0.355-1.853,1.581-3.13,2.892-4.328c1.961-1.792,4.261-2.572,6.897-2.151c0.975,0.158,1.959,0.299,2.908,0.562
		c1.134,0.312,2.079,0.991,2.879,1.865c0.801,0.877,1.618,1.735,1.885,2.98c0.113,0.493,0.372,0.966,0.623,1.416
		c0.38,0.695,0.566,1.427,0.453,2.212c-0.211,1.504-0.364,3.025-0.729,4.494c-0.444,1.792-1.747,2.984-3.187,4.028
		c-1.092,0.801-2.239,1.472-3.585,1.751c-0.252,0.056-0.526,0.404-0.633,0.679c-0.888,2.261-1.248,4.63-1.323,7.057
		c-0.135,4.392-1.945,26.842-0.997,31.076c1.092,4.882,4.937-8.457,5.951-3.555c0.575,2.795,0.844,5.642,0.757,8.514
		c-0.123,3.935-1.131,7.615-2.985,11.072c-0.265,0.502-0.534,1-0.817,1.525c0.105,0.024,0.236,0.02,0.308,0.085
		c1.075,1.015,2.521,0.975,3.826,1.314c1.5,0.388,3.024,0.663,4.513,1.079c0.78,0.227,1.497,0.292,2.232-0.068
		c0.073-0.032,0.162-0.04,0.243-0.032c1.351,0.109,2.531-0.393,3.623-1.116c1.675-1.096,3.397-2.091,5.29-2.718
		c0.89-0.295,1.816-0.493,2.722-0.736c0.146-0.036,0.304-0.04,0.425-0.109c0.384-0.23,0.704-0.093,1.011,0.142
		c0.389,0.3,0.712,0.239,1.157,0.017c0.809-0.404,1.67-0.74,2.544-0.946c2.042-0.481,3.967-1.237,5.779-2.306
		c0.728-0.433,1.48-0.825,2.232-1.213c1.084-0.574,2.078-1.274,2.96-2.155c0.502-0.498,1.161-0.817,1.715-1.271
		c0.3-0.251,0.599-0.562,0.772-0.914c0.247-0.505,0.332-1.092,0.562-1.602c0.38-0.825,0.355-1.642,0.125-2.487
		c-0.348-1.29-0.699-2.572-1.019-3.87c-0.17-0.671-0.069-0.833,0.578-1.116c0.064-0.469-0.097-0.825-0.485-1.108
		c-0.211-0.157-0.372-0.388-0.647-0.679c0.425-0.271,0.772-0.485,1.133-0.72c-0.291-0.51-0.538-0.922-0.757-1.347
		c-0.392-0.756-0.23-1.112,0.562-1.322c0.574-0.153,0.574-0.153,0.227-0.667c-1.222-1.832-1.771-3.927-2.188-6.066
		c-0.061-0.328-0.126-0.655-0.17-0.987c-0.086-0.566,0.064-0.76,0.618-0.857c0.81-0.141,0.805-0.141,0.805-0.954
		c0-0.7,0.017-1.399,0.024-2.212c-0.465,0.263-0.897,0.457-1.27,0.736c-1.396,1.047-2.937,1.779-4.574,2.362
		c-0.971,0.348-1.893,0.857-2.839,1.294c-1.145,0.53-2.273,1.092-3.422,1.598c-1.876,0.821-3.32,2.147-4.291,3.947
		c-1.079,1.998-2.689,2.839-4.905,3.09c-2.01,0.23-3.414-0.591-4.725-1.849c-0.775-0.748-1.476-1.573-2.199-2.37
		c-0.073-0.069-0.13-0.154-0.17-0.247c-0.651-1.69-1.408-3.353-1.934-5.088c-1.281-4.214-1.076-8.412,0.34-12.602
		c1.294-3.826,3.551-6.956,6.35-9.747c1.076-1.076,2.079-2.208,3.179-3.248c1.642-1.549,2.334-3.434,2.249-5.666
		c-0.041-1.169-0.008-2.342-0.057-3.506c-0.024-0.55-0.121-1.1-0.255-1.63c-0.7-2.746-0.833-5.5-0.162-8.279
		c0.093-0.372,0.149-0.752,0.239-1.125c0.097-0.408,0.339-0.643,0.771-0.639c0.441,0.012,0.761,0.234,0.781,0.675
		c0.032,0.619,0.363,1.132,0.485,1.703c0.21,0.946,0.348,1.958,0.274,2.924c-0.161,2.022-0.023,4.036,0.064,6.055
		c0.082,1.998,0.275,4.004-0.169,5.989c-0.179,0.797-0.319,1.602-0.506,2.395c-0.202,0.857-0.684,1.565-1.314,2.147
		c-1.537,1.419-3.098,2.811-4.659,4.218c-0.125,0.117-0.25,0.238-0.437,0.417c0.146,0.032,0.21,0.073,0.251,0.053
		c2.903-1.464,5.771-2.973,7.271-6.144c0.769-1.626,1.254-3.333,1.254-5.165c0.004-1.719,0.072-3.434,0.113-5.157
		c0.032-1.104-0.203-2.151-0.587-3.179c-0.085-0.214-0.093-0.497-0.024-0.712c0.154-0.489,0.542-0.614,0.927-0.287
		c0.485,0.421,0.982,0.53,1.602,0.396c0.501-0.109,1.011,0.053,1.233,0.538c0.489,1.031,1.063,2.042,1.075,3.243
		c0.009,0.882-0.142,1.776-0.765,2.366c-0.949,0.894-1.104,2.038-1.358,3.195c-0.421,1.909-0.845,3.818-1.392,5.694
		c-0.412,1.383-1.281,2.536-2.41,3.434c-0.65,0.522-1.415,0.914-2.144,1.334c-1.415,0.825-2.827,1.663-4.271,2.427
		c-1.537,0.821-2.621,2.119-3.785,3.357c-1.828,1.945-2.342,4.355-2.527,6.904c-0.13,1.682-0.3,3.373,0.076,5.039
		c0.647,2.916,1.492,5.751,3.502,8.068c0.583,0.675,1.206,1.185,2.168,1.221c0.421,0.016,0.846,0.263,1.238,0.465
		c0.331,0.17,0.618,0.166,0.857-0.089c0.314-0.332,0.643-0.675,0.873-1.067c0.744-1.266,1.443-2.556,2.156-3.838
		c0.331-0.603,0.805-1.031,1.395-1.383c0.315-0.19,0.591-0.538,0.761-0.874c0.865-1.788,1.961-3.389,3.615-4.505
		c0.651-0.441,1.399-0.736,2.119-1.076c0.113-0.052,0.283,0.004,0.433,0.013c-0.016,0.186,0.037,0.437-0.061,0.554
		c-0.25,0.299-0.558,0.566-0.869,0.809c-1.322,1.035-2.317,2.325-2.997,3.979c0.219-0.061,0.38-0.097,0.534-0.154
		c1.432-0.453,2.835-1.019,4.287-1.351c2.337-0.526,4.416-1.505,6.293-3.021c1.326-1.071,2.754-2.03,4.157-2.997
		c1.278-0.877,2.75-1.298,4.214-1.687c1.278-0.335,2.544-0.667,3.502-1.658c1.853-1.917,2.483-4.23,1.788-6.778
		c-0.453-1.663-1.071-3.312-1.877-4.829c-1.358-2.564-2.054-5.29-2.454-8.133c-0.109-0.752-0.279-1.512-0.555-2.22
		c-0.186-0.493-0.525-0.999-0.93-1.331c-1.48-1.205-2.436-2.794-3.276-4.461c-0.582-1.161-1.343-2.139-2.438-2.827
		c-0.396-0.239-0.611-0.558-0.555-1.076c0.065-0.542-0.226-0.979-0.658-1.266c-0.668-0.453-1.363-0.87-2.055-1.282
		c-0.413-0.247-0.797-0.501-0.769-1.108c-0.23,0.008-0.425,0.02-0.614,0.024c-0.231,0.004-0.49,0.061-0.688-0.016
		c-0.363-0.15-0.695-0.38-1.043-0.583c0.206-0.271,0.376-0.574,0.61-0.813c0.275-0.279,0.599-0.501,0.995-0.829
		c-0.534-0.061-0.942-0.182-1.335-0.149c-1.484,0.125-2.79-0.308-3.777-1.383c-1.702-1.844-3.761-2.94-6.139-3.624
		c-1.93-0.55-3.802-1.323-5.67-2.067c-2.079-0.833-4.247-1.314-6.447-1.678c-2.438-0.404-4.881-0.809-7.312-1.25
		c-1.932-0.348-3.849-0.153-5.771,0.041c-1.416,0.146-2.831,0.154-4.24-0.113c-0.269-0.057-0.546-0.13-0.803-0.231
		c-0.568-0.214-1.114-0.291-1.645,0.113c-0.079,0.061-0.21,0.065-0.323,0.081c-0.695,0.097-1.396,0.178-2.087,0.287
		c-0.372,0.057-0.75,0.142-1.106,0.259c-0.257,0.085-0.488,0.247-0.704,0.445c1.375,0.024,2.671-0.962,4.046-0.299
		c0.028,0.081,0.063,0.158,0.091,0.239c-0.277,0.202-0.526,0.505-0.833,0.59c-1.969,0.583-3.498,1.844-4.98,3.191
		c-1.458,1.318-2.928,2.617-4.386,3.923c-0.904,0.805-1.683,1.707-2.249,2.787c-0.39,0.732-0.975,1.262-1.686,1.65
		c-0.754,0.417-1.416,0.914-1.876,1.67c-0.285,0.457-0.744,0.688-1.27,0.627c-0.453-0.052-0.564,0.202-0.667,0.538
		c-0.451,1.468-0.542,2.984-0.538,4.513c0.004,0.999-0.24,1.48-1.126,2.067c-0.655-1.363-0.639-2.815-0.521-4.271
		c0.135-1.775,0.416-3.51,1.27-5.12c0.138-0.255-0.091-0.695-0.103-1.051c-0.02-0.505-0.36-0.558-0.837-0.586
		c0.348-0.368,0.635-0.684,0.929-0.991c2.849-2.968,5.815-5.808,9.182-8.182c1.822-1.286,3.743-2.39,5.773-3.308
		c0.812-0.368,1.573-0.841,2.364-1.262c0.245-0.129,0.481-0.222,0.778-0.02c0.166,0.109,0.447,0.073,0.676,0.053
		c1.067-0.102,2.127-0.251,3.197-0.324c0.494-0.028,0.989,0.093,1.486,0.129c1.86,0.138,3.714,0.319,5.575,0.396
		c4.417,0.174,8.801,0.554,13.079,1.666c2.71,0.704,5.363,1.63,8.036,2.455c1.59,0.493,3.191,0.966,4.765,1.5
		c1.031,0.348,2.059,0.736,3.029,1.218c0.72,0.355,1.318,0.942,2.018,1.338c1.165,0.667,2.147,1.521,3.118,2.467
		c1.222,1.197,2.686,2.147,4.021,3.219c0.291,0.231,0.574,0.51,0.764,0.829c1.469,2.415,2.916,4.845,4.368,7.272
		c0.085,0.142,0.198,0.287,0.214,0.445c0.227,1.533,1.271,2.35,2.504,3.013c0.352,0.187,0.716,0.344,1.039,0.57
		c0.647,0.461,1.02,1.104,0.955,1.921c-0.227,3.017,0.599,5.856,1.407,8.699c0.113,0.404,0.323,0.821,0.595,1.14
		c1.621,1.897,2.066,4.149,2.059,6.572c-0.004,2.204-0.453,4.271-1.553,6.196c-0.77,1.338-1.837,2.184-3.373,2.447
		c-1.792,0.312-3.527,0.857-5.193,1.618c-0.793,0.36-1.258,0.877-1.286,1.824c-0.024,0.692-0.259,1.375-0.355,2.071
		c-0.235,1.715,0.081,3.325,0.954,4.813c0.032,0.061,0.064,0.117,0.102,0.174c0.82,1.197,0.093,1.69-0.891,1.731
		c-0.146,0.008-0.291,0.048-0.546,0.085c0.17,0.429,0.247,0.849,0.47,1.177c0.558,0.817,1.145,1.634,1.795,2.378
		c0.373,0.425,0.878,0.744,1.359,1.056c0.323,0.207,0.703,0.425,0.603,0.809c-0.077,0.295-0.396,0.647-0.684,0.744
		c-0.485,0.153-1.035,0.129-1.557,0.186c-0.174,0.02-0.344,0.052-0.583,0.089c0.434,1.14,1.841,1.157,2.293,2.33
		c-0.267,0.032-0.505,0.061-0.739,0.101c-0.562,0.094-1.133,0.15-1.675,0.3c-0.348,0.101-0.501,0.384-0.363,0.801
		c0.084,0.259,0.061,0.558,0.076,0.837c0.121,2.321,1.084,4.308,2.326,6.192c0.068,0.097,0.125,0.206,0.201,0.282
		c0.457,0.457,0.526,0.938,0.223,1.529c-0.223,0.429-0.093,0.772,0.356,1.035c2.103,1.222,3.753,2.956,5.294,4.954
		c-0.882,0.004-1.768,0.004-2.714,0.004c0.627,0.866,1.9,0.797,2.419,1.752c-0.534,0.966-0.834,1.079-1.833,0.739
		c-0.376-0.129-0.756-0.222-1.14-0.335c-0.024,0.053-0.057,0.113-0.086,0.17c0.179,0.146,0.349,0.307,0.538,0.433
		c2.172,1.387,3.79,3.292,4.999,5.568c0.166,0.312,0.287,0.587,0.036,0.923c-0.057,0.072-0.024,0.242,0.013,0.352
		c0.109,0.344,0.255,0.68,0.363,1.023c0.15,0.477,0.247,0.971,0.425,1.432c0.724,1.912,0.785,3.85,0.243,5.808
		c-0.19,0.688-0.17,1.351-0.021,2.026c0.19,0.865,0.393,1.727,0.142,2.62c-0.016,0.073-0.008,0.17,0.021,0.243
		c0.368,1.075,0.125,2.103-0.138,3.154c-0.134,0.533-0.117,1.12-0.102,1.683c0.033,0.849,2.863,5.245,2.079,5.564
		c-0.315,0.126-4.966,2.455-4.966,2.455s1.553-2.03,0.631-9.694c-0.3-2.503-1.093-4.837-2.411-6.984
		c-0.267-0.433-0.469-0.922-0.627-1.411c-0.068-0.219-0.036-0.615,0.109-0.729c0.17-0.138,0.542-0.138,0.772-0.053
		c0.627,0.223,1.063,0.7,1.403,1.278c0.292,0.497,0.606,0.986,0.914,1.48c0.049-0.028,0.105-0.053,0.162-0.077
		c-0.194-0.546-0.332-1.116-0.583-1.634c-1.015-2.091-2.386-3.955-3.74-5.828c-0.578-0.809-1.084-1.674-1.605-2.527
		c-0.268-0.437-0.381-0.918-0.194-1.443c0.38-0.134,0.671,0.027,0.918,0.299c1.683,1.82,3.28,3.704,4.614,5.804
		c0.146,0.238,0.275,0.489,0.485,0.878c0.065-0.256,0.146-0.409,0.122-0.538c-0.154-0.716-0.292-1.44-0.519-2.132
		c-0.663-1.994-1.605-3.842-2.888-5.5c-0.153-0.198-0.246-0.348-0.109-0.623c0.077-0.146,0.029-0.449-0.084-0.59
		c-0.898-1.149-1.8-2.298-2.767-3.397c-0.574-0.655-0.922-0.534-1.214,0.283c-0.032,0.093-0.161,0.202-0.258,0.222
		c-1.699,0.332-3.042,1.327-4.36,2.383c-1.011,0.809-2.062,1.577-3.017,2.446c-0.494,0.457-0.825,1.108-1.234,1.667
		c-0.125,0.165-0.238,0.404-0.408,0.452c-0.533,0.158-0.906,0.502-1.27,0.89c-0.469,0.494-1.035,0.748-1.743,0.64
		c-0.518-0.077-0.901,0.17-1.314,0.525c-0.752,0.659-1.585,1.25-2.442,1.768c-0.951,0.57-1.966,1.027-2.961,1.521
		c-0.857,0.433-1.666,0.897-2.062,1.853c-0.032,0.077-0.089,0.146-0.153,0.189c-1.46,0.959-2.896,1.974-4.728,2.019
		c-0.094,0.004-0.203,0.024-0.296,0c-1.241-0.323-2.362,0.102-3.498,0.525c-2.423,0.91-4.946,1.076-7.502,1.108
		c-3.099,0.045-6.057-0.61-8.984-1.532c-1.612-0.51-3.229-1.004-4.854-1.513c-0.166,1.415-0.402,2.847-0.506,4.295
		c-0.212,3.094-0.016,6.171,0.407,9.241c0.033,0.246-0.004,0.554-0.137,0.744c-0.1,0.142-0.447,0.25-0.604,0.186
		c-0.203-0.089-0.435-0.344-0.463-0.558c-0.249-1.747-0.514-3.499-0.651-5.258c-0.223-2.823-0.059-5.646,0.249-8.457
		c0.111-1.026,0.111-1.019-0.874-1.262c-0.336-0.085-0.671-0.182-0.983-0.323c-1.539-0.68-3.063-1.379-4.604-2.047
		c-0.538-0.238-0.881-0.603-1.047-1.164c-0.055-0.17-0.149-0.328-0.229-0.502c-0.534,0.619-0.613,0.647-1.27,0.162
		c-1.828-1.335-3.65-2.682-5.456-4.053c-0.546-0.42-1.031-0.934-1.553-1.415c-0.779,0.663-4.297,6.652-4.621,7.91
		c0.293-0.048,0.593-0.153,0.89-0.146c0.581,0.021,0.894,0.4,0.767,0.967c-0.083,0.384-0.253,0.76-0.443,1.104
		c-0.576,1.036-1.157,2.063-1.355,3.265c-0.162,0.97,0,2.839,0.395,3.708c0.241-0.396,0.447-0.801,0.708-1.16
		c0.224-0.308,0.489-0.591,0.771-0.842c0.359-0.315,0.774-0.444,1.225-0.153c0.439,0.291,0.604,0.756,0.494,1.314
		c-0.15,0.72-0.32,1.436-0.423,2.168c-0.055,0.388-0.042,0.805,0.055,1.185c0.048,0.202,0.321,0.348,0.495,0.518
		c0.13-0.134,0.304-0.255,0.378-0.421c0.261-0.558,0.455-1.152,0.728-1.702c0.182-0.364,0.427-0.712,0.695-1.02
		c0.291-0.327,0.68-0.505,1.122-0.34c0.447,0.17,0.755,0.506,0.795,0.999c0.043,0.615,0.083,1.238,0.03,1.853
		c-0.149,1.808,0.249,3.515,0.831,5.197c0.229,0.663,0.382,1.358,0.672,1.985c0.327,0.704,0.02,1.233-0.31,1.845
		c-0.358-0.43-0.684-0.821-1.046-1.258c0.035,0.922,0.087,1.779,0.087,2.637c0,0.299-0.069,0.643-0.214,0.897
		c-0.894,1.558,1.067,1.096,0.153,2.641c-0.074-0.02-2.469-0.942-2.54-0.958c0.05-0.417,0.407-1.67,0,0
		c0.987-3.15,0.335-4.506-1.27-7.381c-0.287-0.514-0.663-1.031-1.126-1.367c-1.939-1.407-3.311-3.271-4.465-5.342
		c-0.126-0.223-0.283-0.425-0.465-0.696c-0.906,1.133-1.527,2.317-2.041,3.563c-0.778,1.893-1.102,3.834-0.857,5.884
		c0.083,0.684-0.083,1.396-0.133,2.1c-0.024,0.433-0.048,0.861-0.075,1.33c-0.87-0.384-1.545-0.809-1.66-1.925
		c-0.281-2.674-0.119-5.27,0.854-7.789c0.079-0.211,0.224-0.449-0.124-0.578c-0.639-0.235-0.692-0.729-0.647-1.335
		c0.182-2.561,0.964-4.942,2.026-7.243c0.503-1.104,1.068-2.152,1.984-2.973c0.164-0.146,0.273-0.381,0.376-0.583
		c0.641-1.273,1.242-2.576,1.921-3.829c0.557-1.027,1.193-2.006,1.814-2.997c0.924-1.477,1.426-3.11,1.798-4.801
		c0.647-2.92,1.408-5.819,2.631-8.558c0.558-1.25,1.407-2.37,2.115-3.555c0.104-0.178,0.203-0.385,0.217-0.583
		c0.107-1.683,0.198-3.364,0.273-5.047c0.008-0.178-0.071-0.393-0.174-0.546c-0.394-0.562-0.816-1.096-1.213-1.646
		c-0.241-0.327-0.431-0.667-0.304-1.107c0.035-0.113-0.052-0.292-0.139-0.396c-0.237-0.275-0.498-0.53-0.754-0.789
		c-0.312-0.315-0.51-0.631-0.592-1.124c-0.154-0.857-0.609-1.634-1.446-2.042c-1.185-0.579-2.38-1.128-3.561-1.687
		c-1.952,1.917-7.765,1.832-10.693-1.051c-0.249,0.279-0.502,0.554-0.747,0.841c-2.376,2.791-4.711,5.609-7.142,8.352
		c-2.9,3.272-6.2,6.119-9.464,9.007c-0.34,0.299-0.774,0.529-0.803,1.084c-0.006,0.097-0.17,0.189-0.275,0.263
		c-1.937,1.302-3.818,2.722-5.838,3.866c-1.251,0.712-2.651,1.258-4.154,1.326c-1.636,0.073-3.314,0.23-4.824-0.489
		c-3.276-1.564-5.426-4.093-5.856-7.846c-0.17-1.456-0.129-2.932-0.186-4.4c-0.01-0.178-0.022-0.355-0.035-0.533
		C92.09,146.037,92.297,144.342,92.499,142.651"/>
	<path clip-path="url(#SVGID_2_)" fill="#54514C" d="M214.033,185.917c-0.735,0.502-1.043,0.4-1.447-0.546
		c-0.902-2.127-1.792-4.259-2.693-6.39c-0.041-0.105-0.098-0.202-0.162-0.327c-0.606,1.253-1.205,2.479-1.787,3.708
		c-0.348,0.752-0.655,1.524-0.995,2.289c-0.179,0.376-0.34,0.765-0.579,1.101c-0.363,0.521-0.966,0.675-1.432,0.424
		c-0.432-0.234-0.578-0.728-0.367-1.371c0.485-1.472,1.019-2.932,1.48-4.412c0.38-1.209,0.695-2.438,1.043-3.656
		c0.008-0.048,0-0.108,0.016-0.149c0.842-1.452,0.688-3.183,1.299-4.699c0.295-0.72,0.646-1.42,0.975-2.127
		c0.085-0.179,0.21-0.344,0.275-0.53c0.21-0.614,0.688-0.805,1.229-0.469c0.825,0.505,0.891,0.671,0.704,1.63
		c-0.267,1.432-0.534,2.854-0.784,4.282c-0.041,0.19-0.017,0.4,0.028,0.583c0.433,1.715,0.82,3.441,1.334,5.128
		C212.731,182.249,213.406,184.073,214.033,185.917"/>
	<path clip-path="url(#SVGID_2_)" fill="#54514C" d="M203.992,139.574c-0.102-1.015-0.143-1.969-0.668-2.835
		c-0.198-0.328-0.307-0.769-0.291-1.148c0.016-0.514,0.194-1.023,0.332-1.667c0.971,0.935,1.812,1.699,1.957,2.985
		c0.064,0.558,0.372,1.088,0.554,1.634c0.077,0.214,0.17,0.449,0.149,0.667c-0.323,3.519,0.098,6.96,0.987,10.361
		c0.017,0.057,0.024,0.125,0.036,0.187c-0.501,0.157-0.716,0.012-0.801-0.534c-0.223-1.448-0.448-2.899-0.675-4.348
		c-0.021-0.13-0.057-0.259-0.089-0.38c-0.057-0.004-0.113-0.009-0.17-0.021c-0.126,0.812-0.251,1.626-0.381,2.438
		c-0.008,0.064,0.045,0.182,0.098,0.206c0.477,0.227,0.388,0.627,0.344,1.036c-0.049,0.529-0.142,1.075-0.073,1.593
		c0.057,0.518,0.235,1.035,0.466,1.501c0.193,0.396,0.278,0.72-0.073,1.027c-0.308,0.271-0.623,0.182-0.963-0.235
		c-0.108-0.138-0.234-0.271-0.299-0.348c-0.17,0.194-0.404,0.425-0.583,0.688c-0.129,0.183-0.193,0.417-0.258,0.631
		c-0.118,0.372-0.183,0.772-0.692,0.776c-0.485,0.005-0.61-0.363-0.739-0.735c-0.502-1.469-0.316-2.933,0.21-4.319
		c0.425-1.133,0.565-2.261,0.493-3.446c-0.024-0.299-0.016-0.57,0.299-0.772c0.138-0.093,0.211-0.384,0.219-0.582
		c0.017-1.148,0.041-2.305-0.016-3.454C203.341,139.954,203.519,139.699,203.992,139.574"/>
	<path clip-path="url(#SVGID_2_)" fill="#54514C" d="M213.205,176.898c0.428,0.275,0.905,0.461,1.201,0.805
		c0.926,1.056,1.249,2.362,1.294,3.741c0.004,0.125-0.194,0.336-0.332,0.368c-0.4,0.097-0.695-0.117-0.901-0.457
		c-0.636-1.056-1.291-2.095-1.885-3.175c-0.134-0.239-0.166-0.623-0.077-0.886C212.569,177.121,212.922,177.048,213.205,176.898"/>
	<path clip-path="url(#SVGID_2_)" fill="#54514C" d="M178.521,175.018c0.433,0.227,0.902,0.211,1.027,0.732
		c0.093,0.368-0.238,0.882-0.708,1.104c-0.603,0.296-1.221,0.308-1.787-0.061c-0.542-0.348-0.582-0.934-0.032-1.253
		C177.469,175.272,178.016,175.184,178.521,175.018"/>
	<path clip-path="url(#SVGID_2_)" fill="#54514C" d="M176.26,171.899c0.518-0.04,0.951-0.072,1.448-0.113
		C177.295,172.349,177.057,172.365,176.26,171.899"/>
	<path clip-path="url(#SVGID_2_)" fill="#54514C" d="M178.29,171.904c0.21,0.027,0.421,0.057,0.64,0.08
		c0.008,0.037,0.02,0.073,0.023,0.113c-0.141,0.061-0.291,0.183-0.428,0.174c-0.113-0.008-0.215-0.17-0.324-0.267
		C178.233,171.977,178.262,171.94,178.29,171.904"/>
	<path clip-path="url(#SVGID_2_)" fill="#54514C" d="M155.312,169.247c0.583,0.146,1.126,0.497,1.47,1.112
		c0.186,0.331,0.115,0.606-0.261,0.764c-0.841,0.344-1.919-0.299-2.014-1.201C154.459,169.457,154.761,169.166,155.312,169.247"/>
	<path clip-path="url(#SVGID_2_)" fill="#54514C" d="M198.508,171.212c-0.109,0.946-0.902,1.505-1.752,1.242
		c-0.477-0.142-0.646-0.429-0.501-0.906c0.223-0.708,0.728-1.145,1.42-1.33C198.253,170.067,198.584,170.488,198.508,171.212"/>
	<path clip-path="url(#SVGID_2_)" fill="#54514C" d="M110.395,212.921c-0.746-0.453-2.584-1.569-3.334-2.026
		c-0.277-0.166-0.597-0.312-0.649-0.489c-0.066-0.206,0.123-0.444,0.251-0.651c2.531-4.169,4.133-6.811,6.661-10.979
		c0.14-0.223,0.166-0.227,0.356-0.308c0.19-0.073,0.31,0,0.483,0.105c0.952,0.578,2.639,1.602,3.595,2.184
		c0.207,0.121,0.124,0.263-0.289,0.942c-0.473,0.78-0.536,0.882-0.762,0.744c-0.469-0.279-1.403-0.854-1.735-1.052
		c-0.142-0.085-0.36-0.194-0.457-0.157c-0.155,0.072-0.147,0.052-0.285,0.278c-0.704,1.165-0.684,1.129-1.391,2.293
		c-0.095,0.158-0.245,0.324-0.169,0.514c0.07,0.162,0.202,0.215,0.339,0.304c0.297,0.178,0.679,0.408,0.837,0.506
		c0.206,0.125,0.162,0.238-0.304,1.007c-0.442,0.728-0.505,0.833-0.732,0.695c-0.137-0.085-0.469-0.287-0.783-0.477
		c-0.17-0.105-0.374-0.203-0.465-0.211c-0.219,0.008-0.289,0.206-0.427,0.429c-0.845,1.392-0.728,1.201-1.569,2.589
		c-0.142,0.227-0.34,0.554-0.285,0.659c0.057,0.108,0.289,0.271,0.479,0.388c0.469,0.283,1.181,0.716,1.648,0.999
		c0.212,0.13,0.188,0.206-0.277,0.975C110.647,212.978,110.585,213.038,110.395,212.921"/>
	<path clip-path="url(#SVGID_2_)" fill="#54514C" d="M121.739,208.392c0.036-0.089,0.182-0.518,0.054-0.574
		c-0.095-0.041-0.335,0.412-0.37,0.485c-0.732,1.407-1.214,2.305-1.81,3.462c-0.079,0.125,0.026,0.189,0.303,0.315
		c0.245,0.101,0.415,0.223,0.467,0.044C120.897,210.709,121.185,209.904,121.739,208.392 M119.783,217.435
		c-0.538-0.243-0.905-0.356-0.831-0.635c0.31-1.104,0.546-1.845,0.844-2.933c0.066-0.194-0.174-0.255-0.472-0.384
		c-0.352-0.158-0.521-0.279-0.621-0.102c-0.572,0.995-0.948,1.65-1.517,2.686c-0.107,0.198-0.509,0-1.102-0.263
		c-0.281-0.117-0.93-0.408-0.839-0.566c2.818-4.55,4.737-7.595,7.318-11.805c0.152-0.247,0.681-0.033,1.092,0.146
		c0.465,0.202,0.956,0.44,0.857,0.776c-1.371,5.083-2.237,8.161-3.624,13.342C120.837,217.92,120.285,217.652,119.783,217.435"/>
	<path clip-path="url(#SVGID_2_)" fill="#54514C" d="M133.601,209.423c-0.232-0.073-0.501-0.166-0.829-0.275
		c-0.21-0.072-0.463-0.153-0.57-0.149c-0.22,0.077-0.291,0.416-0.372,0.672c-1.425,4.254-2.153,6.434-3.562,10.652
		c-0.057,0.174-0.277,0.121-1.183-0.183c-0.809-0.267-0.983-0.327-0.916-0.518c1.408-4.222,2.146-6.418,3.561-10.66
		c0.083-0.247,0.229-0.562,0.103-0.757c-0.087-0.068-0.335-0.153-0.546-0.223c-0.273-0.093-0.542-0.182-0.716-0.242
		c-0.287-0.093-0.299-0.247-0.031-1.06c0.271-0.805,0.353-0.931,0.585-0.854c1.213,0.409,3.876,1.294,5.09,1.703
		c0.232,0.076,0.189,0.259-0.053,0.986C133.866,209.402,133.813,209.495,133.601,209.423"/>
	<path clip-path="url(#SVGID_2_)" fill="#54514C" d="M139.066,218.037c-0.869-0.105-1.324-1.173-1.019-2.034
		c0.252-0.736,0.618-1.388,1.765-1.044c0.762,0.219,1.189,0.999,1,1.788C140.646,217.446,140.401,218.19,139.066,218.037"/>
	<path clip-path="url(#SVGID_2_)" fill="#54514C" d="M152.757,225.806c-0.063,0.255-0.435,0.162-0.957,0.077
		c-0.261-0.04-0.825-0.149-0.833-0.352c-0.061-1.331-0.087-2.362-0.135-3.645c-0.008-0.084,0.016-0.222-0.103-0.242
		c-0.105-0.017-0.125,0.125-0.154,0.186c-0.427,1.165-0.762,2.144-1.225,3.426c-0.105,0.255-0.664,0.146-1.066,0.085
		c-0.261-0.04-0.969-0.109-0.949-0.372c0.261-3.579,0.613-8.643,0.975-13.771c0.004-0.162,0.579-0.158,0.981-0.097
		c0.601,0.097,1.102,0.189,1.09,0.4c-0.378,3.765-0.561,6.139-0.9,9.54c-0.008,0.061-0.008,0.202,0.091,0.218
		c0.122,0.021,0.162-0.112,0.174-0.197c0.481-1.917,0.791-3.252,1.197-4.955c0.05-0.178,0.237-0.21,0.6-0.157
		c0.403,0.064,0.617,0.138,0.605,0.344c-0.133,1.917-0.261,3.146-0.364,5.165c-0.013,0.064-0.013,0.206,0.087,0.222
		c0.123,0.017,0.166-0.121,0.178-0.198c0.708-3.53,1.367-6.616,1.968-9.443c0.032-0.198,0.495-0.129,0.956-0.061
		c0.542,0.085,1.072,0.125,1.009,0.385C155.233,215.477,153.626,222.179,152.757,225.806"/>
	<path clip-path="url(#SVGID_2_)" fill="#54514C" d="M161.721,217.892c0.008-0.105,0.008-0.55-0.133-0.566
		c-0.103-0.008-0.186,0.493-0.194,0.578c-0.237,1.569-0.407,2.572-0.601,3.858c-0.033,0.142,0.087,0.174,0.39,0.198
		c0.265,0.024,0.463,0.081,0.455-0.101C161.67,220.351,161.683,219.497,161.721,217.892 M162.776,227.076
		c-0.588-0.049-0.977-0.045-0.995-0.332c-0.061-1.148-0.072-1.925-0.14-3.049c0-0.207-0.248-0.19-0.572-0.215
		c-0.384-0.032-0.584-0.089-0.621,0.109c-0.22,1.12-0.368,1.868-0.572,3.029c-0.037,0.223-0.479,0.162-1.126,0.105
		c-0.305-0.024-1.013-0.09-0.98-0.271c1.209-5.213,2.046-8.707,3.139-13.528c0.066-0.283,0.635-0.255,1.082-0.21
		c0.505,0.04,1.051,0.109,1.06,0.457c0.34,5.249,0.509,8.444,0.857,13.799C163.927,227.201,163.322,227.125,162.776,227.076"/>
	<path clip-path="url(#SVGID_2_)" fill="#54514C" d="M173.227,227.558c-0.973-0.028-3.33-0.098-3.9-0.113
		c-0.283-0.009-0.568-0.017-0.663-0.142c-0.12-0.146-0.091-0.453-0.083-0.716c0.146-4.878,0.244-8.186,0.39-13.06
		c0.008-0.287,0.111-0.323,1.025-0.295c1.036,0.032,1.157,0.057,1.149,0.38c-0.129,4.348-0.241,8.061-0.332,11.09
		c-0.008,0.263-0.037,0.606,0.099,0.716c0.1,0.061,0.344,0.089,0.546,0.097c0.449,0.013,1.363,0.041,1.806,0.053
		c0.265,0.008,0.283,0.109,0.256,0.963C173.492,227.509,173.472,227.565,173.227,227.558"/>
	<path clip-path="url(#SVGID_2_)" fill="#54514C" d="M183.531,227.432c-0.91,0.028-1.092,0.069-1.181-0.25
		c-0.61-2.181-0.995-3.511-1.585-5.69c-0.045-0.183-0.187-0.219-0.413,0.335c-0.113,0.291-0.149,0.555-0.142,0.861
		c0.045,1.541,0.077,2.925,0.126,4.465c0.008,0.328-0.498,0.381-1.084,0.396c-0.534,0.013-1.076-0.012-1.084-0.291
		c-0.146-5.1-0.247-8.715-0.384-13.589c-0.004-0.267,0.602-0.303,1.047-0.315c0.474-0.012,1.116-0.032,1.125,0.275
		c0.048,1.666,0.093,3.292,0.137,4.914c0.008,0.141-0.008,0.448,0.117,0.4c0.061-0.021,0.094-0.243,0.13-0.389
		c0.514-1.961,0.748-3.025,1.262-5.011c0.053-0.227,0.178-0.21,1.137-0.234c0.995-0.028,1.181,0.044,1.14,0.17
		c-0.631,2.188-0.873,3.049-1.528,5.144c-0.073,0.227-0.125,0.47-0.117,0.672c0.004,0.186,0.028,0.344,0.162,0.732
		c0.845,2.737,1.29,4.148,2.212,7.13C184.623,227.282,184.607,227.399,183.531,227.432"/>
	<path clip-path="url(#SVGID_2_)" fill="#54514C" d="M192.712,221.446c-0.857,0.182-1.638-0.675-1.63-1.594
		c0-0.772,0.13-1.508,1.327-1.564c0.796-0.041,1.452,0.554,1.532,1.362C194.006,220.366,194.022,221.155,192.712,221.446"/>
	<path clip-path="url(#SVGID_2_)" fill="#54514C" d="M207.36,223.044c-0.469,1.339-0.853,1.86-2.297,2.106
		c-1.638,0.283-3.073-0.477-3.386-2.297c-0.036-0.223-0.148-0.861-0.197-1.12c-0.024-0.182,0.146-0.234,0.95-0.376
		c0.801-0.134,1.181-0.202,1.205-0.041c0.053,0.264,0.113,0.644,0.149,0.842c0.126,0.74,0.344,1.156,0.946,1.052
		c0.534-0.089,0.611-0.518,0.591-0.861c-0.036-0.349-0.072-0.651-0.121-0.931c-0.3-1.739-4.502-3.511-5.02-6.516
		c-0.101-0.558-0.016-1.521,0.162-2.025c0.182-0.506,0.756-1.469,2.123-1.707c1.695-0.291,3.054,0.772,3.309,2.229
		c0.053,0.303,0.109,0.643,0.17,0.982c0.023,0.146-0.264,0.17-0.938,0.291c-0.761,0.13-1.165,0.198-1.188,0.057
		c-0.045-0.255-0.13-0.74-0.154-0.918c-0.102-0.562-0.542-0.837-0.882-0.776c-0.36,0.061-0.582,0.433-0.57,0.757
		c0.017,0.307,0.036,0.554,0.085,0.809c0.404,2.365,4.506,3.328,5.072,6.584C207.474,221.786,207.522,222.562,207.36,223.044"/>
	<path clip-path="url(#SVGID_2_)" fill="#54514C" d="M217.285,222.53c-0.95,0.23-3.243,0.793-3.793,0.922
		c-0.275,0.073-0.555,0.138-0.68,0.049c-0.154-0.113-0.207-0.417-0.268-0.672c-1.16-4.739-1.941-7.955-3.102-12.69
		c-0.068-0.275,0.021-0.34,0.91-0.559c1.007-0.246,1.133-0.255,1.209,0.061c1.027,4.227,1.913,7.838,2.633,10.778
		c0.057,0.255,0.121,0.595,0.283,0.663c0.113,0.037,0.355,0,0.554-0.053c0.437-0.104,1.323-0.327,1.76-0.428
		c0.255-0.065,0.299,0.032,0.501,0.861C217.52,222.404,217.52,222.474,217.285,222.53"/>
	<path clip-path="url(#SVGID_2_)" fill="#54514C" d="M226.797,219.631c-0.832,0.271-2.879,0.938-3.704,1.213
		c-0.312,0.097-0.627,0.242-0.801,0.174c-0.198-0.085-0.251-0.393-0.331-0.619c-1.514-4.635-2.472-7.57-3.988-12.205
		c-0.081-0.251-0.068-0.275-0.004-0.465c0.068-0.198,0.198-0.239,0.393-0.304c1.06-0.344,2.936-0.958,3.995-1.307
		c0.235-0.072,0.283,0.081,0.534,0.829c0.283,0.87,0.323,0.987,0.068,1.068c-0.521,0.17-1.564,0.514-1.929,0.635
		c-0.157,0.049-0.38,0.146-0.413,0.238c-0.057,0.166-0.061,0.149,0.025,0.4c0.42,1.294,0.408,1.254,0.832,2.548
		c0.053,0.174,0.086,0.4,0.279,0.466c0.166,0.052,0.295-0.013,0.449-0.062c0.323-0.108,0.752-0.25,0.926-0.303
		c0.23-0.081,0.291,0.032,0.57,0.882c0.264,0.812,0.3,0.926,0.049,1.011c-0.154,0.049-0.525,0.17-0.873,0.283
		c-0.187,0.061-0.396,0.149-0.462,0.214c-0.133,0.174-0.032,0.356,0.049,0.603c0.506,1.545,0.437,1.335,0.938,2.88
		c0.085,0.251,0.206,0.619,0.323,0.643c0.113,0.029,0.393-0.044,0.603-0.113c0.521-0.169,1.314-0.424,1.832-0.594
		c0.234-0.081,0.279-0.008,0.559,0.837C227.008,219.477,227.008,219.558,226.797,219.631"/>
	<path clip-path="url(#SVGID_2_)" fill="#54514C" d="M236.184,215.833c-0.796,0.348-2.777,1.205-3.578,1.553
		c-0.3,0.13-0.595,0.308-0.777,0.247c-0.21-0.061-0.291-0.36-0.388-0.583c-1.941-4.473-3.171-7.304-5.108-11.78
		c-0.101-0.243-0.093-0.271-0.053-0.466c0.053-0.198,0.183-0.255,0.368-0.335c1.027-0.445,2.835-1.229,3.858-1.675
		c0.223-0.097,0.291,0.053,0.603,0.78c0.364,0.838,0.413,0.947,0.17,1.056c-0.501,0.215-1.509,0.655-1.86,0.81
		c-0.153,0.061-0.363,0.178-0.389,0.274c-0.04,0.174-0.048,0.154,0.057,0.4c0.543,1.246,0.526,1.21,1.068,2.459
		c0.072,0.166,0.125,0.389,0.323,0.433c0.17,0.041,0.296-0.036,0.445-0.101c0.315-0.138,0.724-0.315,0.894-0.389
		c0.223-0.097,0.287,0.009,0.643,0.825c0.34,0.784,0.393,0.897,0.146,0.999c-0.146,0.068-0.502,0.218-0.842,0.364
		c-0.186,0.085-0.38,0.186-0.437,0.263c-0.122,0.182,0,0.352,0.104,0.595c0.647,1.492,0.559,1.285,1.206,2.778
		c0.101,0.242,0.255,0.599,0.372,0.61c0.121,0.017,0.388-0.081,0.594-0.166c0.502-0.218,1.267-0.55,1.768-0.772
		c0.227-0.093,0.275-0.028,0.635,0.793C236.374,215.663,236.391,215.748,236.184,215.833"/>
	<path clip-path="url(#SVGID_2_)" fill="#54514C" d="M238.906,202.195c-0.219-0.363-0.438-0.688-0.801-0.825
		c-0.223-0.052-0.421-0.032-0.695,0.138c-0.215,0.126-0.405,0.234-0.434,0.348c-0.008,0.102,0.033,0.174,0.094,0.275
		c1.043,1.747,0.958,1.609,1.981,3.316c0.104,0.174,0.17,0.327,0.323,0.303c0.098-0.036,0.219-0.108,0.393-0.21
		c0.194-0.117,0.408-0.315,0.465-0.655c0.049-0.433-0.125-0.684-0.323-1.015C239.513,203.211,239.294,202.843,238.906,202.195
		 M242.271,205.532c-0.255,0.841-0.913,1.428-1.561,1.815c-0.247,0.142-0.323,0.336-0.065,0.769c0.53,0.89,1.658,2.771,2.273,3.802
		c0.178,0.295-0.008,0.385-0.809,0.861c-0.789,0.474-0.891,0.53-1.125,0.149c-2.062-3.453-4.731-7.918-6.737-11.283
		c-0.13-0.214-0.19-0.364-0.174-0.489c0.012-0.174,0.165-0.243,0.372-0.364c0.416-0.255,1.311-0.784,1.783-1.067
		c0.695-0.417,1.496-0.655,2.281-0.534c0.886,0.134,1.537,0.64,2.062,1.513c1.02,1.711,0.355,0.595,1.367,2.285
		C242.363,203.704,242.57,204.525,242.271,205.532"/>
	<path clip-path="url(#SVGID_2_)" fill="#54514C" d="M126.333,184.7c0.716-1.917-22.611-7.292-25.669-8.76
		c-6.327-3.042-16.416-8.093-18.696-10.467c-2.35,2.248,2.869,12.023,2.869,12.023s-12.408-3.677-14.851-1.335
		c4.129,4.287,19.249,16.359,26.583,21.88l8.44-14.405C105.01,183.637,125.617,186.621,126.333,184.7"/>
	<path clip-path="url(#SVGID_2_)" fill="#54514C" d="M174.998,238.954c-31.135,0-61.362-9.362-87.456-27.097
		c-0.581-0.393-0.73-1.186-0.335-1.764c0.467-0.691,0.926-1.383,1.379-2.074c2.438-3.741,4.703-7.607,6.896-11.345l0.053-0.097
		c2.631-4.489,5.342-9.124,8.424-13.657c0.393-0.579,1.186-0.732,1.764-0.34c0.584,0.4,0.734,1.188,0.34,1.771
		c-3.031,4.46-5.723,9.062-8.327,13.512l-0.059,0.093c-2.208,3.766-4.485,7.66-6.958,11.449c-0.23,0.352-0.463,0.704-0.696,1.056
		c25.429,16.982,54.774,25.948,84.977,25.948c0.146,0,0.283,0,0.429,0c0.704,0,1.271,0.566,1.274,1.27
		c0,0.704-0.57,1.271-1.266,1.274C175.289,238.954,175.144,238.954,174.998,238.954"/>
	<path clip-path="url(#SVGID_2_)" fill="#54514C" d="M224.524,184.7c-0.716-1.917,22.612-7.292,25.669-8.76
		c6.33-3.042,16.416-8.093,18.697-10.467c2.35,2.248-2.872,12.023-2.872,12.023s12.408-3.677,14.851-1.335
		c-4.125,4.287-19.246,16.359-26.578,21.88l-8.445-14.405C245.846,183.637,225.24,186.621,224.524,184.7"/>
	<path clip-path="url(#SVGID_2_)" fill="#54514C" d="M175.855,238.954c-0.146,0-0.287,0-0.433,0c-0.7-0.004-1.266-0.57-1.266-1.274
		c0-0.699,0.57-1.27,1.27-1.27h0.004c0.142,0,0.287,0,0.425,0c30.211,0,59.548-8.966,84.979-25.948
		c-0.234-0.352-0.461-0.704-0.695-1.056c-2.5-3.834-4.793-7.753-7.013-11.542c-2.621-4.474-5.322-9.084-8.331-13.512
		c-0.396-0.583-0.243-1.371,0.34-1.768c0.582-0.396,1.37-0.243,1.767,0.336c3.058,4.501,5.779,9.144,8.408,13.637
		c2.216,3.781,4.493,7.677,6.964,11.462c0.449,0.691,0.906,1.383,1.375,2.074c0.396,0.578,0.243,1.371-0.331,1.764
		C237.224,229.592,206.988,238.954,175.855,238.954"/>
	<path clip-path="url(#SVGID_2_)" fill="#54514C" d="M175.427,205.553c-39.233,0-67.926-16.971-71.115-20.606
		c-0.285-0.323-0.649-0.829-0.562-1.476c0.041-0.336,0.249-0.684,0.521-0.895c0.672-0.505,1.396-0.437,6.801,0.353
		c1.296,0.194,2.712,0.4,4.146,0.591c4.625,0.618,7.168,0.731,8.56,0.667c-1.703-0.603-4.493-1.339-7.228-2.062l-2.505-0.668
		c-8.378-2.248-18.06-5.147-26.389-9.629c-0.621-0.332-0.847-1.101-0.518-1.723c0.332-0.615,1.103-0.85,1.723-0.519
		c8.097,4.356,17.609,7.203,25.843,9.412l2.501,0.663c7.466,1.981,9.852,2.677,10.398,4.193c0.191,0.534,0.104,1.112-0.235,1.59
		c-0.94,1.311-3.284,1.828-12.487,0.595c-1.446-0.19-2.874-0.4-4.18-0.591c-0.732-0.105-1.494-0.215-2.206-0.319
		c7.736,5.29,33.337,17.88,66.931,17.88c33.596,0,59.2-12.59,66.933-17.88c-0.711,0.104-1.472,0.214-2.208,0.319
		c-1.302,0.194-2.733,0.4-4.173,0.591c-9.201,1.233-11.543,0.716-12.485-0.595c-0.344-0.478-0.433-1.056-0.238-1.59
		c0.542-1.517,2.936-2.212,10.394-4.193l2.504-0.663c8.238-2.209,17.746-5.056,25.843-9.412c0.618-0.331,1.391-0.097,1.723,0.519
		c0.336,0.622,0.101,1.391-0.518,1.723c-8.327,4.481-18.009,7.381-26.385,9.629l-2.512,0.668c-2.734,0.724-5.524,1.46-7.224,2.062
		c1.392,0.064,3.932-0.049,8.559-0.667c1.432-0.19,2.851-0.396,4.148-0.591c5.404-0.785,6.128-0.857,6.795-0.353
		c0.275,0.207,0.485,0.555,0.525,0.895c0.085,0.646-0.278,1.152-0.558,1.476C243.358,188.582,214.664,205.553,175.427,205.553"/>
	<path clip-path="url(#SVGID_2_)" fill="#54514C" d="M226.979,195.228c-0.671,0-1.29-0.445-1.468-1.125l-2.459-9.002
		c-0.227-0.81,0.259-1.65,1.071-1.868c0.813-0.223,1.65,0.254,1.872,1.067l2.459,8.998c0.219,0.817-0.258,1.65-1.075,1.877
		C227.25,195.211,227.113,195.228,226.979,195.228"/>
	<path clip-path="url(#SVGID_2_)" fill="#54514C" d="M123.88,194.807c-0.095,0-0.194-0.012-0.295-0.036
		c-0.586-0.162-0.934-0.769-0.774-1.363l2.457-8.994c0.158-0.591,0.771-0.938,1.359-0.776c0.586,0.157,0.934,0.768,0.774,1.354
		l-2.457,9.003C124.812,194.483,124.364,194.807,123.88,194.807"/>
	<path clip-path="url(#SVGID_2_)" fill="#54514C" d="M11.89,95.681l0.046,0.028c0.787,0.409,1.276,1.108,1.47,2.103
		c0.028,0.17,0.067,0.328,0.111,0.465c0.047,0.138,0.15,0.275,0.315,0.4l0.136,0.069l24.169,12.534
		c0.303,0.157,0.54,0.222,0.706,0.19c0.164-0.028,0.348-0.089,0.546-0.182c0.305-0.154,0.684-0.259,1.13-0.319
		c0.447-0.057,0.932,0.044,1.446,0.312l1.95,1.015l-4.285,8.639l-1.951-1.015c-0.518-0.271-0.878-0.611-1.09-1.031
		c-0.211-0.424-0.344-0.805-0.4-1.145c-0.047-0.218-0.1-0.392-0.17-0.526c-0.067-0.133-0.221-0.259-0.465-0.384l-9.996-5.185
		c-0.423-0.218-0.75-0.101-0.979,0.364l-2.261,4.55c-0.091,0.19-0.111,0.385-0.059,0.587c0.05,0.202,0.166,0.348,0.348,0.44
		l9.906,5.137c0.27,0.146,0.494,0.198,0.659,0.169c0.166-0.032,0.34-0.077,0.526-0.137c0.301-0.154,0.683-0.267,1.138-0.344
		c0.455-0.073,0.94,0.02,1.458,0.291l1.951,1.011l-4.263,8.594l-1.954-1.016c-0.513-0.271-0.879-0.61-1.09-1.031
		c-0.206-0.42-0.344-0.805-0.402-1.145c-0.044-0.218-0.107-0.396-0.19-0.538c-0.083-0.138-0.261-0.283-0.534-0.42L5.781,115.696
		c-0.301-0.158-0.534-0.227-0.691-0.214c-0.16,0.016-0.34,0.069-0.538,0.162c-0.807,0.478-1.656,0.502-2.55,0.077L0,114.686
		l4.267-8.59l0.044,0.02l1.909,0.991l0.047,0.024c0.364,0.19,0.684,0.481,0.96,0.878c0.281,0.396,0.443,0.825,0.485,1.27
		c0.057,0.186,0.124,0.348,0.19,0.481c0.067,0.133,0.214,0.279,0.439,0.437l8.543,4.424c0.245,0.129,0.455,0.142,0.637,0.041
		c0.185-0.097,0.315-0.227,0.391-0.384l2.281-4.594c0.109-0.219,0.122-0.417,0.039-0.595s-0.216-0.315-0.398-0.408l-8.402-4.36
		c-0.303-0.154-0.534-0.23-0.692-0.214c-0.162,0.016-0.34,0.069-0.538,0.162c-0.821,0.429-1.674,0.457-2.552,0.077l-2-1.035
		l4.287-8.639L11.89,95.681z"/>
	<path clip-path="url(#SVGID_2_)" fill="#54514C" d="M29.996,66.032l0.929,0.729c0.459,0.364,0.823,0.756,1.096,1.193
		c0.273,0.433,0.406,0.825,0.402,1.173c0.024,0.194,0.067,0.368,0.119,0.521c0.059,0.154,0.196,0.34,0.419,0.558L53.51,86.371
		c1.023,0.801,1.777,1.69,2.263,2.669c0.487,0.975,0.732,1.99,0.732,3.042c0,1.051-0.207,2.111-0.629,3.179
		c-0.419,1.071-1.016,2.115-1.782,3.134s-1.612,1.884-2.538,2.6c-0.924,0.724-1.889,1.218-2.896,1.5
		c-1.005,0.288-2.041,0.324-3.11,0.118c-1.068-0.202-2.111-0.708-3.135-1.513L21.908,84.968c-0.241-0.194-0.451-0.291-0.637-0.303
		c-0.182-0.012-0.355,0.004-0.521,0.048c-0.299,0.117-0.688,0.158-1.165,0.138c-0.471-0.024-0.964-0.239-1.478-0.643l-1.131-0.886
		l5.687-7.555l0.932,0.732c0.455,0.364,0.794,0.793,1.013,1.294c0.225,0.505,0.332,0.926,0.327,1.274
		c0.024,0.194,0.067,0.368,0.122,0.521c0.057,0.154,0.194,0.34,0.417,0.562l19.904,15.655c1.023,0.805,1.939,1.124,2.75,0.95
		c0.815-0.17,1.513-0.639,2.095-1.407c0.561-0.748,0.809-1.545,0.746-2.402c-0.062-0.857-0.588-1.683-1.585-2.467L29.523,74.857
		c-0.243-0.19-0.476-0.295-0.696-0.316c-0.223-0.02-0.439-0.004-0.649,0.049c-0.3,0.113-0.696,0.129-1.193,0.048
		c-0.493-0.085-0.995-0.323-1.509-0.732l-0.89-0.696L29.996,66.032z"/>
	<path clip-path="url(#SVGID_2_)" fill="#54514C" d="M54.444,53.147c-0.295-0.336-0.593-0.635-0.892-0.894
		c-0.301-0.263-0.609-0.445-0.926-0.55c-0.323-0.097-0.659-0.105-1.011-0.012c-0.356,0.093-0.734,0.324-1.135,0.696l-2.079,1.921
		c-0.18,0.162-0.261,0.344-0.245,0.542c0.012,0.198,0.091,0.372,0.227,0.53l17.995,20.359c0.323,0.36,0.655,0.376,1.011,0.053
		l2.079-1.921c0.4-0.372,0.661-0.736,0.774-1.104c0.115-0.364,0.135-0.711,0.07-1.047c-0.066-0.336-0.212-0.667-0.437-0.995
		c-0.227-0.332-0.475-0.655-0.748-0.962L54.444,53.147z M47.166,48.642c2.166-2.002,4.245-2.888,6.229-2.665
		c1.983,0.226,3.82,1.294,5.504,3.199L73.377,65.56c1.686,1.904,2.538,3.878,2.556,5.917c0.02,2.042-1.058,4.061-3.224,6.066
		l-8.352,7.712l-1.367-1.545c-0.501-0.566-0.809-1.067-0.916-1.504c-0.111-0.433-0.099-0.833,0.042-1.197
		c0.186-0.405,0.099-0.817-0.267-1.229L43.925,59.493c-0.366-0.409-0.791-0.554-1.28-0.433c-0.778,0.207-1.565-0.142-2.366-1.043
		l-1.466-1.662L47.166,48.642z"/>
	<path clip-path="url(#SVGID_2_)" fill="#54514C" d="M75.422,41.116c0.366,0.59,0.944,0.962,1.749,1.12
		c0.803,0.162,1.727,0.239,2.774,0.239c1.043,0,2.174-0.021,3.391-0.069c1.217-0.044,2.406,0.024,3.569,0.214
		c1.165,0.194,2.267,0.558,3.307,1.1c1.035,0.542,1.917,1.399,2.645,2.568l3.133,5.063c0.691,1.112,1.08,2.229,1.167,3.341
		c0.087,1.116-0.057,2.176-0.439,3.183c-0.38,1.007-0.964,1.949-1.747,2.823c-0.782,0.877-1.707,1.662-2.766,2.35
		c-1.064,0.688-2.15,1.205-3.26,1.553c-1.11,0.348-2.186,0.478-3.221,0.393c-1.04-0.089-2.03-0.417-2.963-0.983
		c-0.93-0.566-1.747-1.407-2.435-2.52l-2.588-4.182l2.667-1.727c0.774-0.501,1.504-0.635,2.19-0.4
		c0.688,0.23,1.244,0.688,1.658,1.359l1.361,2.204c0.295,0.465,0.829,0.696,1.604,0.688c0.778-0.012,1.541-0.259,2.287-0.744
		c0.372-0.239,0.696-0.53,0.969-0.87c0.269-0.339,0.475-0.691,0.617-1.047s0.214-0.691,0.218-1.007
		c0.01-0.312-0.053-0.57-0.178-0.777l-2.944-4.752c-0.597-0.966-1.345-1.602-2.236-1.909c-0.894-0.303-1.871-0.453-2.933-0.445
		c-1.06,0.008-2.161,0.073-3.308,0.202c-1.146,0.125-2.3,0.121-3.45-0.016c-1.15-0.142-2.252-0.494-3.312-1.064
		c-1.054-0.57-2.01-1.545-2.864-2.924l-1.974-3.28c-0.726-1.173-1.165-2.301-1.306-3.377c-0.148-1.076-0.057-2.099,0.271-3.074
		c0.321-0.967,0.852-1.869,1.585-2.689c0.732-0.825,1.632-1.582,2.696-2.265c1.062-0.688,2.129-1.185,3.205-1.493
		c1.078-0.307,2.121-0.404,3.132-0.303c1.009,0.109,1.962,0.457,2.854,1.052c0.89,0.599,1.681,1.452,2.368,2.564l2.563,4.133
		l-2.54,1.646c-0.716,0.461-1.502,0.562-2.352,0.287c-0.854-0.267-1.499-0.756-1.933-1.46l-0.846-1.363
		c-0.38-0.619-0.932-0.922-1.656-0.926c-0.73-0.004-1.379,0.182-1.952,0.55c-0.604,0.388-1.019,0.906-1.245,1.545
		c-0.225,0.639-0.205,1.181,0.07,1.618L75.422,41.116z"/>
	<path clip-path="url(#SVGID_2_)" fill="#54514C" d="M105.645,20.947c-0.505-1.25-1.13-1.97-1.87-2.16
		c-0.742-0.194-1.549-0.105-2.429,0.267c-0.848,0.364-1.466,0.881-1.851,1.549c-0.39,0.675-0.331,1.638,0.178,2.888l8.614,21.151
		c0.509,1.25,1.138,1.978,1.885,2.188c0.744,0.21,1.545,0.134,2.388-0.227c0.88-0.376,1.5-0.93,1.86-1.67
		c0.364-0.732,0.281-1.743-0.241-3.025L105.645,20.947z M114.441,51.218c-1.159,0.494-2.308,0.813-3.446,0.955
		c-1.134,0.146-2.21,0.081-3.225-0.202c-1.019-0.279-1.939-0.781-2.766-1.505c-0.829-0.72-1.486-1.687-1.984-2.903l-9.082-22.309
		c-0.497-1.217-0.706-2.378-0.623-3.486c0.083-1.104,0.391-2.119,0.916-3.037c0.526-0.922,1.238-1.751,2.134-2.491
		c0.894-0.736,1.921-1.351,3.084-1.848c1.156-0.49,2.319-0.805,3.476-0.938c1.159-0.137,2.241-0.069,3.25,0.194
		c1.011,0.267,1.931,0.756,2.758,1.48c0.825,0.72,1.488,1.687,1.979,2.908L120,40.339c0.491,1.218,0.699,2.382,0.621,3.486
		c-0.087,1.104-0.386,2.127-0.908,3.062c-0.521,0.938-1.238,1.768-2.154,2.496C116.641,50.11,115.602,50.725,114.441,51.218"/>
	<path clip-path="url(#SVGID_2_)" fill="#54514C" d="M141.461,2.396l0.459,2.136c0.105,0.473,0.166,0.922,0.188,1.343
		c0.024,0.424-0.117,0.829-0.415,1.213c-0.103,0.166-0.182,0.319-0.24,0.457s-0.055,0.36,0.012,0.663l6.772,31.319
		c0.07,0.34,0.048,0.639-0.071,0.894c-0.115,0.263-0.355,0.429-0.72,0.51l-2.888,0.655c-0.463,0.105-0.865-0.021-1.201-0.368
		c-0.335-0.352-0.663-0.772-0.98-1.27c-0.107-0.19-0.447-0.716-1.019-1.585c-0.572-0.869-1.234-1.896-1.996-3.094
		c-0.766-1.197-1.587-2.471-2.469-3.818c-0.886-1.343-1.692-2.596-2.426-3.741c-0.736-1.153-1.351-2.103-1.846-2.868
		c-0.493-0.756-0.746-1.157-0.75-1.189c-0.017-0.064-0.047-0.101-0.079-0.113c-0.036-0.008-0.036,0.069,0,0.239l3.065,14.183
		c0.073,0.34,0.174,0.566,0.302,0.68c0.129,0.117,0.276,0.222,0.438,0.328c0.308,0.146,0.635,0.372,0.983,0.688
		c0.344,0.311,0.578,0.756,0.704,1.334l0.463,2.131l-9.203,2.079l-0.459-2.131c-0.103-0.478-0.083-0.947,0.063-1.404
		c0.139-0.457,0.364-0.881,0.663-1.27c0.127-0.206,0.21-0.376,0.25-0.514c0.042-0.129,0.035-0.335-0.024-0.603l-5.913-27.355
		c-0.352-0.028-0.671-0.129-0.952-0.319c-0.279-0.146-0.54-0.393-0.789-0.728c-0.242-0.335-0.431-0.789-0.554-1.367l-0.506-2.338
		l4.328-0.979c0.398-0.089,0.845-0.093,1.355-0.012c0.501,0.085,0.973,0.485,1.403,1.201c0.051,0.061,0.332,0.481,0.845,1.25
		c0.513,0.776,1.15,1.747,1.913,2.928c0.759,1.181,1.592,2.463,2.502,3.862c0.912,1.395,1.781,2.734,2.618,4.02
		c0.831,1.286,1.569,2.435,2.206,3.45c0.635,1.011,1.066,1.723,1.296,2.131c0.055,0.097,0.087,0.097,0.103,0
		c0.015-0.089,0.01-0.186-0.012-0.287l-3.284-15.203c-0.075-0.335-0.174-0.566-0.301-0.675c-0.129-0.117-0.279-0.227-0.439-0.328
		c-0.312-0.146-0.635-0.376-0.982-0.688s-0.579-0.76-0.704-1.334l-0.463-2.136L141.461,2.396z"/>
	<path clip-path="url(#SVGID_2_)" fill="#54514C" d="M159.035,0.992l0.336,4.255l0.079,1.035c0.048,0.59,0.052,1.088,0.016,1.488
		c-0.038,0.404-0.133,0.789-0.295,1.148c-0.156,0.364-0.384,0.736-0.673,1.125c-0.295,0.392-0.675,0.865-1.141,1.428
		c-0.285,0.303-0.479,0.433-0.583,0.388c-0.109-0.044-0.287-0.142-0.536-0.295c-0.257-0.19-0.376-0.344-0.372-0.465
		c0.008-0.122,0.17-0.372,0.481-0.745c0.467-0.562,0.783-1.1,0.944-1.617c0.166-0.518,0.198-0.959,0.104-1.318
		c-0.099-0.356-0.281-0.639-0.556-0.842c-0.269-0.202-0.609-0.291-1.013-0.254c-0.778,0.064-1.334,0.048-1.666-0.048
		c-0.33-0.093-0.504-0.275-0.53-0.554l-0.327-4.154c-0.024-0.312,0.216-0.542,0.714-0.684c0.499-0.149,1.122-0.25,1.866-0.315
		c0.778-0.061,1.496-0.057,2.149,0.008C158.684,0.648,159.02,0.782,159.035,0.992"/>
	<path clip-path="url(#SVGID_2_)" fill="#54514C" d="M176.381,12.013c-0.023,0.696,0.243,1.343,0.81,1.938
		c0.565,0.603,1.282,1.205,2.135,1.82c0.857,0.615,1.804,1.254,2.827,1.925c1.023,0.675,1.962,1.428,2.811,2.265
		c0.842,0.841,1.545,1.788,2.096,2.835c0.541,1.052,0.788,2.269,0.731,3.656l-0.263,5.981c-0.057,1.318-0.364,2.459-0.914,3.421
		c-0.55,0.966-1.27,1.755-2.144,2.354c-0.873,0.606-1.876,1.035-3.013,1.298c-1.137,0.259-2.326,0.364-3.579,0.304
		c-1.258-0.057-2.438-0.263-3.547-0.627c-1.106-0.364-2.059-0.886-2.863-1.565c-0.803-0.679-1.428-1.524-1.875-2.536
		c-0.453-1.011-0.647-2.176-0.588-3.49l0.214-4.946l3.156,0.146c0.914,0.04,1.588,0.36,2.021,0.95
		c0.433,0.595,0.635,1.29,0.595,2.087l-0.109,2.604c-0.024,0.554,0.287,1.056,0.935,1.496c0.639,0.449,1.399,0.692,2.28,0.728
		c0.441,0.024,0.874-0.028,1.286-0.146c0.413-0.121,0.776-0.287,1.093-0.498c0.311-0.21,0.558-0.445,0.744-0.695
		c0.178-0.255,0.274-0.501,0.283-0.744l0.25-5.618c0.049-1.145-0.21-2.099-0.769-2.875c-0.562-0.772-1.282-1.464-2.155-2.079
		c-0.873-0.611-1.816-1.206-2.827-1.771s-1.953-1.242-2.818-2.03c-0.87-0.785-1.573-1.723-2.124-2.807
		c-0.548-1.084-0.783-2.439-0.714-4.073l0.22-3.846c0.059-1.387,0.332-2.564,0.815-3.535c0.48-0.966,1.13-1.755,1.939-2.357
		c0.805-0.611,1.742-1.032,2.811-1.282c1.06-0.247,2.22-0.344,3.478-0.283c1.254,0.057,2.411,0.275,3.462,0.655
		c1.06,0.376,1.97,0.906,2.742,1.581c0.761,0.68,1.347,1.517,1.747,2.528c0.396,1.011,0.566,2.172,0.51,3.49l-0.21,4.89
		l-3.006-0.138c-0.845-0.036-1.545-0.417-2.09-1.132c-0.551-0.724-0.801-1.5-0.769-2.333l0.072-1.61
		c0.032-0.732-0.251-1.306-0.841-1.73c-0.591-0.429-1.229-0.66-1.909-0.688c-0.712-0.036-1.339,0.142-1.885,0.538
		c-0.542,0.392-0.829,0.849-0.849,1.371L176.381,12.013z"/>
	<path clip-path="url(#SVGID_2_)" fill="#54514C" d="M218.871,47.675c-1.189-0.413-2.258-0.982-3.195-1.714
		c-0.946-0.729-1.699-1.569-2.261-2.516c-0.562-0.946-0.918-1.994-1.056-3.143s0-2.346,0.416-3.595l7.276-21.888
		c0.412-1.25,1.019-2.285,1.815-3.114c0.789-0.821,1.695-1.432,2.706-1.836c1.011-0.4,2.11-0.595,3.292-0.586
		c1.181,0.004,2.365,0.214,3.555,0.631c1.189,0.408,2.244,0.979,3.175,1.703c0.922,0.728,1.666,1.561,2.232,2.507
		c0.558,0.946,0.906,1.994,1.027,3.134c0.121,1.145-0.024,2.342-0.437,3.587l-1.396,4.19l-2.896-1.003
		c-0.805-0.279-1.399-0.769-1.792-1.476c-0.396-0.704-0.461-1.452-0.202-2.241l0.627-1.873c0.206-0.627,0.129-1.339-0.23-2.14
		c-0.364-0.805-0.975-1.358-1.844-1.662c-0.902-0.312-1.719-0.259-2.447,0.17c-0.732,0.421-1.205,0.946-1.412,1.569l-7.651,23.024
		c-0.178,0.53-0.068,1.169,0.323,1.933c0.396,0.756,1.044,1.294,1.941,1.605c0.453,0.158,0.891,0.215,1.314,0.182
		c0.425-0.036,0.817-0.137,1.178-0.307c0.359-0.17,0.662-0.376,0.905-0.619c0.243-0.247,0.413-0.518,0.51-0.812l0.659-1.97
		c0.246-0.76,0.684-1.339,1.307-1.751c0.618-0.404,1.342-0.465,2.184-0.178l3.037,1.056l-1.396,4.194
		c-0.412,1.25-1.007,2.289-1.787,3.118c-0.776,0.829-1.675,1.444-2.682,1.848c-1.015,0.396-2.106,0.595-3.268,0.595
		C221.236,48.298,220.06,48.092,218.871,47.675"/>
	<path clip-path="url(#SVGID_2_)" fill="#54514C" d="M269.715,31.284l-0.027,0.048c-0.425,0.789-1.129,1.266-2.107,1.428
		c-0.17,0.024-0.324,0.052-0.461,0.093c-0.138,0.044-0.275,0.146-0.4,0.312l-0.077,0.138L253.555,57.56
		c-0.162,0.304-0.234,0.542-0.211,0.716c0.024,0.17,0.077,0.36,0.162,0.562c0.138,0.319,0.227,0.708,0.275,1.168
		c0.04,0.457-0.081,0.947-0.356,1.46l-1.06,1.965l-8.299-4.683l1.063-1.958c0.279-0.518,0.627-0.877,1.044-1.075
		c0.416-0.198,0.797-0.324,1.137-0.373c0.21-0.036,0.38-0.089,0.518-0.153c0.125-0.069,0.258-0.219,0.392-0.461l5.411-10.03
		c0.23-0.424,0.122-0.764-0.319-1.019l-4.376-2.463c-0.178-0.101-0.367-0.129-0.566-0.081c-0.201,0.049-0.348,0.158-0.448,0.34
		l-5.362,9.941c-0.146,0.275-0.207,0.498-0.187,0.671c0.024,0.17,0.061,0.352,0.117,0.538c0.138,0.319,0.234,0.708,0.291,1.181
		c0.057,0.469-0.053,0.958-0.331,1.472l-1.056,1.965l-8.255-4.655l1.06-1.961c0.279-0.518,0.627-0.874,1.044-1.076
		c0.42-0.198,0.797-0.323,1.132-0.372c0.219-0.036,0.396-0.097,0.534-0.174c0.138-0.081,0.283-0.255,0.429-0.53l13.019-24.12
		c0.162-0.303,0.238-0.538,0.23-0.7c-0.008-0.166-0.053-0.348-0.138-0.554c-0.437-0.841-0.433-1.711,0.017-2.609l1.08-2.01
		l8.254,4.655l-0.024,0.044l-1.035,1.913l-0.024,0.048c-0.194,0.364-0.493,0.684-0.89,0.951c-0.404,0.275-0.825,0.424-1.266,0.453
		c-0.183,0.053-0.34,0.113-0.474,0.178c-0.129,0.065-0.275,0.21-0.437,0.433l-4.627,8.574c-0.134,0.247-0.153,0.461-0.064,0.651
		c0.093,0.19,0.214,0.328,0.364,0.409l4.416,2.495c0.211,0.113,0.396,0.129,0.582,0.057c0.178-0.077,0.316-0.21,0.413-0.392
		l4.554-8.433c0.162-0.307,0.238-0.538,0.23-0.704c-0.008-0.162-0.053-0.348-0.138-0.55c-0.392-0.857-0.388-1.727,0.013-2.612
		l1.084-2.006l8.299,4.679L269.715,31.284z"/>
	<path clip-path="url(#SVGID_2_)" fill="#54514C" d="M286.014,50.911c0.833-1.052,1.156-1.954,0.971-2.71
		c-0.186-0.76-0.646-1.444-1.391-2.055c-0.713-0.59-1.448-0.897-2.209-0.93c-0.768-0.028-1.568,0.485-2.402,1.537l-14.094,17.811
		c-0.834,1.056-1.165,1.965-0.987,2.734c0.174,0.772,0.619,1.452,1.335,2.042c0.736,0.61,1.508,0.902,2.317,0.877
		c0.805-0.024,1.634-0.574,2.491-1.654L286.014,50.911z M264.158,73.228c-0.979-0.809-1.795-1.691-2.467-2.646
		c-0.663-0.95-1.116-1.949-1.354-2.997c-0.247-1.047-0.247-2.115-0.028-3.203c0.23-1.083,0.748-2.139,1.561-3.163l14.867-18.786
		c0.809-1.023,1.715-1.763,2.701-2.216c0.995-0.449,2.01-0.659,3.054-0.623c1.04,0.037,2.091,0.279,3.159,0.732
		c1.059,0.457,2.078,1.084,3.053,1.893c0.979,0.809,1.8,1.699,2.471,2.673c0.664,0.979,1.125,1.986,1.375,3.021
		c0.256,1.035,0.268,2.091,0.041,3.175c-0.227,1.092-0.744,2.147-1.561,3.171l-14.867,18.786c-0.809,1.023-1.707,1.759-2.701,2.212
		c-0.991,0.453-2.015,0.667-3.066,0.646c-1.051-0.024-2.111-0.271-3.179-0.748C266.156,74.675,265.137,74.032,264.158,73.228"/>
	<path clip-path="url(#SVGID_2_)" fill="#54514C" d="M285.043,84.972c-0.246,0.243-0.388,0.441-0.429,0.599
		c-0.04,0.158-0.048,0.348-0.032,0.566c0.041,0.348,0.017,0.748-0.068,1.217c-0.085,0.465-0.34,0.898-0.757,1.298l-1.553,1.508
		l-6.516-7.037l1.554-1.5c0.424-0.408,0.857-0.639,1.314-0.699c0.461-0.065,0.857-0.065,1.188-0.004
		c0.194,0.008,0.372-0.008,0.526-0.041c0.161-0.032,0.348-0.129,0.57-0.295l0.068-0.077l19.578-18.927
		c0.242-0.243,0.38-0.445,0.408-0.615c0.033-0.174,0.049-0.355,0.057-0.554c-0.04-0.344-0.016-0.752,0.064-1.213
		c0.09-0.465,0.34-0.898,0.757-1.306l1.589-1.537l6.516,7.033l-1.589,1.541c-0.421,0.405-0.861,0.639-1.318,0.7
		c-0.462,0.061-0.857,0.061-1.189,0.004c-0.214-0.032-0.404-0.032-0.558,0c-0.154,0.033-0.36,0.17-0.607,0.405L285.043,84.972z"/>
	<path clip-path="url(#SVGID_2_)" fill="#54514C" d="M291.247,102.459c-0.736-1.04-1.282-2.135-1.634-3.292
		c-0.352-1.149-0.493-2.277-0.412-3.381c0.076-1.112,0.384-2.172,0.922-3.191c0.537-1.019,1.326-1.913,2.369-2.681l18.333-13.536
		c1.044-0.769,2.124-1.258,3.239-1.456c1.113-0.202,2.192-0.166,3.244,0.105s2.055,0.765,3.018,1.468
		c0.954,0.704,1.803,1.577,2.539,2.617c0.736,1.043,1.274,2.131,1.613,3.272c0.344,1.14,0.478,2.261,0.4,3.365
		c-0.076,1.108-0.392,2.164-0.938,3.167c-0.551,1.003-1.343,1.893-2.387,2.661l-3.51,2.592l-1.788-2.532
		c-0.501-0.708-0.704-1.46-0.631-2.269c0.081-0.805,0.453-1.456,1.112-1.941l1.569-1.161c0.521-0.384,0.861-1.011,1.022-1.876
		c0.162-0.87-0.023-1.687-0.558-2.447c-0.558-0.785-1.254-1.226-2.091-1.314c-0.837-0.089-1.517,0.061-2.042,0.445l-19.275,14.236
		c-0.444,0.328-0.716,0.914-0.825,1.763c-0.109,0.854,0.109,1.674,0.672,2.459c0.274,0.4,0.598,0.704,0.962,0.93
		c0.368,0.218,0.744,0.368,1.133,0.445c0.388,0.077,0.752,0.089,1.092,0.028c0.336-0.053,0.631-0.174,0.874-0.356l1.649-1.221
		c0.636-0.465,1.318-0.684,2.055-0.647c0.736,0.036,1.367,0.417,1.885,1.148l1.872,2.661l-3.506,2.592
		c-1.048,0.769-2.119,1.262-3.224,1.48c-1.104,0.21-2.18,0.186-3.231-0.085c-1.051-0.275-2.055-0.76-3.001-1.448
		C292.824,104.364,291.983,103.499,291.247,102.459"/>
	<path clip-path="url(#SVGID_2_)" fill="#54514C" d="M333.013,107.276c-0.198-0.053-0.372-0.045-0.522,0.032l-8.63,4.364
		c-0.429,0.222-0.534,0.546-0.323,0.979l2.62,5.412c0.077,0.157,0.105,0.348,0.081,0.574c-0.024,0.222-0.158,0.396-0.404,0.521
		l-3.195,1.618c-0.42,0.214-0.752,0.093-0.979-0.376l-2.641-5.464c-0.211-0.433-0.53-0.542-0.959-0.328l-9.674,4.897
		c-0.214,0.105-0.348,0.271-0.393,0.489c-0.044,0.215-0.032,0.4,0.045,0.559l1.966,4.056c0.153,0.312,0.433,0.425,0.841,0.332
		c0.744-0.182,1.351-0.109,1.812,0.219c0.461,0.323,0.865,0.845,1.213,1.565l0.793,1.63l-5.436,2.75
		c-0.332,0.174-0.664,0.194-0.995,0.065c-0.323-0.122-0.57-0.36-0.736-0.7l-1.399-2.892l-4.748-9.799l-1.358-2.799l1.827-0.926
		c0.672-0.339,1.222-0.513,1.658-0.518c0.43-0.008,0.801,0.109,1.101,0.34c0.138,0.129,0.327,0.206,0.574,0.239
		c0.239,0.032,0.47-0.008,0.68-0.113l23.966-12.129c0.486-0.247,0.736-0.643,0.736-1.185c0.017-0.356,0.146-0.7,0.381-1.035
		c0.234-0.332,0.654-0.651,1.266-0.963l1.961-0.995l7.369,15.219c0.17,0.339,0.202,0.74,0.101,1.193
		c-0.101,0.461-0.271,0.752-0.514,0.877l-5.16,2.609l-0.906-1.869c-0.315-0.651-0.412-1.242-0.291-1.768
		c0.126-0.529,0.283-0.942,0.485-1.237c0.291-0.34,0.315-0.756,0.073-1.254l-1.877-3.874
		C333.348,107.438,333.211,107.329,333.013,107.276"/>
</g>
</svg>
