<?xml version="1.0" encoding="utf-8"?>
<!-- Generator: Adobe Illustrator 16.2.1, SVG Export Plug-In . SVG Version: 6.00 Build 0)  -->
<!DOCTYPE svg PUBLIC "-//W3C//DTD SVG 1.1//EN" "http://www.w3.org/Graphics/SVG/1.1/DTD/svg11.dtd">
<svg version="1.1" id="Layer_1" xmlns="http://www.w3.org/2000/svg" xmlns:xlink="http://www.w3.org/1999/xlink" x="0px" y="0px"
	 width="219.584px" height="219.573px" viewBox="0 0 219.584 219.573" enable-background="new 0 0 219.584 219.573"
	 xml:space="preserve">
<g>
	<defs>
		<rect id="SVGID_1_" width="219.584" height="219.573"/>
	</defs>
	<clipPath id="SVGID_2_">
		<use xlink:href="#SVGID_1_"  overflow="visible"/>
	</clipPath>
	<path clip-path="url(#SVGID_2_)" fill="#B74C3A" d="M131.217,107.053c0.352-0.536,0.674-1.071,1.035-1.571
		c0.797-1.107,1.164-2.357,1.291-3.688c0.01-0.133,0.006-0.271,0.031-0.403c0.025-0.164,0.096-0.291,0.301-0.25
		c0.234,0.046,0.342-0.056,0.387-0.291c0.123-0.546,0.18-0.582,0.745-0.577c0.694,0,0.694,0,0.704-0.719
		c0-0.51,0.112-0.617,0.807-0.679c0.162,0.786,0.336,1.592,0.479,2.408c0.021,0.112-0.092,0.28-0.173,0.388
		c-0.179,0.224-0.388,0.423-0.581,0.638c-0.389,0.443-0.715,1.02-1.205,1.306c-0.479,0.286-0.77,0.658-1.051,1.097
		c-0.5,0.755-0.959,1.561-1.673,2.147C131.987,107.139,131.656,107.251,131.217,107.053"/>
	<path clip-path="url(#SVGID_2_)" fill="#B74C3A" d="M120.893,105.741c0.244-0.857,0.469-1.709,0.739-2.55
		c0.077-0.25,0.255-0.49,0.438-0.704c0.5-0.607,1.006-1.219,1.541-1.801c0.193-0.224,0.449-0.408,0.703-0.545
		c0.291-0.169,0.475-0.041,0.449,0.306c-0.01,0.189-0.082,0.393-0.188,0.546c-0.235,0.347-0.479,0.684-0.771,0.969
		c-0.847,0.816-1.387,1.821-1.861,2.877c-0.107,0.23-0.215,0.449-0.322,0.668C121.479,105.762,121.279,105.884,120.893,105.741"/>
	<path clip-path="url(#SVGID_2_)" fill="#B74C3A" d="M87.557,100.084c-0.092,0.25-0.297,0.362-0.572,0.403
		c-0.397,0.046-0.806,0.082-1.203,0.173c-0.47,0.107-0.684,0.061-0.949-0.281c-0.204-0.265-0.163-0.541,0.133-0.663
		c0.744-0.296,1.51-0.443,2.295-0.143C87.475,99.661,87.607,99.793,87.557,100.084"/>
	<path clip-path="url(#SVGID_2_)" fill="#B74C3A" d="M97.488,103.206c0.066-0.372,0.225-0.525,0.525-0.521
		c0.307,0,0.571,0.204,0.576,0.531c0.016,0.342,0.006,0.689-0.097,1.01c-0.112,0.342-0.413,0.418-0.796,0.285
		c-0.337-0.107-0.347-0.352-0.296-0.638C97.457,103.65,97.463,103.431,97.488,103.206"/>
	<path clip-path="url(#SVGID_2_)" fill="#B74C3A" d="M94.229,106.874c-0.469,0.285-0.811,0.28-1.122,0.025
		c-0.255-0.214-0.321-0.562-0.138-0.765c0.193-0.219,0.566-0.209,0.78,0.051C93.933,106.384,94.065,106.634,94.229,106.874"/>
	<path clip-path="url(#SVGID_2_)" fill="#B74C3A" d="M99.584,104.313c-0.295-0.071-0.499-0.327-0.448-0.597
		c0.046-0.281,0.397-0.479,0.698-0.403c0.291,0.071,0.496,0.372,0.439,0.653C100.217,104.252,99.941,104.395,99.584,104.313"/>
	<path clip-path="url(#SVGID_2_)" fill="#B74C3A" d="M97.105,107.741c-0.321-0.071-0.566-0.398-0.5-0.653
		c0.062-0.25,0.348-0.393,0.643-0.321c0.326,0.092,0.566,0.424,0.49,0.699C97.688,107.68,97.387,107.808,97.105,107.741"/>
	<path clip-path="url(#SVGID_2_)" fill="#B74C3A" d="M90.709,104.925c0.225-0.046,0.52-0.179,0.652-0.082
		c0.215,0.138,0.307,0.438,0.47,0.709C91.158,105.655,90.831,105.486,90.709,104.925"/>
	<path clip-path="url(#SVGID_2_)" fill="#B74C3A" d="M59.005,112.444c0.118-0.383,0.25-0.775,0.372-1.173
		c0.088-0.286,0.184-0.577,0.25-0.867c0.117-0.464,0.403-0.709,0.878-0.724c1.209-0.021,2.423-0.082,3.638-0.046
		c1.146,0.046,2.3,0.132,3.428,0.296c0.867,0.122,1.693,0.434,2.54,0.627c0.643,0.138,1.312,0.22,1.958,0.327
		c0.082,0.01,0.144,0.026,0.25,0.046c-0.117,1.653-0.229,3.291-0.352,4.984c3.703-2.469,7.642-4.479,11.07-7.335
		c-0.107-0.107-0.235-0.24-0.378-0.352c-1.403-1.056-2.04-2.556-2.184-4.229c-0.122-1.357-0.011-2.729,0.071-4.081
		c0.025-0.475,0.297-0.934,0.434-1.403c0.041-0.127,0.076-0.286,0.036-0.414c-0.204-0.632-0.229-1.28-0.144-1.948
		c0.031-0.184,0.011-0.424-0.081-0.571c-0.562-0.862-0.495-1.771-0.28-2.719c0.127-0.541,0.413-0.933,0.883-1.188
		c0.647-0.373,1.295-0.74,1.963-1.082c1.103-0.556,2.229-1.081,3.332-1.658c1.065-0.561,2.173-0.995,3.355-1.245
		c1.234-0.265,2.439-0.648,3.592-1.173c0.209-0.102,0.418-0.306,0.531-0.505c0.203-0.383,0.346-0.801,0.488-1.214
		c0.144-0.393,0.408-0.592,0.816-0.612c0.389-0.031,0.592,0.163,0.551,0.556c-0.029,0.255-0.081,0.505-0.121,0.785
		c1.051-0.326,1.852-0.959,2.407-1.902c0.03-0.046,0-0.164-0.03-0.235c-0.144-0.25-0.307-0.49-0.449-0.745
		c-0.057-0.082-0.072-0.179-0.123-0.306c-0.051,0-0.168,0.021-0.254-0.021c-0.154-0.071-0.357-0.158-0.43-0.296
		c-0.051-0.102,0.031-0.332,0.123-0.454c0.377-0.505,0.816-0.923,1.494-0.964c0.057,0,0.128-0.087,0.174-0.148
		c0.031-0.041,0.031-0.102,0.057-0.158c0.188-0.556,0.52-0.704,1.051-0.429c0.111,0.062,0.209,0.24,0.214,0.367
		c0.025,0.322-0.005,0.643-0.021,1.082c0.285-0.209,0.551-0.347,0.755-0.541c0.653-0.638,1.296-1.291,1.918-1.954
		c0.179-0.189,0.316-0.209,0.511-0.066c0.061,0.041,0.143,0.071,0.203,0.117c0.49,0.316,0.557,0.612,0.133,1.056
		c-0.541,0.586-1.111,1.117-1.684,1.668c-0.347,0.306-0.673,0.653-1.168,0.734c-0.066,0.005-0.117,0.133-0.158,0.214
		c-0.152,0.316-0.255,0.679-0.453,0.985c-0.342,0.541-0.761,1.041-1.107,1.581c-0.316,0.484-0.734,0.842-1.244,1.071
		c-1.424,0.627-2.837,1.291-4.285,1.842c-0.797,0.311-1.668,0.418-2.51,0.606c-2.112,0.449-2.893,0.76-4.459,1.821
		c0.388,0.092,0.709,0.184,1.031,0.235c0.643,0.123,1.285,0.245,1.938,0.301c0.837,0.077,1.174,0.658,1.424,1.342
		c0.32,0.872,0.801,1.627,1.453,2.3c0.525,0.536,0.449,1.214-0.173,1.653c-0.653,0.459-1.056,1.021-1.103,1.857
		c-0.02,0.438-0.275,0.801-0.662,1.025c-0.439,0.26-0.889,0.515-1.337,0.76c-0.556,0.296-0.856,0.245-1.306-0.209
		c-0.062-0.061-0.123-0.122-0.174-0.193c-0.469-0.628-1.035-0.929-1.852-0.853c-0.704,0.057-1.148-0.443-1.434-1.061
		c-0.225-0.49-0.429-0.99-0.633-1.5c-0.225-0.586,0.429-1.612,1.041-1.581c0.53,0.025,1.061,0.132,1.561,0.265
		c0.389,0.102,0.633,0.408,0.766,0.791c0.061,0.127,0.092,0.271,0.122,0.413c0.153,0.729,0.464,1.383,1,1.913
		c0.052,0.046,0.122,0.087,0.194,0.092c0.265,0.025,0.53,0.041,0.79,0.066c0.291,0.03,0.403-0.117,0.485-0.383
		c0.111-0.357,0.203-0.76,0.423-1.041c0.235-0.306,0.587-0.541,0.923-0.734c0.256-0.138,0.297-0.291,0.194-0.505
		c-0.056-0.122-0.153-0.25-0.255-0.342c-0.674-0.647-1.174-1.418-1.494-2.306c-0.107-0.291-0.281-0.5-0.577-0.592
		c-1.051-0.321-2.097-0.627-3.142-0.954c-0.383-0.123-0.725-0.087-1.088,0.102c-0.611,0.321-1.229,0.653-1.882,0.903
		c-0.643,0.255-0.837,0.765-0.948,1.352c-0.062,0.28-0.025,0.602,0.005,0.897c0.01,0.077,0.147,0.199,0.249,0.214
		c0.199,0.031,0.419,0.01,0.628,0.015c0.321-0.005,0.475,0.168,0.526,0.479c0.106,0.673,0.224,1.342,0.341,2.015
		c0.016,0.097,0.036,0.199,0.021,0.301c-0.097,0.673,0.127,1.229,0.566,1.719c0.367,0.408,0.418,0.842,0.143,1.347
		c-0.285,0.53-0.244,1.107-0.117,1.663c0.215,0.954,0.465,1.893,0.689,2.836c0.081,0.316,0.275,0.536,0.57,0.648
		c0.531,0.204,0.888,0.592,1.153,1.086c0.653,1.214,1.565,2.179,2.815,2.734c0.562,0.25,1.215,0.316,1.811,0.495
		c0.955,0.291,1.842,0.709,2.638,1.311c1.429,1.087,3.071,1.541,4.825,1.755c0.654,0.082,1.307,0.214,1.949,0.367
		c0.215,0.046,0.408,0.184,0.652,0.296c-0.933,0.536-1.836,0.674-2.814,0.408c-0.715-0.188-1.444-0.311-2.281-0.484
		c0.041,0.296,0.025,0.515,0.107,0.684c0.204,0.443,0.439,0.877,0.704,1.28c0.562,0.821,1.153,1.606,1.714,2.418
		c0.342,0.5,0.408,1.01,0.255,1.647c-0.306,1.286-0.296,2.627-0.153,3.938c0.092,0.856,0.286,1.688,0.444,2.535
		c0.163,0.842,0.72,1.464,1.352,1.913c1.679,1.193,3.245,2.565,5.106,3.494c0.117,0.051,0.225,0.102,0.342,0.147
		c0.969,0.424,1.092,0.398,1.785-0.402c0.848-0.99,1.704-1.984,2.234-3.199c0.357-0.827,0.663-1.678,0.902-2.55
		c0.73-2.679,0.684-5.418,0.373-8.137c-0.367-3.26-0.852-6.509-1.244-9.773c-0.23-1.954-0.444-3.928-0.562-5.892
		c-0.122-2.204,0.316-4.346,1.04-6.427c0.113-0.327,0.225-0.653,0.338-1.016c-0.235-0.046-0.471-0.107-0.694-0.143
		c-2.903-0.449-4.561-3.102-4.815-5.101c-0.123-0.903,0.051-1.78,0.244-2.658c0.082-0.377,0.174-0.771,0.275-1.143
		c0.338-1.219,1.234-1.995,2.179-2.724c1.413-1.082,2.995-1.464,4.729-1.03c0.643,0.163,1.285,0.316,1.907,0.545
		c0.734,0.271,1.326,0.781,1.806,1.408c0.484,0.638,0.984,1.26,1.092,2.097c0.041,0.347,0.184,0.673,0.326,0.984
		c0.215,0.49,0.296,0.99,0.174,1.5c-0.225,0.995-0.418,2.004-0.745,2.958c-0.407,1.168-1.347,1.893-2.366,2.5
		c-0.775,0.469-1.582,0.852-2.495,0.964c-0.168,0.021-0.372,0.235-0.459,0.418c-0.729,1.459-1.103,3.015-1.296,4.622
		c-0.352,2.934-2.861,17.798-2.474,20.68c0.438,3.316,3.784-5.356,4.173-2.02c0.225,1.897,0.234,3.8,0.016,5.713
		c-0.322,2.617-1.209,5.02-2.643,7.219c-0.205,0.321-0.414,0.632-0.633,0.969c0.066,0.021,0.158,0.021,0.193,0.077
		c0.664,0.729,1.627,0.791,2.479,1.097c0.974,0.347,1.984,0.623,2.954,0.985c0.5,0.193,0.974,0.285,1.488,0.086
		c0.047-0.02,0.113-0.02,0.164-0.01c0.897,0.153,1.709-0.112,2.484-0.536c1.178-0.627,2.382-1.194,3.688-1.504
		c0.612-0.143,1.234-0.215,1.857-0.327c0.092-0.015,0.203-0.01,0.285-0.051c0.271-0.138,0.48-0.021,0.664,0.153
		c0.244,0.225,0.469,0.199,0.779,0.076c0.562-0.219,1.158-0.393,1.75-0.474c1.388-0.209,2.714-0.607,3.989-1.209
		c0.511-0.245,1.04-0.459,1.562-0.673c0.76-0.327,1.459-0.725,2.102-1.265c0.361-0.301,0.82-0.479,1.219-0.745
		c0.215-0.153,0.429-0.347,0.566-0.571c0.184-0.316,0.28-0.704,0.469-1.036c0.297-0.53,0.337-1.071,0.23-1.647
		c-0.164-0.882-0.322-1.755-0.455-2.643c-0.081-0.459,0-0.561,0.449-0.709c0.072-0.311-0.02-0.556-0.255-0.77
		c-0.138-0.123-0.224-0.281-0.393-0.49c0.296-0.153,0.536-0.291,0.79-0.413c-0.162-0.367-0.301-0.648-0.428-0.949
		c-0.215-0.52-0.087-0.755,0.459-0.847c0.398-0.071,0.398-0.071,0.193-0.423c-0.714-1.296-0.953-2.729-1.111-4.184
		c-0.021-0.224-0.041-0.448-0.051-0.668c-0.025-0.383,0.081-0.505,0.469-0.53c0.541-0.051,0.53-0.051,0.586-0.597
		c0.041-0.47,0.088-0.934,0.139-1.47c-0.322,0.148-0.623,0.25-0.888,0.413c-0.989,0.618-2.062,1.016-3.183,1.306
		c-0.674,0.173-1.316,0.464-1.975,0.699c-0.796,0.291-1.576,0.597-2.372,0.862c-1.306,0.438-2.347,1.245-3.102,2.377
		c-0.827,1.28-1.948,1.745-3.448,1.786c-1.357,0.036-2.244-0.592-3.041-1.505c-0.479-0.546-0.893-1.143-1.336-1.714
		c-0.041-0.051-0.071-0.112-0.092-0.168c-0.337-1.168-0.745-2.326-1-3.515c-0.602-2.882-0.225-5.667,0.965-8.381
		c1.086-2.475,2.779-4.433,4.81-6.142c0.775-0.648,1.511-1.347,2.306-1.979c1.184-0.934,1.76-2.153,1.826-3.643
		c0.041-0.786,0.139-1.566,0.168-2.347c0.021-0.367-0.01-0.734-0.076-1.106c-0.295-1.867-0.225-3.714,0.389-5.52
		c0.076-0.25,0.137-0.5,0.213-0.745c0.092-0.265,0.275-0.403,0.552-0.372c0.296,0.03,0.499,0.194,0.489,0.489
		c-0.016,0.414,0.168,0.781,0.225,1.168c0.082,0.648,0.117,1.326,0.01,1.964c-0.225,1.342-0.25,2.699-0.311,4.04
		c-0.057,1.342-0.046,2.683-0.465,3.989c-0.162,0.52-0.306,1.046-0.469,1.571c-0.184,0.556-0.551,1-1.01,1.352
		c-1.107,0.857-2.234,1.694-3.347,2.545c-0.092,0.066-0.194,0.138-0.321,0.25c0.097,0.031,0.138,0.056,0.168,0.046
		c2.021-0.806,4.02-1.647,5.203-3.673c0.612-1.041,1.031-2.152,1.143-3.367c0.103-1.153,0.245-2.295,0.378-3.433
		c0.081-0.739-0.021-1.454-0.209-2.158c-0.036-0.148-0.036-0.342,0.025-0.474c0.133-0.316,0.397-0.383,0.632-0.143
		c0.302,0.311,0.623,0.418,1.041,0.362c0.348-0.041,0.674,0.092,0.796,0.434c0.266,0.714,0.592,1.418,0.53,2.224
		c-0.051,0.586-0.203,1.173-0.652,1.53c-0.684,0.541-0.857,1.296-1.092,2.051c-0.388,1.25-0.785,2.504-1.255,3.713
		c-0.356,0.908-1,1.627-1.806,2.153c-0.469,0.316-1,0.53-1.51,0.77c-0.995,0.464-1.979,0.944-2.994,1.373
		c-1.072,0.449-1.862,1.26-2.719,2.015c-1.338,1.194-1.816,2.77-2.092,4.453c-0.179,1.123-0.393,2.24-0.245,3.367
		c0.265,1.984,0.663,3.923,1.866,5.591c0.348,0.484,0.735,0.862,1.378,0.938c0.286,0.041,0.551,0.229,0.796,0.383
		c0.209,0.138,0.408,0.147,0.582-0.005c0.229-0.209,0.469-0.418,0.647-0.663c0.565-0.801,1.106-1.617,1.657-2.433
		c0.256-0.383,0.598-0.643,1.01-0.842c0.221-0.112,0.424-0.326,0.552-0.541c0.688-1.143,1.51-2.142,2.683-2.79
		c0.459-0.255,0.98-0.413,1.475-0.597c0.076-0.025,0.189,0.021,0.291,0.036c-0.025,0.123,0,0.295-0.072,0.362
		c-0.188,0.189-0.407,0.347-0.632,0.49c-0.938,0.612-1.679,1.418-2.224,2.479c0.143-0.031,0.254-0.046,0.367-0.072
		c0.975-0.219,1.938-0.515,2.938-0.652c1.587-0.215,3.03-0.745,4.367-1.643c0.949-0.638,1.953-1.199,2.948-1.755
		c0.908-0.516,1.913-0.714,2.918-0.888c0.867-0.148,1.734-0.296,2.423-0.893c1.347-1.174,1.902-2.684,1.597-4.418
		c-0.214-1.138-0.525-2.275-0.974-3.336c-0.75-1.786-1.066-3.643-1.169-5.565c-0.021-0.505-0.092-1.025-0.234-1.515
		c-0.103-0.342-0.286-0.699-0.541-0.944c-0.929-0.882-1.464-2.004-1.929-3.173c-0.326-0.801-0.765-1.495-1.459-2.015
		c-0.254-0.189-0.377-0.413-0.305-0.75c0.07-0.367-0.092-0.673-0.368-0.898c-0.418-0.332-0.856-0.653-1.296-0.964
		c-0.265-0.194-0.5-0.388-0.449-0.791c-0.152-0.005-0.285-0.011-0.407-0.016c-0.163-0.015-0.337,0.01-0.46-0.051
		c-0.239-0.118-0.443-0.296-0.662-0.449c0.147-0.173,0.285-0.367,0.449-0.505c0.203-0.173,0.438-0.311,0.724-0.5
		c-0.356-0.076-0.622-0.168-0.888-0.173c-0.994-0.005-1.846-0.373-2.438-1.148c-1.031-1.331-2.348-2.183-3.888-2.77
		c-1.255-0.479-2.459-1.102-3.663-1.709c-1.336-0.679-2.754-1.123-4.203-1.5c-1.602-0.418-3.213-0.826-4.805-1.26
		c-1.266-0.347-2.561-0.327-3.847-0.306c-0.959,0.015-1.903-0.071-2.826-0.332c-0.179-0.046-0.362-0.107-0.521-0.199
		c-0.367-0.173-0.725-0.255-1.102-0.015c-0.061,0.031-0.152,0.031-0.225,0.036c-0.469,0.016-0.938,0.031-1.408,0.066
		c-0.254,0.021-0.51,0.051-0.754,0.102c-0.174,0.046-0.348,0.143-0.496,0.265c0.919,0.097,1.842-0.495,2.72,0.036
		c0.011,0.056,0.03,0.107,0.04,0.158c-0.193,0.123-0.377,0.311-0.581,0.347c-1.347,0.275-2.448,1.02-3.52,1.836
		c-1.046,0.801-2.102,1.576-3.152,2.367c-0.644,0.479-1.225,1.041-1.663,1.729c-0.301,0.464-0.715,0.78-1.219,1
		c-0.525,0.229-0.995,0.53-1.353,1.005c-0.214,0.291-0.53,0.418-0.888,0.347c-0.285-0.062-0.383,0.097-0.469,0.311
		c-0.389,0.959-0.531,1.964-0.623,2.984c-0.061,0.663-0.244,0.974-0.877,1.306c-0.352-0.944-0.255-1.908-0.097-2.872
		c0.194-1.174,0.484-2.316,1.147-3.342c0.107-0.163-0.021-0.469,0-0.709c0.01-0.332-0.215-0.397-0.53-0.438
		c0.255-0.229,0.464-0.423,0.679-0.607c2.076-1.816,4.219-3.535,6.605-4.928c1.285-0.745,2.633-1.373,4.035-1.867
		c0.566-0.194,1.102-0.469,1.658-0.699c0.173-0.077,0.336-0.127,0.52,0.021c0.103,0.086,0.297,0.082,0.449,0.086
		c0.715-0.015,1.428-0.046,2.147-0.031c0.331,0.005,0.658,0.118,0.985,0.168c1.234,0.199,2.458,0.429,3.692,0.592
		c2.938,0.377,5.847,0.882,8.632,1.877c1.765,0.622,3.483,1.397,5.218,2.106c1.036,0.424,2.066,0.827,3.087,1.275
		c0.673,0.296,1.336,0.612,1.959,0.99c0.448,0.281,0.82,0.709,1.265,1.015c0.745,0.515,1.347,1.138,1.938,1.826
		c0.744,0.872,1.662,1.586,2.5,2.382c0.173,0.163,0.346,0.367,0.448,0.592c0.847,1.699,1.663,3.402,2.495,5.111
		c0.045,0.102,0.106,0.209,0.117,0.306c0.061,1.041,0.713,1.643,1.488,2.158c0.225,0.143,0.46,0.27,0.664,0.438
		c0.408,0.352,0.611,0.801,0.525,1.342c-0.322,1.995,0.057,3.943,0.428,5.881c0.057,0.281,0.169,0.566,0.332,0.796
		c0.975,1.362,1.133,2.887,0.99,4.51c-0.133,1.464-0.551,2.82-1.398,4.04c-0.586,0.852-1.347,1.347-2.387,1.438
		c-1.22,0.102-2.408,0.362-3.566,0.775c-0.556,0.188-0.887,0.51-0.964,1.143c-0.051,0.464-0.255,0.903-0.356,1.356
		c-0.256,1.128-0.133,2.219,0.356,3.271c0.015,0.035,0.036,0.076,0.056,0.117c0.475,0.847-0.035,1.138-0.688,1.102
		c-0.103-0.005-0.199,0.016-0.373,0.031c0.087,0.296,0.117,0.577,0.234,0.811c0.332,0.582,0.679,1.158,1.066,1.688
		c0.219,0.301,0.541,0.551,0.842,0.786c0.204,0.153,0.449,0.321,0.362,0.566c-0.062,0.194-0.306,0.413-0.5,0.454
		c-0.331,0.082-0.704,0.036-1.051,0.046c-0.118,0-0.235,0.01-0.397,0.025c0.224,0.781,1.162,0.873,1.396,1.679
		c-0.184,0.021-0.346,0.021-0.5,0.03c-0.377,0.031-0.765,0.036-1.132,0.103c-0.234,0.041-0.356,0.224-0.296,0.515
		c0.041,0.179,0.01,0.378,0.006,0.562c-0.057,1.556,0.474,2.933,1.188,4.274c0.041,0.062,0.077,0.133,0.123,0.189
		c0.275,0.336,0.296,0.663,0.051,1.036c-0.163,0.28-0.102,0.51,0.184,0.714c1.336,0.938,2.332,2.193,3.244,3.612
		c-0.592-0.051-1.184-0.102-1.811-0.158c0.362,0.617,1.219,0.638,1.51,1.306c-0.413,0.617-0.622,0.684-1.266,0.388
		c-0.244-0.103-0.489-0.194-0.739-0.286c-0.021,0.036-0.051,0.066-0.071,0.107c0.117,0.112,0.215,0.229,0.337,0.321
		c1.367,1.061,2.337,2.413,3.01,4.004c0.087,0.22,0.163,0.414-0.03,0.623c-0.041,0.041-0.031,0.163-0.011,0.229
		c0.056,0.239,0.133,0.474,0.184,0.709c0.071,0.326,0.103,0.658,0.194,0.984c0.377,1.312,0.306,2.602-0.174,3.888
		c-0.174,0.448-0.193,0.887-0.127,1.341c0.07,0.592,0.158,1.179-0.057,1.76c-0.021,0.052-0.021,0.118-0.01,0.169
		c0.184,0.734-0.041,1.408-0.275,2.086c-0.123,0.357-0.144,0.745-0.164,1.127c-0.02,0.562,1.602,3.663,1.061,3.826
		c-0.213,0.072-3.458,1.347-3.458,1.347s1.163-1.26,0.989-6.427c-0.056-1.684-0.443-3.285-1.203-4.801
		c-0.148-0.306-0.256-0.643-0.332-0.975c-0.03-0.152,0.016-0.418,0.117-0.479c0.117-0.087,0.367-0.066,0.516,0.01
		c0.402,0.184,0.674,0.53,0.861,0.928c0.164,0.353,0.348,0.699,0.521,1.041c0.041-0.01,0.07-0.025,0.122-0.041
		c-0.103-0.372-0.163-0.765-0.306-1.117c-0.551-1.459-1.357-2.779-2.143-4.111c-0.353-0.571-0.633-1.173-0.929-1.78
		c-0.163-0.312-0.204-0.627-0.052-0.974c0.266-0.061,0.449,0.056,0.603,0.25c1.011,1.311,1.97,2.668,2.734,4.142
		c0.087,0.169,0.158,0.347,0.275,0.617c0.056-0.163,0.122-0.26,0.106-0.352c-0.056-0.49-0.106-0.985-0.219-1.459
		c-0.326-1.357-0.847-2.647-1.602-3.836c-0.092-0.127-0.148-0.245-0.041-0.423c0.066-0.087,0.046-0.296-0.01-0.388
		c-0.541-0.821-1.072-1.647-1.653-2.438c-0.347-0.464-0.581-0.403-0.826,0.123c-0.03,0.061-0.122,0.127-0.184,0.143
		c-1.158,0.117-2.112,0.699-3.051,1.326c-0.724,0.479-1.469,0.934-2.152,1.454c-0.362,0.28-0.612,0.693-0.929,1.045
		c-0.086,0.102-0.184,0.255-0.296,0.27c-0.362,0.077-0.632,0.286-0.897,0.521c-0.348,0.307-0.734,0.438-1.199,0.326
		c-0.342-0.081-0.617,0.062-0.908,0.281c-0.545,0.388-1.132,0.734-1.734,1.03c-0.668,0.326-1.371,0.571-2.065,0.842
		c-0.592,0.239-1.163,0.505-1.479,1.112c-0.031,0.056-0.071,0.097-0.117,0.117c-1.025,0.556-2.041,1.147-3.27,1.076
		c-0.066-0.006-0.143,0-0.194-0.016c-0.815-0.296-1.581-0.076-2.366,0.143c-1.674,0.47-3.362,0.434-5.071,0.307
		c-2.061-0.158-4.009-0.766-5.907-1.551c-1.045-0.434-2.092-0.857-3.143-1.296c-0.193,0.938-0.438,1.877-0.592,2.841
		c-0.326,2.046-0.371,4.117-0.275,6.188c0.011,0.163-0.03,0.367-0.127,0.484c-0.076,0.092-0.311,0.143-0.413,0.087
		c-0.133-0.066-0.275-0.255-0.28-0.393c-0.066-1.179-0.139-2.367-0.128-3.546c0.021-1.902,0.296-3.774,0.663-5.626
		c0.138-0.679,0.133-0.674-0.505-0.893c-0.225-0.082-0.444-0.169-0.644-0.275c-0.984-0.547-1.963-1.098-2.943-1.638
		c-0.352-0.184-0.555-0.449-0.643-0.837c-0.02-0.117-0.076-0.229-0.117-0.347c-0.397,0.377-0.449,0.397-0.856,0.036
		c-1.143-1-2.28-2-3.403-3.025c-0.342-0.312-0.632-0.679-0.953-1.03c-0.557,0.393-3.254,4.188-3.545,4.999
		c0.193-0.016,0.397-0.057,0.602-0.036c0.383,0.041,0.566,0.316,0.459,0.684c-0.087,0.255-0.215,0.495-0.367,0.714
		c-0.439,0.653-0.888,1.307-1.092,2.102c-0.168,0.633-0.168,1.893,0.041,2.49c0.188-0.25,0.347-0.5,0.541-0.729
		c0.173-0.188,0.361-0.368,0.57-0.516c0.256-0.194,0.541-0.255,0.822-0.03c0.275,0.219,0.361,0.535,0.25,0.908
		c-0.143,0.469-0.297,0.938-0.408,1.412c-0.057,0.256-0.066,0.541-0.036,0.801c0.025,0.133,0.204,0.25,0.312,0.373
		c0.092-0.082,0.214-0.153,0.275-0.26c0.204-0.357,0.367-0.74,0.582-1.098c0.143-0.229,0.326-0.448,0.525-0.637
		c0.213-0.194,0.484-0.297,0.77-0.153c0.285,0.132,0.469,0.377,0.469,0.704c-0.01,0.413-0.01,0.836-0.092,1.239
		c-0.203,1.204-0.035,2.362,0.256,3.52c0.117,0.454,0.174,0.924,0.332,1.357c0.178,0.489-0.057,0.831-0.322,1.224
		c-0.203-0.316-0.397-0.602-0.611-0.908c-0.031,0.617-0.052,1.194-0.098,1.766c-0.02,0.204-0.086,0.424-0.199,0.587
		c-0.684,0.984,0.648,0.79-0.045,1.765c-0.057-0.016-1.598-0.766-1.639-0.78c0.052-0.28,0.363-1.092,0,0
		c0.838-2.051,0.48-2.989-0.418-4.999c-0.163-0.357-0.387-0.725-0.673-0.979c-1.209-1.051-2.021-2.383-2.673-3.826
		c-0.066-0.153-0.153-0.301-0.266-0.479c-0.668,0.693-1.152,1.443-1.571,2.25c-0.632,1.214-0.959,2.489-0.918,3.877
		c0.021,0.459-0.133,0.928-0.204,1.393c-0.041,0.29-0.082,0.571-0.127,0.877c-0.557-0.306-0.984-0.627-1.006-1.377
		c-0.025-1.796,0.234-3.52,1.025-5.152c0.066-0.128,0.179-0.286-0.041-0.393c-0.418-0.189-0.423-0.521-0.356-0.924
		c0.271-1.698,0.923-3.249,1.771-4.713c0.408-0.709,0.842-1.373,1.499-1.862c0.122-0.092,0.204-0.24,0.286-0.377
		c0.5-0.801,0.979-1.643,1.5-2.443c0.438-0.643,0.918-1.265,1.393-1.887c0.698-0.934,1.132-1.995,1.474-3.102
		c0.612-1.908,1.286-3.795,2.26-5.55c0.444-0.801,1.077-1.5,1.617-2.25c0.081-0.107,0.153-0.25,0.184-0.373
		c0.163-1.123,0.327-2.239,0.47-3.351c0.02-0.123-0.021-0.276-0.087-0.378c-0.225-0.397-0.475-0.78-0.71-1.173
		c-0.143-0.229-0.254-0.465-0.137-0.755c0.035-0.077-0.021-0.194-0.066-0.27c-0.143-0.194-0.307-0.383-0.459-0.571
		c-0.194-0.225-0.307-0.449-0.337-0.786c-0.046-0.581-0.302-1.127-0.837-1.448c-0.76-0.454-1.53-0.893-2.279-1.326
		c-1.414,1.168-5.291,0.77-7.066-1.332c-0.184,0.169-0.377,0.342-0.555,0.525c-1.75,1.72-3.469,3.464-5.25,5.143
		c-2.127,2.01-4.494,3.724-6.836,5.463c-0.244,0.174-0.551,0.312-0.602,0.679c-0.01,0.056-0.127,0.112-0.203,0.158
		c-1.367,0.76-2.704,1.597-4.123,2.239c-0.877,0.398-1.836,0.684-2.846,0.638c-1.102-0.041-2.225-0.036-3.184-0.607
		c-2.091-1.234-3.387-3.045-3.458-5.575c-0.021-0.984,0.081-1.964,0.132-2.943c0.011-0.117,0.011-0.245,0.016-0.352
		C58.535,114.688,58.771,113.571,59.005,112.444 M115.297,137.185c0-0.035,0-0.066,0.01-0.102c0.464-0.199,0.943-0.362,1.459-0.235
		c0.57,0.143,1.111,0.086,1.673-0.082c0.25-0.077,0.5-0.163,0.765-0.225c0.164-0.041,0.357-0.087,0.511-0.036
		c0.397,0.127,0.765,0.056,1.138-0.051c0.388-0.106,0.77-0.199,1.158-0.301c0.479-0.117,0.633-0.046,0.795,0.438
		c0.275,0.796,0.297,1.612,0.148,2.423c-0.117,0.648-0.311,1.275-0.465,1.924c-0.102,0.459,0.041,0.617,0.506,0.516
		c0.836-0.189,1.423-0.75,1.714-1.521c0.429-1.179,0.668-2.397,0.72-3.647c0.051-1.102,0.029-2.178-0.919-2.974
		c-0.296-0.25-0.581-0.357-0.97-0.235c-1.102,0.378-2.203,0.735-3.305,1.102c-0.112,0.036-0.215,0.123-0.348,0.199
		c0.291,0.255,0.572,0.23,0.848,0.174c0.703-0.117,0.877-0.021,1.198,0.719c-1.581,0.525-3.198,0.775-4.846,0.893
		c-1.647,0.118-3.271-0.077-4.882-0.373c-1.638-0.311-3.01-1.295-4.581-1.913c-0.521,1-1.03,1.969-1.556,2.974
		c0.24,0.005,0.383,0,0.516,0.021c0.525,0.046,0.826,0.311,0.897,0.775c0.062,0.388-0.169,0.627-0.541,0.546
		c-0.459-0.103-0.964-0.158-1.01-0.837c-0.021,0.015-0.052,0.021-0.071,0.036c-0.271,0.75-0.536,1.49-0.816,2.25
		c0.215,0.128,0.388,0.255,0.571,0.331c0.622,0.261,1.239,0.536,1.882,0.74c1.281,0.398,2.566,0.76,3.852,1.112
		c2.215,0.592,4.453,0.745,6.724,0.245c0.888-0.194,1.755-0.547,2.698-0.424c0.301,0.035,0.627-0.307,0.679-0.607
		c0.056-0.347-0.153-0.51-0.419-0.638c-0.061-0.025-0.111-0.061-0.173-0.102c-0.316-0.209-0.378-0.464-0.133-0.755
		c0.184-0.22,0.397-0.434,0.644-0.576c0.459-0.25,0.673-0.623,0.765-1.138c0.173-0.959-0.025-1.214-0.959-0.97
		c-1.663,0.424-3.356,0.551-5.061,0.49C115.842,137.343,115.572,137.241,115.297,137.185 M106.19,133.288
		c-0.271-0.092-0.612-0.189-0.933-0.327c-1.23-0.541-2.47-1.097-3.704-1.658c-0.144-0.061-0.265-0.204-0.347-0.342
		c-0.449-0.811-1.066-1.438-1.867-1.882c-0.174-0.102-0.357-0.214-0.465-0.372c-0.652-0.964-1.279-1.949-1.933-2.913
		c-0.117-0.194-0.275-0.362-0.429-0.536c-0.025,0.021-0.041,0.036-0.061,0.056c-0.006-0.097-0.016-0.188-0.031-0.332
		c-0.051,0.061-0.082,0.086-0.112,0.123c-1.01,1.347-1.638,2.867-1.862,4.54c-0.045,0.316-0.127,0.684-0.035,0.964
		c0.347,1.021,0.719,2.046,1.541,2.811c0.592,0.546,1.213,1.056,1.907,1.495c1.847,1.178,3.638,2.428,5.458,3.637
		c0.225,0.158,0.484,0.261,0.73,0.394c0.32-1,0.586-1.975,0.943-2.913C105.35,135.083,105.798,134.175,106.19,133.288
		 M116.674,88.54c0.744-1.918-0.99-4.856-3.255-5.58c-2.866-0.918-5.733,0.795-6.489,3.876c-0.693,2.862,1.174,5.78,4,6.239
		c2.408,0.398,5.279-1.393,5.488-3.464c-0.168-0.025-0.336-0.071-0.51-0.071c-0.611,0.016-1.203,0-1.775-0.265
		c-0.133-0.056-0.397,0.021-0.494,0.138c-0.23,0.265-0.495,0.342-0.801,0.271c-0.664-0.158-1.332-0.332-1.984-0.51
		c-0.332-0.102-0.628-0.163-0.965-0.01c-0.342,0.158-0.652,0.031-0.918-0.209c-0.184-0.148-0.204-0.357-0.041-0.556
		c0.062-0.071,0.128-0.153,0.204-0.225c-0.204-0.26-0.388-0.505-0.581-0.76c0.056-0.051,0.082-0.092,0.111-0.112
		c0.082-0.062,0.169-0.123,0.256-0.168c0.791-0.474,1.443-1.041,1.397-2.102c0-0.107,0.184-0.265,0.306-0.316
		c0.378-0.127,0.766-0.219,1.133-0.311c0.143-0.046,0.296-0.133,0.408-0.107c0.663,0.158,1.266,0.393,1.582,1.082
		c0.224,0.485,0.479,0.954,0.749,1.418C115,87.647,115.766,88.163,116.674,88.54 M125.723,139.521
		c0.449-0.199,0.848-0.378,1.229-0.566c1.312-0.623,2.628-1.229,3.929-1.882c0.856-0.429,1.096-1.173,0.76-2.066
		c-0.082-0.25-0.072-0.551-0.062-0.832c0.021-0.24,0.103-0.469,0.158-0.755c-0.306,0.128-0.546,0.245-0.791,0.332
		c-1.458,0.566-2.917,1.127-4.376,1.704c-0.107,0.041-0.256,0.178-0.261,0.265C126.284,136.991,126.08,138.24,125.723,139.521
		 M134.456,134.741c1.224-0.617,2.423-1.209,3.597-1.826c0.535-0.275,0.912-0.739,1.158-1.285c0.346-0.734,0.331-1.536,0.387-2.311
		c0.011-0.127-0.122-0.255-0.214-0.434c-1.755,1.056-3.469,2.086-5.116,3.081C134.328,132.915,134.395,133.788,134.456,134.741
		 M60.602,111.694c-0.061,0.245-0.122,0.464-0.184,0.694c-0.535,2.056-0.857,4.137-0.693,6.269c0.082,1.051,0.428,2.005,0.975,2.882
		c0.137,0.23,0.371,0.423,0.627,0.276c0.27-0.133,0.152-0.403,0.092-0.658c-0.133-0.47-0.281-0.944-0.316-1.423
		c-0.097-1.566,0.057-3.107,0.348-4.642c0.193-1.03,0.423-2.051,0.643-3.081C61.541,111.894,61.081,111.791,60.602,111.694
		 M133.207,134.706c0.423-0.312,0.565-0.603,0.545-1.057c-0.041-0.688-0.428-1.229-0.633-1.852
		c-0.097-0.306-0.254-0.342-0.545-0.229c-1.23,0.505-2.475,0.984-3.709,1.464c-0.807,0.322-1.611,0.638-2.412,0.949
		c-0.235,0.087-0.291,0.234-0.235,0.464c0.066,0.266,0.245,0.128,0.372,0.107c0.286-0.036,0.572-0.077,0.848-0.163
		c1.561-0.464,3.157-0.883,4.396-2.071c0.49-0.459,0.837-0.367,1.031,0.301c0.111,0.418,0.121,0.862,0.188,1.286
		C133.089,134.145,133.15,134.395,133.207,134.706 M98.533,77.073c1.908-1.643,3.801-3.28,5.684-4.897
		c0.03,0.005,0.01-0.005-0.01-0.005c-0.082,0.041-0.169,0.066-0.246,0.102c-0.779,0.398-1.57,0.75-2.438,0.934
		c-0.612,0.123-1.174,0.398-1.663,0.827c0.239,0.332,0.056,0.551-0.188,0.77c-0.495,0.434-0.965,0.877-1.475,1.342
		C98.452,76.415,98.932,76.593,98.533,77.073 M82.072,99.533c-0.076,0.367-0.193,0.658-0.193,0.954
		c-0.016,1.163-0.031,2.326,0.02,3.489c0.047,0.984,0.455,1.847,1.139,2.678c0-0.423-0.021-0.755,0-1.081
		c0.04-1.051,0.02-2.087-0.215-3.127c-0.174-0.729-0.332-1.525,0.133-2.26C82.67,99.967,82.395,99.773,82.072,99.533 M90.57,111.057
		c-0.515-0.199-0.994-0.326-1.433-0.556c-0.684-0.362-1.337-0.775-1.979-1.199c-0.321-0.199-0.541-0.168-0.744,0.168
		c0.637,0.689,1.331,1.316,2.208,1.688C89.26,111.444,89.897,111.46,90.57,111.057 M85.934,143.943
		c0.041,0.016,0.082,0.031,0.123,0.047c0.393-0.403,0.78-0.816,1.184-1.204c0.316-0.291,0.464-0.603,0.438-1.03
		c-0.021-0.531,0.005-1.062,0.011-1.607c-0.041,0-0.072-0.01-0.113-0.021C86.867,141.332,86.256,142.576,85.934,143.943
		 M111.398,86.74c-0.306,0.316-0.637,0.638-1.004,1.005c0.475,0.173,0.897,0.332,1.301,0.479
		C111.593,87.724,111.496,87.239,111.398,86.74 M113.444,86.586c-0.643-0.418-0.643-0.408-1.005,0.092
		c-0.148,0.199-0.076,0.332,0.082,0.444c0.229,0.168,0.602,0.062,0.744-0.199C113.316,86.821,113.379,86.714,113.444,86.586
		 M132.309,88.239c0.025,0.025,0.046,0.051,0.066,0.077c0.071-0.061,0.174-0.102,0.204-0.168c0.184-0.515,0.071-1.082-0.25-1.352
		C132.324,87.291,132.313,87.765,132.309,88.239"/>
	<path clip-path="url(#SVGID_2_)" fill="#B74C3A" d="M137.558,148.407c-0.525,0.291-0.72,0.204-0.929-0.443
		c-0.484-1.475-0.953-2.954-1.428-4.428c-0.021-0.066-0.051-0.138-0.087-0.229c-0.479,0.806-0.954,1.586-1.413,2.371
		c-0.275,0.49-0.531,0.985-0.796,1.47c-0.143,0.245-0.271,0.489-0.454,0.704c-0.27,0.326-0.678,0.393-0.975,0.199
		c-0.28-0.184-0.342-0.516-0.173-0.939c0.418-0.953,0.856-1.897,1.255-2.856c0.326-0.78,0.602-1.586,0.908-2.377
		c0.01-0.03,0-0.066,0.02-0.103c0.644-0.918,0.644-2.076,1.139-3.055c0.239-0.47,0.515-0.914,0.77-1.367
		c0.072-0.112,0.164-0.215,0.215-0.337c0.184-0.393,0.51-0.495,0.856-0.24c0.515,0.382,0.552,0.505,0.367,1.127
		c-0.26,0.943-0.521,1.872-0.774,2.811c-0.031,0.133-0.031,0.271-0.011,0.393c0.194,1.168,0.347,2.342,0.587,3.5
		C136.904,145.883,137.246,147.137,137.558,148.407"/>
	<path clip-path="url(#SVGID_2_)" fill="#B74C3A" d="M133.563,116.902c0-0.678,0.025-1.321-0.28-1.933
		c-0.113-0.23-0.158-0.526-0.128-0.781c0.041-0.336,0.188-0.668,0.321-1.082c0.592,0.668,1.112,1.229,1.133,2.097
		c0.01,0.372,0.184,0.745,0.275,1.122c0.03,0.148,0.082,0.316,0.057,0.454c-0.414,2.326-0.342,4.652,0.056,6.973
		c0,0.036,0.01,0.077,0.01,0.123c-0.337,0.082-0.47-0.036-0.499-0.403c-0.066-0.979-0.133-1.964-0.194-2.938
		c-0.016-0.092-0.03-0.173-0.041-0.26c-0.036-0.005-0.071-0.01-0.112-0.021c-0.133,0.531-0.266,1.066-0.393,1.602
		c-0.016,0.041,0.016,0.127,0.046,0.148c0.306,0.173,0.224,0.438,0.173,0.704c-0.061,0.352-0.158,0.714-0.147,1.061
		c0.011,0.347,0.106,0.709,0.225,1.025c0.106,0.281,0.153,0.5-0.107,0.684c-0.214,0.158-0.429,0.087-0.622-0.209
		c-0.072-0.102-0.148-0.199-0.184-0.25c-0.123,0.112-0.296,0.26-0.429,0.418c-0.092,0.117-0.153,0.27-0.214,0.403
		c-0.092,0.25-0.168,0.521-0.5,0.484c-0.332-0.025-0.388-0.275-0.459-0.53c-0.245-1.01-0.031-1.979,0.397-2.872
		c0.347-0.739,0.515-1.479,0.53-2.275c0.006-0.204,0.021-0.377,0.245-0.495c0.103-0.051,0.169-0.24,0.179-0.378
		c0.076-0.765,0.158-1.53,0.188-2.3C133.1,117.117,133.242,116.964,133.563,116.902"/>
	<path clip-path="url(#SVGID_2_)" fill="#B74C3A" d="M137.532,142.342c0.271,0.209,0.576,0.353,0.76,0.607
		c0.552,0.755,0.694,1.647,0.638,2.57c-0.005,0.082-0.148,0.215-0.244,0.225c-0.271,0.047-0.455-0.122-0.577-0.356
		c-0.356-0.739-0.734-1.47-1.071-2.22c-0.076-0.173-0.071-0.434,0-0.602C137.099,142.454,137.333,142.424,137.532,142.342"/>
	<path clip-path="url(#SVGID_2_)" fill="#B74C3A" d="M114.5,139.062c0.275,0.173,0.587,0.198,0.643,0.545
		c0.047,0.25-0.209,0.582-0.54,0.699c-0.419,0.163-0.827,0.133-1.188-0.147c-0.332-0.261-0.332-0.653,0.057-0.837
		C113.786,139.174,114.153,139.144,114.5,139.062"/>
	<path clip-path="url(#SVGID_2_)" fill="#B74C3A" d="M113.18,136.848c0.342,0,0.637,0.01,0.974,0.01
		C113.842,137.21,113.684,137.21,113.18,136.848"/>
	<path clip-path="url(#SVGID_2_)" fill="#B74C3A" d="M114.531,136.976c0.133,0.031,0.28,0.056,0.424,0.087
		c0.004,0.021,0.004,0.051,0.01,0.071c-0.107,0.041-0.209,0.112-0.301,0.097c-0.072-0.01-0.133-0.132-0.194-0.193
		C114.49,137.017,114.511,136.996,114.531,136.976"/>
	<path clip-path="url(#SVGID_2_)" fill="#B74C3A" d="M99.36,133.859c0.378,0.138,0.714,0.398,0.907,0.827
		c0.113,0.234,0.047,0.418-0.213,0.495c-0.588,0.184-1.261-0.301-1.271-0.918C98.779,133.945,98.993,133.767,99.36,133.859"/>
	<path clip-path="url(#SVGID_2_)" fill="#B74C3A" d="M128.059,137.69c-0.127,0.627-0.684,0.954-1.244,0.73
		c-0.307-0.128-0.402-0.327-0.275-0.633c0.184-0.459,0.551-0.729,1.025-0.812C127.957,136.915,128.156,137.21,128.059,137.69"/>
	<path clip-path="url(#SVGID_2_)" fill="#B74C3A" d="M145.648,155.375c-0.449-0.04-0.826-0.382-0.914-0.836l-1.111-6.146
		c-0.107-0.562,0.27-1.087,0.821-1.194c0.556-0.092,1.091,0.271,1.193,0.821l1.106,6.146c0.098,0.566-0.265,1.092-0.82,1.199
		C145.832,155.381,145.74,155.381,145.648,155.375"/>
	<path clip-path="url(#SVGID_2_)" fill="#B74C3A" d="M23.067,78.797l-1.429,5.565l1.592,0.408c0.679,0.133,1.271,0.025,1.766-0.311
		c0.122-0.082,0.234-0.127,0.347-0.153c0.103-0.021,0.275-0.011,0.521,0.051l6.651,1.699c0.144,0.036,0.261,0.107,0.347,0.199
		c0.092,0.092,0.123,0.214,0.082,0.362l-0.755,2.958c-0.026,0.107-0.087,0.194-0.194,0.271c-0.111,0.082-0.266,0.097-0.459,0.046
		l-6.759-1.719c-0.188-0.066-0.312-0.138-0.393-0.219c-0.066-0.066-0.144-0.153-0.214-0.26c-0.113-0.265-0.302-0.5-0.572-0.699
		c-0.266-0.214-0.53-0.352-0.826-0.423l-0.03-0.01l-1.515-0.382l-0.036-0.005l-1.419,5.54l1.582,0.398
		c0.704,0.163,1.296,0.056,1.766-0.306c0.127-0.082,0.244-0.133,0.346-0.153c0.113-0.025,0.286-0.005,0.521,0.046l19.027,4.851
		c0.219,0.057,0.367,0.118,0.448,0.199c0.092,0.071,0.163,0.168,0.229,0.301c0.107,0.194,0.271,0.398,0.494,0.633
		c0.225,0.225,0.541,0.388,0.939,0.495l1.551,0.393l1.418-5.545l-1.551-0.393c-0.408-0.107-0.766-0.112-1.061-0.015
		c-0.312,0.087-0.562,0.199-0.745,0.321c-0.112,0.056-0.229,0.097-0.337,0.133c-0.112,0.041-0.275,0.03-0.49-0.031l-7.84-1.99
		c-0.148-0.035-0.25-0.117-0.321-0.229c-0.077-0.122-0.103-0.234-0.062-0.352l0.745-2.938c0.076-0.296,0.28-0.408,0.612-0.321
		l7.912,2.02c0.198,0.041,0.32,0.102,0.402,0.184c0.066,0.066,0.143,0.158,0.204,0.286c0.103,0.204,0.271,0.413,0.489,0.638
		c0.225,0.229,0.541,0.398,0.949,0.495l1.551,0.398l1.418-5.581l-1.545-0.393c-0.414-0.102-0.761-0.112-1.066-0.025
		c-0.307,0.077-0.541,0.184-0.734,0.306c-0.117,0.077-0.234,0.133-0.348,0.168c-0.102,0.031-0.285,0.021-0.53-0.041l-19.13-4.876
		l-0.106-0.025c-0.138-0.056-0.235-0.127-0.29-0.204c-0.052-0.072-0.113-0.168-0.164-0.265c-0.316-0.571-0.785-0.934-1.408-1.087
		l-0.03-0.01L23.067,78.797z M29.566,64.682l0.714,0.393c0.419,0.219,0.796,0.347,1.144,0.377c0.356,0.031,0.621,0,0.815-0.087
		c0.133-0.041,0.275-0.056,0.429-0.056c0.158,0,0.336,0.051,0.53,0.163l16.007,8.764c0.807,0.438,1.307,0.928,1.475,1.459
		c0.179,0.525,0.133,1.036-0.137,1.525c-0.276,0.51-0.684,0.832-1.215,0.979c-0.53,0.148-1.203-0.015-2.03-0.464l-16.054-8.784
		c-0.184-0.128-0.301-0.24-0.367-0.332c-0.066-0.082-0.117-0.199-0.158-0.311c-0.061-0.214-0.193-0.484-0.428-0.78
		c-0.225-0.301-0.525-0.556-0.898-0.755l-0.744-0.408l-2.725,4.958l0.918,0.505c0.408,0.229,0.781,0.332,1.103,0.326
		c0.337-0.01,0.592-0.061,0.786-0.138c0.102-0.041,0.224-0.061,0.341-0.066c0.128,0,0.291,0.062,0.485,0.164l16.537,9.054
		c0.826,0.454,1.623,0.714,2.383,0.791c0.76,0.082,1.469,0.005,2.106-0.225c0.643-0.219,1.234-0.576,1.755-1.066
		c0.521-0.489,0.959-1.071,1.332-1.739c0.361-0.673,0.606-1.342,0.729-2.03c0.123-0.688,0.092-1.352-0.066-2.01
		c-0.163-0.648-0.484-1.275-0.975-1.857c-0.484-0.576-1.132-1.097-1.958-1.551l-16.569-9.07c-0.184-0.122-0.311-0.234-0.377-0.326
		c-0.061-0.092-0.112-0.204-0.158-0.321c-0.057-0.209-0.204-0.449-0.459-0.709c-0.25-0.255-0.566-0.484-0.934-0.688l-0.755-0.408
		L29.566,64.682z M35.738,54.633l1.23,1.021c0.657,0.551,1.238,0.755,1.724,0.592c0.312-0.087,0.606-0.01,0.913,0.24l14.946,12.498
		c0.306,0.255,0.429,0.515,0.356,0.78c-0.029,0.24,0.021,0.5,0.164,0.775c0.138,0.281,0.413,0.597,0.831,0.939l1.138,0.954
		l4.387-5.244c1.138-1.362,1.541-2.699,1.225-4.01c-0.316-1.321-1.184-2.566-2.592-3.734l-12.074-10.1
		c-1.402-1.168-2.779-1.796-4.127-1.877c-1.356-0.082-2.596,0.551-3.734,1.923L35.738,54.633z M57.878,62.285
		c0.224,0.194,0.438,0.393,0.638,0.597c0.199,0.204,0.342,0.418,0.438,0.637c0.097,0.209,0.138,0.439,0.117,0.673
		c-0.021,0.24-0.143,0.485-0.353,0.735l-1.091,1.306c-0.184,0.214-0.413,0.225-0.673-0.005L41.947,53.684
		c-0.117-0.092-0.194-0.204-0.234-0.327c-0.037-0.132-0.011-0.245,0.086-0.357l1.092-1.311c0.204-0.245,0.428-0.413,0.643-0.479
		c0.225-0.076,0.449-0.076,0.674-0.025s0.459,0.168,0.693,0.321c0.244,0.158,0.484,0.342,0.729,0.546L57.878,62.285z M54.501,42.293
		c-0.235-0.286-0.327-0.648-0.266-1.082c0.066-0.429,0.266-0.78,0.597-1.056c0.322-0.26,0.72-0.398,1.189-0.413
		c0.463-0.01,0.856,0.179,1.188,0.592l0.73,0.882c0.372,0.464,0.856,0.775,1.438,0.934c0.587,0.168,1.072,0.087,1.475-0.24
		l1.413-1.148l-2.204-2.708c-0.592-0.724-1.214-1.286-1.867-1.658c-0.652-0.377-1.315-0.597-1.979-0.648
		c-0.663-0.046-1.316,0.046-1.979,0.271c-0.643,0.224-1.265,0.586-1.862,1.061c-0.592,0.484-1.065,1.02-1.423,1.576
		c-0.367,0.571-0.592,1.178-0.673,1.831c-0.072,0.658,0,1.342,0.244,2.056c0.234,0.719,0.664,1.458,1.296,2.224l1.698,2.147
		c0.74,0.908,1.484,1.535,2.24,1.893c0.76,0.362,1.52,0.576,2.275,0.643c0.765,0.062,1.499,0.041,2.224-0.061
		c0.724-0.118,1.418-0.179,2.106-0.209c0.679-0.025,1.326,0.046,1.943,0.24c0.613,0.178,1.179,0.591,1.693,1.219l2.531,3.112
		c0.111,0.138,0.184,0.306,0.219,0.51c0.036,0.214,0.036,0.444-0.005,0.684s-0.133,0.474-0.261,0.704
		c-0.127,0.24-0.301,0.434-0.504,0.612c-0.419,0.336-0.867,0.515-1.367,0.541c-0.5,0.026-0.878-0.122-1.133-0.428l-1.168-1.444
		c-0.357-0.434-0.775-0.724-1.25-0.867c-0.469-0.138-0.924-0.036-1.357,0.316l-1.484,1.209l2.225,2.734
		c0.597,0.734,1.225,1.275,1.902,1.627c0.679,0.362,1.357,0.562,2.041,0.597c0.684,0.036,1.356-0.071,2.02-0.331
		c0.674-0.26,1.296-0.623,1.898-1.107c0.586-0.484,1.081-1.02,1.463-1.627c0.389-0.597,0.633-1.24,0.75-1.923
		c0.113-0.683,0.062-1.387-0.143-2.137c-0.209-0.74-0.607-1.479-1.203-2.204l-2.689-3.311c-0.627-0.765-1.311-1.316-2.055-1.658
		c-0.734-0.332-1.49-0.561-2.271-0.663c-0.771-0.102-1.556-0.123-2.321-0.066c-0.78,0.056-1.51,0.092-2.184,0.118
		c-0.662,0.025-1.275-0.016-1.815-0.097c-0.54-0.086-0.959-0.327-1.275-0.709L54.501,42.293z M82.598,51.016
		c0.49-0.52,0.848-1.107,1.071-1.754c0.225-0.658,0.296-1.362,0.235-2.127c-0.072-0.76-0.327-1.556-0.781-2.382l-8.137-15.176
		c-0.443-0.826-0.959-1.484-1.561-1.964c-0.597-0.479-1.225-0.806-1.887-0.969c-0.664-0.158-1.348-0.184-2.062-0.077
		c-0.704,0.112-1.403,0.352-2.076,0.714c-0.668,0.367-1.239,0.811-1.724,1.326c-0.475,0.536-0.837,1.107-1.062,1.755
		c-0.229,0.643-0.312,1.341-0.239,2.107c0.07,0.76,0.326,1.556,0.775,2.382l8.136,15.181c0.444,0.821,0.975,1.479,1.566,1.959
		s1.229,0.806,1.897,0.984c0.663,0.173,1.347,0.199,2.041,0.082c0.693-0.117,1.377-0.367,2.055-0.724
		C81.521,51.976,82.107,51.537,82.598,51.016 M79.66,45.936c0.469,0.872,0.627,1.566,0.489,2.081
		c-0.153,0.51-0.479,0.908-0.985,1.173c-0.494,0.271-0.984,0.332-1.479,0.209c-0.484-0.138-0.959-0.623-1.413-1.479l-7.724-14.38
		c-0.459-0.852-0.602-1.516-0.428-1.979c0.163-0.469,0.489-0.837,0.984-1.102c0.51-0.28,1.005-0.352,1.494-0.229
		c0.484,0.112,0.954,0.592,1.414,1.454L79.66,45.936z M87.174,20.159l0.393,1.51c0.102,0.408,0.266,0.729,0.494,0.944
		c0.23,0.224,0.439,0.388,0.639,0.495c0.102,0.071,0.193,0.153,0.28,0.235c0.087,0.071,0.158,0.239,0.214,0.474l2.766,10.748
		c0.015,0.077,0.025,0.143,0.025,0.214c-0.006,0.062-0.031,0.056-0.072-0.005c-0.158-0.296-0.459-0.801-0.897-1.515
		s-0.948-1.53-1.521-2.443c-0.576-0.918-1.178-1.862-1.805-2.857c-0.623-0.984-1.205-1.902-1.715-2.734
		c-0.53-0.836-0.969-1.525-1.326-2.076c-0.347-0.545-0.551-0.841-0.571-0.887c-0.306-0.51-0.612-0.801-0.918-0.857
		c-0.321-0.056-0.603-0.062-0.837,0.01l-2.602,0.664l0.418,1.653c0.107,0.413,0.245,0.729,0.408,0.964
		c0.168,0.245,0.342,0.413,0.51,0.525c0.184,0.127,0.389,0.204,0.613,0.225l4.958,19.349c0.051,0.184,0.062,0.326,0.04,0.418
		c-0.01,0.103-0.051,0.214-0.127,0.362c-0.163,0.271-0.281,0.571-0.342,0.893c-0.066,0.327-0.051,0.653,0.031,0.995l0.387,1.51
		l5.54-1.428l-0.388-1.51c-0.102-0.408-0.266-0.719-0.49-0.943c-0.234-0.225-0.448-0.383-0.637-0.49
		c-0.107-0.077-0.204-0.148-0.291-0.235c-0.082-0.076-0.152-0.245-0.215-0.474l-2.57-10.039c-0.031-0.112-0.041-0.168-0.021-0.164
		c0.021,0.005,0.041,0.036,0.056,0.087c0.006,0.021,0.18,0.301,0.521,0.842c0.331,0.536,0.76,1.214,1.27,2.025
		c0.51,0.821,1.066,1.709,1.674,2.658c0.602,0.959,1.168,1.857,1.703,2.709c0.521,0.847,0.979,1.581,1.377,2.193
		c0.389,0.612,0.623,0.984,0.699,1.122c0.215,0.352,0.438,0.653,0.663,0.898c0.225,0.25,0.475,0.336,0.75,0.271l1.745-0.444
		c0.214-0.062,0.352-0.184,0.418-0.357c0.066-0.184,0.056-0.397,0-0.632l-5.684-22.144c-0.061-0.219-0.076-0.377-0.045-0.469
		c0.025-0.097,0.076-0.204,0.127-0.321c0.164-0.276,0.23-0.561,0.193-0.857c-0.04-0.296-0.096-0.612-0.178-0.949l-0.388-1.51
		L87.174,20.159z M121.295,42.405c-0.071-0.117-0.117-0.28-0.143-0.484c-0.316-4.076-0.592-7.733-0.821-10.962
		c-0.097-1.367-0.188-2.729-0.296-4.065c-0.097-1.342-0.193-2.541-0.281-3.606c-0.086-1.066-0.147-1.944-0.203-2.627
		c-0.041-0.688-0.076-1.081-0.087-1.193c-0.062-0.475-0.169-0.837-0.342-1.092c-0.173-0.25-0.459-0.449-0.867-0.587
		c-0.397-0.132-0.948-0.229-1.632-0.28c-0.689-0.056-1.576-0.133-2.664-0.234l-0.132,1.326c-0.041,0.495-0.036,0.867,0.04,1.122
		c0.066,0.26,0.148,0.469,0.246,0.643c0.096,0.168,0.193,0.321,0.27,0.449c0.076,0.138,0.107,0.301,0.098,0.505l-0.021,0.179
		c-0.004,0.021-0.086,0.321-0.239,0.888c-0.158,0.566-0.362,1.311-0.617,2.214c-0.25,0.908-0.536,1.943-0.867,3.086
		c-0.321,1.153-0.643,2.326-0.97,3.51l-2.652,9.585c-0.081,0.225-0.193,0.403-0.342,0.53c-0.147,0.138-0.291,0.271-0.434,0.408
		c-0.133,0.138-0.26,0.301-0.387,0.5c-0.123,0.204-0.205,0.484-0.235,0.857l-0.143,1.474l5.611,0.536l0.128-1.326
		c0.029-0.398,0.02-0.694-0.031-0.903c-0.057-0.204-0.107-0.383-0.163-0.536c-0.056-0.158-0.118-0.301-0.179-0.449
		c-0.057-0.143-0.076-0.337-0.046-0.623c0.087-0.464,0.158-0.882,0.245-1.28c0.066-0.332,0.127-0.668,0.168-0.985
		c0.041-0.321,0.082-0.541,0.112-0.663c0.041-0.214,0.103-0.352,0.194-0.393c0.081-0.041,0.225-0.051,0.402-0.036l2.592,0.25
		l0.24,0.02c0.147,0.011,0.254,0.077,0.305,0.194c0.072,0.122,0.107,0.311,0.123,0.576c0.016,0.26,0.021,0.617,0.021,1.071
		c0,0.434,0.021,1,0.062,1.673c-0.021,0.22-0.076,0.398-0.174,0.526c-0.092,0.123-0.199,0.255-0.307,0.377
		c-0.096,0.133-0.193,0.301-0.29,0.52c-0.097,0.214-0.169,0.531-0.199,0.944l-0.132,1.332l5.703,0.541l0.143-1.479
		c0.041-0.418-0.011-0.77-0.143-1.056c-0.123-0.281-0.266-0.49-0.419-0.638C121.448,42.64,121.367,42.528,121.295,42.405
		 M115.796,34.56l-1.021-0.097c-0.225-0.025-0.361-0.056-0.402-0.117c-0.057-0.051-0.057-0.163-0.016-0.337
		c0-0.066,0.072-0.382,0.193-0.913c0.123-0.53,0.281-1.183,0.46-1.933c0.194-0.745,0.388-1.561,0.591-2.418
		c0.205-0.862,0.398-1.663,0.572-2.387c0.168-0.734,0.306-1.336,0.418-1.806c0.112-0.479,0.164-0.729,0.168-0.75l0.051,0.005
		c0,0.021,0.011,0.194,0.016,0.5c0.016,0.316,0.031,0.719,0.062,1.219c0.021,0.5,0.052,1.061,0.071,1.688
		c0.025,0.627,0.057,1.26,0.098,1.913l0.26,5.162c0.01,0.275-0.117,0.403-0.388,0.377L115.796,34.56z M131.35,19.604l-0.408,1.352
		c-0.152,0.49-0.219,0.893-0.199,1.199c0.01,0.301,0.103,0.551,0.25,0.755c0.066,0.066,0.107,0.143,0.117,0.209
		c0.016,0.066-0.01,0.194-0.061,0.393l-5.801,19.216c-0.066,0.163-0.143,0.265-0.214,0.321c-0.066,0.061-0.153,0.112-0.261,0.158
		c-0.193,0.097-0.418,0.245-0.652,0.459c-0.234,0.209-0.408,0.531-0.535,0.928l-0.459,1.53l5.479,1.648l0.464-1.53
		c0.117-0.408,0.138-0.755,0.062-1.066c-0.082-0.306-0.179-0.551-0.297-0.745c-0.056-0.097-0.102-0.199-0.132-0.316
		c-0.03-0.107-0.011-0.286,0.066-0.525l1.882-6.249c0.092-0.301,0.275-0.418,0.551-0.336l1.398,0.418
		c1.693,0.515,3.096,0.397,4.208-0.362c1.112-0.745,1.934-2.015,2.464-3.78l1.377-4.55c0.174-0.577,0.291-1.209,0.363-1.908
		c0.076-0.704,0.045-1.393-0.066-2.081c-0.123-0.679-0.373-1.285-0.756-1.831c-0.387-0.541-0.948-0.924-1.684-1.143L131.35,19.604z
		 M135.961,31.734c-0.244,0.827-0.576,1.449-0.984,1.867c-0.408,0.428-0.918,0.541-1.53,0.357l-1.245-0.377
		c-0.255-0.071-0.332-0.275-0.234-0.617l2.428-8.029c0.036-0.138,0.113-0.26,0.225-0.367c0.112-0.112,0.25-0.138,0.429-0.092
		l1.153,0.352c0.617,0.184,0.969,0.561,1.081,1.132c0.103,0.586,0.03,1.286-0.214,2.112L135.961,31.734z M148.184,25.301
		l-0.664,1.245c-0.239,0.459-0.382,0.842-0.428,1.138c-0.041,0.296-0.01,0.561,0.107,0.791c0.051,0.081,0.07,0.158,0.07,0.229
		c0,0.066-0.051,0.184-0.143,0.362l-9.411,17.732c-0.097,0.147-0.194,0.239-0.275,0.28c-0.077,0.046-0.173,0.077-0.28,0.102
		c-0.215,0.056-0.449,0.164-0.734,0.327c-0.271,0.163-0.506,0.434-0.699,0.806l-0.75,1.398l5.05,2.693l0.755-1.408
		c0.194-0.378,0.286-0.714,0.266-1.041c-0.021-0.311-0.066-0.576-0.143-0.785c-0.041-0.107-0.062-0.214-0.072-0.327
		c0-0.118,0.052-0.291,0.164-0.505l3.061-5.774c0.152-0.285,0.357-0.357,0.611-0.224l1.286,0.678
		c1.562,0.837,2.969,0.99,4.193,0.469c1.239-0.52,2.296-1.602,3.163-3.234l2.229-4.198c0.275-0.531,0.516-1.122,0.729-1.806
		c0.199-0.674,0.306-1.352,0.327-2.046c0.02-0.688-0.113-1.336-0.383-1.954c-0.271-0.602-0.75-1.086-1.414-1.438L148.184,25.301z
		 M150.356,38.095c-0.403,0.755-0.853,1.316-1.331,1.643c-0.48,0.336-1,0.352-1.566,0.051l-1.148-0.607
		c-0.234-0.127-0.275-0.347-0.106-0.648l3.928-7.412c0.066-0.128,0.169-0.235,0.302-0.322c0.117-0.092,0.265-0.086,0.428-0.005
		l1.071,0.571c0.562,0.301,0.837,0.74,0.837,1.326c-0.011,0.582-0.215,1.26-0.623,2.02L150.356,38.095z M157.498,60.02
		c0.01-0.138,0.087-0.291,0.229-0.459l3.193-3.963c0.581-0.709,1.04-1.398,1.403-2.066c0.352-0.663,0.484-1.306,0.367-1.938
		c-0.047-0.357,0.097-0.561,0.443-0.602c0.592-0.061,1.158-0.291,1.714-0.684c0.562-0.393,1.081-0.898,1.581-1.515l2.148-2.657
		c0.576-0.714,1.004-1.439,1.301-2.168c0.291-0.74,0.438-1.459,0.434-2.158c0-0.699-0.153-1.372-0.444-2.005
		c-0.306-0.643-0.745-1.198-1.337-1.678l-5.07-4.102l-1.01,1.245c-0.307,0.388-0.479,0.74-0.49,1.076
		c-0.02,0.337-0.01,0.602,0.041,0.801c0.051,0.102,0.041,0.204-0.041,0.301c-0.081,0.092-0.173,0.225-0.301,0.377l-12.359,15.293
		c-0.143,0.178-0.275,0.28-0.378,0.316c-0.117,0.036-0.224,0.066-0.337,0.066c-0.219,0.015-0.479,0.077-0.775,0.179
		c-0.306,0.112-0.592,0.332-0.856,0.653l-1,1.245l4.448,3.602l1.01-1.25c0.26-0.327,0.414-0.643,0.459-0.964
		c0.041-0.316,0.051-0.577,0.011-0.796c-0.036-0.127-0.041-0.24-0.021-0.352c0.025-0.107,0.112-0.26,0.266-0.449l4.902-6.065
		c0.219-0.265,0.423-0.316,0.637-0.143l1.01,0.812c0.5,0.393,0.735,0.811,0.694,1.229c-0.021,0.418-0.275,0.908-0.724,1.464
		l-5.184,6.402c-0.336,0.428-0.525,0.877-0.566,1.352c-0.045,0.484,0.148,0.887,0.566,1.224l2.326,1.887l1.266-1.561
		c0.26-0.327,0.418-0.618,0.469-0.883c0.062-0.26,0.051-0.49,0.006-0.694C157.498,60.275,157.488,60.147,157.498,60.02
		 M163.695,46.578c-0.474,0.577-0.907,0.959-1.315,1.148c-0.408,0.199-0.867,0.097-1.362-0.306l-1.229-0.99
		c-0.062-0.051-0.092-0.138-0.113-0.229c-0.005-0.102,0.051-0.234,0.179-0.393l4.591-5.683c0.225-0.265,0.429-0.322,0.617-0.173
		l0.965,0.78c0.402,0.321,0.617,0.755,0.647,1.291c0.03,0.531-0.198,1.097-0.673,1.694L163.695,46.578z M161.421,70.304
		c0.612,0.367,1.255,0.602,1.943,0.684c0.684,0.082,1.393,0.01,2.117-0.214c0.739-0.224,1.459-0.643,2.183-1.25l13.166-11.095
		c0.72-0.607,1.256-1.25,1.598-1.938c0.347-0.684,0.535-1.362,0.561-2.035c0.025-0.684-0.092-1.362-0.357-2.036
		c-0.26-0.668-0.632-1.295-1.121-1.882c-0.49-0.582-1.041-1.056-1.653-1.418s-1.261-0.582-1.929-0.678
		c-0.684-0.092-1.387-0.026-2.121,0.199c-0.725,0.229-1.449,0.643-2.168,1.25l-13.166,11.105c-0.725,0.602-1.256,1.245-1.603,1.928
		s-0.536,1.367-0.571,2.056c-0.031,0.689,0.082,1.367,0.342,2.02c0.271,0.658,0.638,1.275,1.138,1.857
		C160.258,69.447,160.814,69.916,161.421,70.304 M165.787,66.381c-0.755,0.638-1.397,0.934-1.938,0.898
		c-0.531-0.031-0.98-0.275-1.357-0.714c-0.357-0.428-0.521-0.903-0.5-1.403c0.031-0.505,0.408-1.071,1.152-1.693l12.479-10.524
		c0.744-0.622,1.356-0.893,1.855-0.831c0.49,0.071,0.919,0.316,1.275,0.745c0.378,0.444,0.551,0.913,0.531,1.408
		c-0.01,0.495-0.388,1.061-1.127,1.684L165.787,66.381z M192.915,68.942l-1.433,0.709c-0.404,0.199-0.689,0.423-0.867,0.668
		c-0.184,0.25-0.291,0.48-0.332,0.679c-0.031,0.224-0.215,0.423-0.571,0.597l-18.502,6.54l16.491-10.585
		c0.322-0.25,0.582-0.316,0.771-0.209c0.184,0.097,0.428,0.138,0.729,0.143c0.307-0.005,0.653-0.107,1.062-0.301l1.423-0.709
		l-2.494-5.045l-1.424,0.709c-0.371,0.189-0.668,0.418-0.867,0.684c-0.193,0.275-0.301,0.505-0.32,0.699
		c-0.011,0.138-0.041,0.265-0.103,0.373c-0.056,0.112-0.184,0.234-0.388,0.388l-18.904,12.937c-0.307,0.275-0.506,0.479-0.592,0.638
		c-0.082,0.158-0.082,0.336,0.016,0.515l1.602,3.244c0.076,0.173,0.209,0.255,0.402,0.265c0.184,0.011,0.398,0.021,0.643,0.011
		c0.016-0.005,0.348-0.118,0.979-0.312c0.633-0.204,1.47-0.469,2.51-0.796c1.041-0.331,2.214-0.709,3.535-1.143
		c1.312-0.428,2.668-0.867,4.056-1.301c3.234-1.046,6.887-2.224,10.963-3.53c0.198-0.051,0.371-0.072,0.504-0.061
		c0.148,0.01,0.281,0.046,0.389,0.102c0.214,0.087,0.469,0.138,0.779,0.153c0.312,0.021,0.658-0.066,1.036-0.255l1.429-0.704
		L192.915,68.942z M195.374,86.041l0.669,2.489c0.086,0.311,0,0.556-0.261,0.739c-0.188,0.148-0.372,0.383-0.552,0.684
		c-0.173,0.301-0.203,0.668-0.092,1.082l0.327,1.199l4.046-1.086c0.188-0.056,0.361-0.204,0.504-0.474
		c0.153-0.26,0.194-0.5,0.133-0.72l-2.606-9.738l-1.54,0.408c-0.484,0.133-0.826,0.276-1.051,0.454
		c-0.22,0.179-0.373,0.378-0.439,0.587c-0.097,0.321-0.332,0.53-0.719,0.643l-18.818,5.035c-0.168,0.046-0.332,0.051-0.495,0.01
		c-0.163-0.046-0.286-0.107-0.356-0.193c-0.174-0.168-0.419-0.271-0.72-0.307c-0.301-0.03-0.72,0.016-1.239,0.158l-1.439,0.383
		l0.48,1.795l1.684,6.274l0.494,1.852c0.057,0.219,0.193,0.382,0.393,0.484c0.215,0.107,0.449,0.123,0.709,0.051l4.27-1.143
		l-0.275-1.051c-0.133-0.454-0.32-0.796-0.592-1.041c-0.275-0.24-0.684-0.336-1.234-0.291c-0.306,0.015-0.479-0.077-0.53-0.271
		l-0.693-2.602c-0.03-0.102-0.011-0.214,0.062-0.342c0.07-0.123,0.184-0.209,0.352-0.255l7.601-2.036
		c0.331-0.086,0.546,0.005,0.617,0.286l0.929,3.494c0.082,0.301,0.296,0.403,0.622,0.316l2.521-0.673
		c0.184-0.046,0.311-0.143,0.367-0.281c0.051-0.122,0.061-0.245,0.041-0.341l-0.93-3.464c-0.076-0.275,0.052-0.464,0.389-0.551
		l6.773-1.816c0.113-0.031,0.246-0.021,0.373,0.025C195.271,85.867,195.354,85.938,195.374,86.041 M201.363,97.702l-1.592,0.092
		c-0.862,0.046-1.418,0.296-1.663,0.739c-0.158,0.286-0.438,0.434-0.837,0.464l-19.445,1.138c-0.388,0.025-0.663-0.082-0.796-0.327
		c-0.143-0.199-0.353-0.347-0.643-0.459c-0.296-0.102-0.704-0.138-1.25-0.107l-1.484,0.086l0.403,6.82
		c0.107,1.78,0.729,3.025,1.861,3.765c1.123,0.74,2.611,1.061,4.434,0.944l15.711-0.918c1.832-0.107,3.26-0.597,4.306-1.464
		c1.036-0.867,1.505-2.184,1.403-3.953L201.363,97.702z M179.999,107.292c-0.301,0.021-0.592,0.016-0.878,0.005
		c-0.285-0.015-0.535-0.071-0.749-0.158c-0.22-0.092-0.397-0.229-0.546-0.418c-0.143-0.184-0.234-0.438-0.256-0.775l-0.102-1.693
		c-0.01-0.296,0.153-0.449,0.5-0.464l19.527-1.158c0.143-0.005,0.275,0.021,0.388,0.097c0.122,0.062,0.184,0.158,0.194,0.312
		l0.102,1.698c0.016,0.321-0.031,0.597-0.143,0.796c-0.123,0.204-0.271,0.362-0.48,0.475c-0.198,0.117-0.443,0.199-0.724,0.245
		c-0.286,0.051-0.587,0.082-0.908,0.097L179.999,107.292z"/>
	<path clip-path="url(#SVGID_2_)" fill="#B74C3A" d="M31.516,150.958c1.224-0.5,1.326-0.566,1.172-0.944
		c-0.336-0.841-0.856-2.111-1.203-2.948c-0.138-0.337-0.285-0.78-0.266-0.974c0.021-0.189,0.547-0.403,0.918-0.551
		c2.23-0.919,1.918-0.786,4.158-1.699c0.361-0.148,0.617-0.326,0.897-0.117c0.107,0.102,0.271,0.434,0.397,0.739
		c0.23,0.562,0.47,1.153,0.566,1.397c0.169,0.408,0.332,0.337,1.51-0.143c1.22-0.5,1.378-0.597,1.225-0.974
		c-0.111-0.281-0.393-0.954-0.611-1.49c-0.103-0.245-0.215-0.443-0.164-0.719c0.062-0.321,0.393-0.378,0.653-0.49
		c1.852-0.755,1.796-0.729,3.657-1.489c0.367-0.148,0.337-0.138,0.592-0.066c0.148,0.046,0.332,0.413,0.429,0.663
		c0.239,0.587,0.923,2.265,1.271,3.097c0.162,0.402,0.336,0.337,1.586-0.174c1.082-0.443,1.307-0.54,1.158-0.908
		c-0.699-1.698-1.928-4.708-2.622-6.417c-0.122-0.306-0.214-0.52-0.511-0.617c-0.306-0.086-0.336-0.112-0.703,0.031
		c-6.672,2.724-10.906,4.458-17.604,7.182c-0.331,0.144-0.78,0.25-0.867,0.577c-0.087,0.28,0.188,0.79,0.394,1.285
		c0.535,1.326,1.887,4.611,2.422,5.948C30.107,151.499,30.234,151.483,31.516,150.958 M37.442,164.094
		c6.086-5.158,9.759-8.193,15.731-13.238c0.408-0.316-0.02-1.106-0.448-1.836c-0.378-0.633-0.878-1.424-1.275-1.266
		c-6.815,2.745-11.794,4.688-19.19,7.621c-0.26,0.113,0.342,1.117,0.597,1.557c0.546,0.913,0.894,1.57,1.198,1.423
		c1.587-0.745,2.612-1.193,4.163-1.877c0.286-0.133,0.408,0.184,0.725,0.739c0.275,0.454,0.53,0.775,0.296,0.949
		c-1.296,1.081-2.214,1.78-3.53,2.867c-0.326,0.28,0.052,0.79,0.541,1.627C36.719,163.44,37.197,164.312,37.442,164.094
		 M41.422,156.559c-0.205,0.174-0.327-0.152-0.547-0.52c-0.26-0.434-0.342-0.628-0.137-0.704c1.729-0.867,3.091-1.521,5.203-2.566
		c0.102-0.071,0.785-0.393,0.867-0.255c0.122,0.204-0.418,0.602-0.541,0.674C44.299,154.555,43.263,155.278,41.422,156.559
		 M59.861,160.967c0.857-0.761,1.036-0.965,0.771-1.271c-1.408-1.576-4.469-5.02-5.877-6.596c-0.255-0.301-0.469-0.214-1.413,0.627
		c-0.938,0.842-1.036,1.057-0.698,1.434c0.203,0.22,0.51,0.566,0.826,0.929c0.244,0.271,0.535,0.597,0.592,0.755
		c0.051,0.372-0.378,0.658-0.664,0.923c-4.958,4.397-7.519,6.668-12.436,11.045c-0.235,0.203-0.031,0.423,0.896,1.474
		c1.052,1.179,1.316,1.438,1.521,1.255c4.922-4.377,7.467-6.637,12.426-11.055c0.301-0.254,0.633-0.647,0.994-0.57
		c0.158,0.097,0.444,0.418,0.689,0.698c0.377,0.419,0.693,0.771,0.959,1.076C58.693,161.961,58.826,161.885,59.861,160.967
		 M61.402,173.627c0.76-0.897,0.643-2.249-0.306-3.127c-1.413-1.311-2.337-0.714-3.147,0.066c-0.975,0.903-0.99,2.663,0.168,3.459
		C59.918,175.239,60.729,174.434,61.402,173.627 M86.332,177.708c0.204-0.331-0.598-0.668-1.408-1.071
		c-0.688-0.336-1.377-0.684-1.51-0.413c-2.143,3.709-4.499,7.765-7.121,12.417c-0.051,0.111-0.174,0.28-0.357,0.193
		c-0.143-0.076-0.082-0.275-0.041-0.362c1.021-2.815,1.756-4.509,2.775-7.162c0.107-0.29-0.193-0.505-0.796-0.801
		c-0.53-0.271-0.841-0.321-0.999-0.092c-1.363,2.214-2.414,3.948-3.984,6.428c-0.057,0.112-0.179,0.28-0.362,0.193
		c-0.153-0.076-0.081-0.28-0.041-0.362c1.979-4.667,3.28-7.957,5.489-13.125c0.097-0.285-0.633-0.688-1.531-1.133
		c-0.602-0.301-1.499-0.606-1.576-0.377c-2.749,7.111-5.468,14.146-7.412,19.099c-0.143,0.367,0.939,0.831,1.322,1.03
		c0.606,0.296,1.434,0.74,1.698,0.439c1.265-1.592,2.214-2.801,3.377-4.239c0.062-0.071,0.163-0.255,0.316-0.185
		c0.173,0.092,0.081,0.286,0.056,0.398c-0.469,1.857-0.872,3.331-1.342,5.254c-0.07,0.301,0.756,0.75,1.143,0.944
		c0.781,0.377,1.326,0.719,1.525,0.382C78.455,190.456,83.832,181.759,86.332,177.708 M90.229,199.848
		c0.786-7.948,1.307-12.677,2.082-20.456c0.071-0.505-0.796-0.78-1.602-1.005c-0.715-0.193-1.623-0.408-1.796-0.021
		c-2.979,6.719-5.214,11.569-8.488,18.834c-0.097,0.255,1.04,0.561,1.521,0.693c1.029,0.28,1.734,0.5,1.856,0.194
		c0.617-1.643,1.04-2.684,1.688-4.26c0.107-0.281,0.418-0.133,1.025,0.03c0.52,0.144,0.924,0.188,0.877,0.49
		c-0.178,1.668-0.357,2.811-0.535,4.509c-0.051,0.424,0.582,0.536,1.516,0.791C89.244,199.889,90.199,200.174,90.229,199.848
		 M87.842,191.665c-0.031,0.271-0.342,0.128-0.76,0.005c-0.49-0.122-0.674-0.209-0.587-0.408c0.643-1.82,1.168-3.238,1.948-5.463
		c0.031-0.117,0.297-0.826,0.449-0.78c0.234,0.056,0.123,0.714,0.087,0.862C88.516,188.222,88.271,189.472,87.842,191.665
		 M103.074,200.546c0.152-1.255,0.143-1.407-0.297-1.464c-0.729-0.082-2.224-0.26-2.958-0.342c-0.331-0.041-0.725-0.117-0.888-0.234
		c-0.215-0.174-0.117-0.674-0.071-1.066c0.53-4.463,1.184-9.941,1.938-16.339c0.061-0.479-0.143-0.536-1.826-0.739
		c-1.494-0.174-1.674-0.139-1.719,0.285c-0.857,7.183-1.434,12.064-2.291,19.236c-0.046,0.398-0.127,0.837,0.041,1.071
		c0.152,0.204,0.612,0.255,1.082,0.312c0.928,0.112,4.784,0.566,6.381,0.76C102.869,202.066,102.91,201.984,103.074,200.546
		 M118.255,201.729c-1.51-4.417-2.245-6.504-3.642-10.564c-0.215-0.566-0.256-0.812-0.266-1.076c-0.01-0.296,0.076-0.668,0.203-1
		c1.072-3.106,1.47-4.387,2.506-7.651c0.066-0.179-0.24-0.291-1.883-0.24c-1.566,0.051-1.77,0.025-1.867,0.362
		c-0.836,2.948-1.229,4.53-2.076,7.453c-0.061,0.214-0.117,0.546-0.215,0.576c-0.198,0.071-0.178-0.383-0.188-0.597
		c-0.072-2.408-0.144-4.82-0.225-7.295c-0.016-0.449-1.082-0.413-1.852-0.388c-0.74,0.021-1.74,0.082-1.725,0.475
		c0.219,7.229,0.393,12.595,0.627,20.149c0,0.424,0.908,0.454,1.781,0.424c0.974-0.025,1.801-0.112,1.79-0.598
		c-0.071-2.279-0.133-4.336-0.21-6.621c-0.01-0.453,0.047-0.847,0.23-1.275c0.383-0.826,0.611-0.77,0.693-0.505
		c0.969,3.224,1.602,5.198,2.602,8.428c0.148,0.474,0.449,0.407,1.959,0.356C118.266,202.087,118.296,201.903,118.255,201.729
		 M129.631,188.4c-0.266-1.147-1.424-1.857-2.684-1.617c-1.897,0.342-1.969,1.438-1.836,2.561c0.143,1.321,1.545,2.388,2.882,1.929
		C130.028,190.553,129.87,189.421,129.631,188.4 M147.943,188.135c-2.02-4.469-8.846-4.07-10.305-7.31
		c-0.158-0.353-0.279-0.694-0.397-1.138c-0.138-0.464,0.092-1.097,0.644-1.342c0.52-0.234,1.305-0.035,1.652,0.729
		c0.111,0.255,0.413,0.919,0.571,1.266c0.081,0.193,0.693-0.077,1.856-0.603c1.035-0.464,1.475-0.627,1.393-0.821
		c-0.209-0.464-0.424-0.933-0.611-1.341c-0.898-2.01-3.413-2.954-6.005-1.786c-2.081,0.934-2.663,2.581-2.774,3.393
		c-0.113,0.812,0.092,2.234,0.438,3.005c1.847,4.111,9.11,4.836,10.182,7.223c0.173,0.388,0.331,0.816,0.515,1.291
		c0.148,0.489,0.18,1.138-0.646,1.515c-0.919,0.408-1.408-0.097-1.857-1.112c-0.133-0.28-0.357-0.801-0.521-1.157
		c-0.103-0.215-0.673,0.051-1.903,0.592c-1.219,0.551-1.474,0.698-1.371,0.948c0.162,0.353,0.561,1.234,0.693,1.541
		c1.122,2.489,3.652,2.969,6.152,1.847c2.203-0.99,2.632-1.908,2.918-4.051C148.662,190.059,148.311,188.961,147.943,188.135
		 M160.451,184.845c-0.673-1.065-0.785-1.173-1.152-0.938c-0.623,0.388-1.898,1.199-2.52,1.592
		c-0.281,0.188-0.633,0.372-0.816,0.388c-0.286,0-0.531-0.454-0.745-0.786c-2.407-3.785-5.366-8.442-8.825-13.891
		c-0.255-0.402-0.449-0.32-1.887,0.598c-1.266,0.806-1.378,0.943-1.153,1.301c3.888,6.105,6.519,10.248,10.396,16.349
		c0.215,0.332,0.43,0.74,0.715,0.801c0.234,0.066,0.633-0.188,1.02-0.438c0.797-0.494,4.071-2.586,5.428-3.448
		C161.248,186.156,161.227,186.059,160.451,184.845 M170.424,176.627c-0.861-1.005-0.964-1.076-1.27-0.816
		c-0.689,0.592-1.734,1.484-2.418,2.076c-0.275,0.24-0.653,0.516-0.837,0.562s-0.556-0.394-0.815-0.694
		c-1.572-1.826-1.348-1.576-2.924-3.402c-0.26-0.301-0.505-0.479-0.393-0.821c0.062-0.132,0.321-0.393,0.576-0.612
		c0.459-0.393,0.943-0.811,1.148-0.984c0.326-0.285,0.203-0.413-0.612-1.377c-0.867-1.005-1.011-1.122-1.316-0.857
		c-0.224,0.194-0.79,0.674-1.22,1.046c-0.203,0.174-0.361,0.347-0.637,0.388c-0.326,0.036-0.48-0.26-0.664-0.454
		c-1.305-1.53-1.265-1.489-2.57-3.009c-0.255-0.291-0.24-0.276-0.244-0.541c-0.006-0.164,0.279-0.439,0.484-0.617
		c0.484-0.419,1.852-1.597,2.54-2.179c0.331-0.285,0.209-0.418-0.669-1.454c-0.77-0.887-0.918-1.065-1.229-0.811
		c-1.393,1.204-3.852,3.32-5.254,4.515c-0.256,0.214-0.434,0.372-0.424,0.684c0,0.321-0.006,0.356,0.25,0.657
		c4.688,5.469,7.678,8.938,12.385,14.422c0.23,0.28,0.475,0.673,0.816,0.647c0.297-0.016,0.689-0.434,1.098-0.775
		c1.086-0.934,3.779-3.249,4.866-4.183C171.379,177.79,171.327,177.678,170.424,176.627 M178.908,166.854
		c-1.041-0.816-1.158-0.873-1.408-0.557c-0.562,0.709-1.414,1.791-1.969,2.494c-0.235,0.291-0.552,0.639-0.725,0.71
		c-0.174,0.081-0.623-0.281-0.929-0.526c-1.888-1.494-1.632-1.285-3.524-2.79c-0.302-0.239-0.582-0.367-0.536-0.724
		c0.03-0.144,0.234-0.449,0.448-0.709c0.367-0.48,0.766-0.975,0.929-1.184c0.276-0.342,0.133-0.454-0.856-1.24
		c-1.041-0.816-1.199-0.902-1.449-0.586c-0.188,0.229-0.647,0.811-1,1.26c-0.173,0.209-0.291,0.413-0.545,0.5
		c-0.312,0.102-0.525-0.158-0.74-0.332c-1.582-1.244-1.53-1.198-3.102-2.453c-0.311-0.24-0.291-0.225-0.347-0.484
		c-0.03-0.153,0.194-0.485,0.356-0.699c0.398-0.495,1.521-1.913,2.082-2.627c0.27-0.337,0.133-0.444-0.929-1.286
		c-0.929-0.734-1.112-0.882-1.356-0.565c-1.143,1.443-3.163,3.983-4.306,5.427c-0.214,0.266-0.356,0.449-0.286,0.75
		c0.051,0.312,0.062,0.357,0.367,0.597c5.647,4.475,9.244,7.315,14.906,11.81c0.285,0.22,0.602,0.556,0.928,0.479
		c0.286-0.076,0.592-0.551,0.929-0.979c0.883-1.122,3.091-3.907,3.979-5.03C180.061,167.817,179.984,167.71,178.908,166.854
		 M177.041,149.208c-2.521-1.464-0.857-0.495-3.408-1.964c-1.295-0.755-2.54-0.893-3.836-0.331
		c-1.152,0.489-2.081,1.505-2.754,2.667c-0.449,0.786-1.307,2.25-1.705,2.949c-0.209,0.352-0.367,0.561-0.265,0.816
		c0.062,0.193,0.255,0.342,0.566,0.52c5.02,2.902,11.682,6.76,16.858,9.738c0.566,0.332,0.664,0.158,1.419-1.147
		c0.775-1.326,0.97-1.597,0.521-1.856c-1.541-0.893-4.357-2.521-5.684-3.296c-0.652-0.372-0.684-0.693-0.448-1.102
		c0.622-1.077,1.143-2.434,0.918-3.806C178.948,150.77,178.102,149.825,177.041,149.208 M174.867,152.121
		c0.495,0.285,0.898,0.484,1.123,1.117c0.152,0.516,0,0.969-0.184,1.285c-0.169,0.291-0.286,0.49-0.394,0.633
		c-0.198,0.148-0.393,0.005-0.653-0.153c-2.545-1.469-2.341-1.341-4.932-2.852c-0.154-0.092-0.261-0.153-0.316-0.301
		c-0.036-0.168,0.143-0.495,0.346-0.842c0.271-0.464,0.525-0.663,0.867-0.775c0.592-0.128,1.103,0.133,1.648,0.449
		C173.337,151.238,173.883,151.55,174.867,152.121"/>
	<path clip-path="url(#SVGID_2_)" fill="#B74C3A" d="M119.102,3.3C60.393-1.832,8.447,41.752,3.306,100.467
		c-5.137,58.714,38.452,110.659,97.167,115.801c58.719,5.137,110.664-38.457,115.801-97.171
		C221.41,60.387,177.826,8.442,119.102,3.3 M100.223,219.15C39.916,213.875-4.856,160.522,0.418,100.217
		C5.693,39.911,59.057-4.856,119.357,0.418c60.305,5.274,105.072,58.633,99.799,118.934
		C213.881,179.657,160.528,224.425,100.223,219.15"/>
</g>
</svg>
