<?xml version="1.0" encoding="utf-8"?>
<!-- Generator: Adobe Illustrator 16.2.1, SVG Export Plug-In . SVG Version: 6.00 Build 0)  -->
<!DOCTYPE svg PUBLIC "-//W3C//DTD SVG 1.1//EN" "http://www.w3.org/Graphics/SVG/1.1/DTD/svg11.dtd">
<svg version="1.1" id="Layer_1" xmlns="http://www.w3.org/2000/svg" xmlns:xlink="http://www.w3.org/1999/xlink" x="0px" y="0px"
	 width="80.756px" height="76.576px" viewBox="0 0 80.756 76.576" enable-background="new 0 0 80.756 76.576" xml:space="preserve">
<g>
	<g>
		<g>
			<path fill="#6B915D" d="M23.887,74.776c0.97,0.007,2.565,0.584,2.465,1.8c0.98-0.959,1.496-2.752,2.998-1.731
				c0.612-2.487,4.07,0.374,5.506,1.079c2.209,1.086,1.601-2.885,3.021-3.612c1.031-0.524,5.834,1.72,7.056,2.033
				c1.479,0.377,0.526-1.058,1.287-1.017c1.172,0.061,2.345,0.122,3.516,0.185c-0.209-0.498-0.166-1.115-0.398-1.6
				c3.256,2.345,3.483,1.745,7.195,2.131c1.535,0.161,1.245,1.56,2.897,0.852c1.099-0.472,2.335-1.572,3.163-0.65
				c0.62-1.121,1.295-1.225,2.448-1.348c0.961-0.103,0.852-1.987,1.017-2.85c-0.837,0.128-2.255,0.66-3.065,0.467
				c0.211,0.05-1.352-3.437-2.397-1.865c0.933-1.398,3.038,0.964,3.597-1.733c-0.407-0.113-0.805-0.246-1.199-0.398
				c0.563,0.562,2.35-0.222,2.865-0.6c-0.245-0.334-0.489-0.666-0.733-1c2.274,1.099,4.361-3.059,4.425-4.933
				c0.107-3.114-7.521-6.943-7.844-3.193c-3.347-1.337,0.799-1.726,0.434-3.756c-0.28-1.56-2.121-3.146-0.523-3.885
				c0.406-0.187-1.903-3.564-0.488-4.886c0.091-0.083-3.266-4.563-3.774-4.846c-2.034-1.12-2.607-0.999-2.692-3.775
				c-0.036-1.193,1.064-4.894,0.497-5.854c-0.582-0.987-2.342-4.402-3.199-4.871c-1.083-0.592-4.593,1.175-5.086-0.061
				c-0.132-0.327,3.151-1.354,3.141-1.357c2.156,0.979,2.118-1.137,0.545-1.706c0.954-1.07,2.03-2.022,3.003-3.082
				c1.679-1.826,2.277-4.114,3.865-5.703c1.666-1.666-4.607-2.872-5.536-2.718c-1.8,0.3-1.467-1.065-3.458-0.055
				c-0.3,0.15-3.111,0.479-3.071-0.078c0.128-1.772,2.365-0.181,3.021-1.821c0.08-0.2-1.586-0.323-1.289-0.622
				c1.713-1.713,6.156-2.854,6.352-5.774c0.06-0.895-6.227-1.268-7.017,0.356c-0.187-5.144-5.345-0.214-2.532,0.977
				c-0.938,0.147-0.803-0.212-1.937-0.322c-0.019-0.002-0.005,1.558,0.028,1.698c-0.326-0.221-0.651-0.442-0.979-0.665
				c-0.006-0.023,0.318,2.146,0.467,2.043c-0.67,0.462-1.19-0.967-1.539-0.598c-0.19,0.2-0.023,1.613-0.061,1.604
				c-0.277-0.064-1.061-1.514-1.332-1.007c-0.623,1.167,1.074,2.753,1.162,3.89c0.074,0.982-1.401,2.831-1.629,2.105
				c0.137,0.434,2.642,1.629,0.371,1.757c-2.191,0.123-1.832-0.768-1.479,1.687c0.026,0.183-2.36-1.033-2.256,0.854
				c-0.185,0.037-1.134-0.137-0.899,0.399c0.325,0.741,2.197,0.041,1.215,1.448c-0.681,0.979-1.388,0.058-2.065,0.627
				c-0.24,0.204,2.76,1.411,3.748-0.043c0.73-1.073,1.561-1.897,2.766-2.432c-0.231,0.872-1.153,1.572-1.798,2.531
				c-0.961,1.429-0.659,3.263-2.532,3.93c0.404,0.059,0.806,0.024,1.2-0.1c-1.387,0.924-0.384,0.901-0.368,1.665
				c-0.817,0.64-2.65,3.205-2.564,4.185c0.215,2.411,3.356-3.505,3.198-3.401c1.054-0.688-0.145-1.709,0.267-2.215
				c0.593-0.73,2.081-1.243,2.896-1.732c-0.321,1.459,0.201,2.731,1.666,3.131c-3.831-1.646-1.193,3.387-1.878,4.086
				c-1.273,1.302-2.28,4.018-3.551,4.441c0.185-0.062,1.224,1.133,1.53,1.299c0.146-0.188,0.29-0.378,0.435-0.565
				c0.351,0.798,1.133,1.406,1.499,2.198c0.423-0.918,0.434-1.053,0.434-2.165c0,3.276,5.493,0.236,6.994,0.798
				c-1.541,0.489-2.247,1.483-3.479,3.021c-0.378,0.473-0.018,4.042,1.413,3.408c-0.188,1.896,0.682,1.94,1.731,0.432
				c-0.355,2.726-0.897,1.554-1.965,3.366c-0.467,0.794,1.994,0.371-0.087,1.881c-1.169,0.847,0.81,2.294,1.587,2.615
				c-0.2,0.221-0.399,0.443-0.6,0.666c-0.239-0.611-0.99-1.021-1.233-1.633c-0.076,0.621-0.537,1.219-0.599,1.899
				c-0.563-2.647-2.399,0.106-3.564-1.933c-0.701,0.623-1.076,0.349-1.765,0.733c0.853-1.571-0.9-2.845-2.2-1.633
				c-0.224,0.21,1.211,1.638,0.639,2.33c0.002-0.002-2.235,2.188-2.235,1.835c0,0.28,0.351,0.988,0.531,1.232
				c2.612-3.017,4.007,1.628,2.138,3.255c-2.397,2.085-4.361,3.099-7.433,2.606c-0.672,2.197,0.326,3.841,2.531,3.998
				c0.697,0.049,0.974-1.391,2.298-0.866c0.805,0.317-0.69,2.315,0.783,2.182c2.617-0.238,1.3,0.473,3.436,2.288
				c1.541,1.31,2.272-2.066,4.174-0.641c-2.742,1.533-1.967,3.871-5.573,1.59c-2.637-1.665-3.648,2.991-4.984,0.642
				c-1.223,1.287-0.016,1.831-1.498,2.932c-0.918,0.68-1.468,1.096-2.266,1.6c-1.188,0.749-1.215,1.462-2.647,1.482
				C24.732,73.711,23.869,73.377,23.887,74.776z"/>
		</g>
		<path fill-rule="evenodd" clip-rule="evenodd" fill="#6B915D" d="M31.387,37.254c-1.924-4.186-0.878-7.165-6.445-5.765
			c1.036-3.634-3.223-1.821-4.969-1.68c-2.393,0.195-2.898,2.538-4.96,3.502c0.178,0.798,1.656,1.104,2.329,1.405
			c-0.543,0.54-4.019,3.728-5.162,1.893c-1.275-2.055-2.527-0.702-4.067-1.604c-0.692-0.324-1.004-0.112-0.934,0.635
			C7.215,37.581,7.583,37,5.681,37.552c1.107,0.636,2.213,1.272,3.318,1.91c-0.834,0.191-4.716,2.598-2.894,3.703
			c0.609,1.335,3.046,1.822,4.146,2.825c-1.219,0.114-2.452,0.881-2.635,2.187c-0.653,0.353-2.311,0.898-2.758,1.513
			c-0.569,0.783,0.244,1.312-0.743,2.266c-0.852,0.823-2.422,0.38-3.475,0.38c-0.243,1.988,1.601,0.845,2.278,1.967
			C1.945,54.65,0.974,54.999,0,55.347c0.063,0.959,1.81,1.214,2.6,1.551c-1.566,0.023-2.121,0.435-1.662,1.227
			c3.192,0.762,0.558,1.541,2.601,1.863c1.792,0.282,4.294,2.021,6.427,0.604c1.614-1.072,2.454-1.505,4.257-2.228
			c3.205-1.288,5.473-0.196,8.613-0.196c-0.197-1.838,1.593-3.948,2.583-5.946c1.496-3.02,0.935-6.162,0.507-9.479
			C28.336,42.346,32.948,40.651,31.387,37.254C31.03,36.477,32.013,38.617,31.387,37.254z"/>
	</g>
	<path fill="#FFFFFF" d="M77.812,62.21c-0.789,0-1.529-0.306-2.084-0.862L65.455,50.537l-0.391,0.232
		c-1.878,1.119-4.021,1.711-6.194,1.711c-3.246,0-6.3-1.266-8.598-3.563c-4.74-4.739-4.74-12.451,0-17.19
		c2.296-2.297,5.35-3.561,8.598-3.561c3.246,0,6.299,1.264,8.595,3.561c3.924,3.921,4.685,10.003,1.851,14.79l-0.233,0.394
		l10.813,10.268c1.147,1.149,1.147,3.021,0,4.171C79.339,61.904,78.598,62.21,77.812,62.21z M58.87,30.712
		c-2.567,0-4.98,1-6.796,2.814c-3.745,3.748-3.745,9.844,0,13.589c1.812,1.815,4.227,2.815,6.796,2.815c2.568,0,4.981-1,6.794-2.816
		c3.743-3.745,3.743-9.84,0-13.587C63.849,31.712,61.437,30.712,58.87,30.712z"/>
</g>
</svg>
