<?xml version="1.0" encoding="utf-8"?>
<!-- Generator: Adobe Illustrator 16.2.1, SVG Export Plug-In . SVG Version: 6.00 Build 0)  -->
<!DOCTYPE svg PUBLIC "-//W3C//DTD SVG 1.1//EN" "http://www.w3.org/Graphics/SVG/1.1/DTD/svg11.dtd">
<svg version="1.1" id="Layer_1" xmlns="http://www.w3.org/2000/svg" xmlns:xlink="http://www.w3.org/1999/xlink" x="0px" y="0px"
	 width="28px" height="40px" viewBox="0 0 28 40" enable-background="new 0 0 27.643 39.741" xml:space="preserve">
<g>
	<path fill="#54504B" d="M7.855,33.162c-1.875,0.064-3.463,0.506-4.275,1.28c-0.463,0.439-0.607,0.938-0.477,1.618
		c0.05,0.245,0.147,0.729,0.966,0.609C5.296,36.529,6.828,35.358,7.855,33.162 M3.87,39.741c-1.912,0-3.394-1.191-3.767-3.088
		c-0.336-1.699,0.151-3.27,1.369-4.428c1.688-1.604,4.49-2.186,7.311-2.121c0.164-0.979,0.24-2.064,0.201-3.26
		c-0.133-4.007-1.149-7.534-2.049-10.647c-1.539-5.35-2.871-9.97,1.289-13.871c2.482-2.324,5.707-2.941,8.845-1.695
		c3.081,1.228,5.352,4.063,5.518,6.896c0.086,1.401-0.28,4.029-3.666,5.871c-0.737,0.402-1.673,0.13-2.073-0.615
		c-0.401-0.74-0.129-1.671,0.613-2.074c1.447-0.788,2.146-1.797,2.075-2.998c-0.099-1.665-1.614-3.446-3.599-4.238
		c-1.174-0.466-3.453-0.949-5.623,1.087C7.645,7.062,8.328,9.98,9.877,15.35c0.946,3.284,2.02,7.006,2.164,11.394
		c0.047,1.319-0.029,2.548-0.209,3.683c0.385,0.07,0.755,0.152,1.122,0.241c1.687,0.423,3.347,1.224,4.956,1.995
		c3.41,1.645,5.6,2.548,7.354,1.383c0.695-0.465,1.647-0.282,2.121,0.423c0.469,0.704,0.281,1.654-0.423,2.121
		c-3.333,2.229-7.075,0.421-10.38-1.169c-1.468-0.707-2.986-1.438-4.37-1.781c-0.376-0.097-0.756-0.176-1.134-0.241
		c-1.387,3.796-4.047,6.013-6.662,6.312C4.23,39.73,4.047,39.741,3.87,39.741"/>
	<path fill="#54504B" d="M21.785,24.939H3.379c-0.845,0-1.529-0.685-1.529-1.529c0-0.846,0.685-1.53,1.529-1.53h18.406
		c0.846,0,1.527,0.685,1.527,1.53C23.312,24.255,22.631,24.939,21.785,24.939"/>
</g>
</svg>
