<?xml version="1.0" encoding="utf-8"?>
<!-- Generator: Adobe Illustrator 16.2.1, SVG Export Plug-In . SVG Version: 6.00 Build 0)  -->
<!DOCTYPE svg PUBLIC "-//W3C//DTD SVG 1.1//EN" "http://www.w3.org/Graphics/SVG/1.1/DTD/svg11.dtd">
<svg version="1.1" id="Layer_1" xmlns="http://www.w3.org/2000/svg" xmlns:xlink="http://www.w3.org/1999/xlink" x="0px" y="0px"
	 width="35.482px" height="60.343px" viewBox="0 0 35.482 60.343" enable-background="new 0 0 35.482 60.343" xml:space="preserve">
<g>
	<path fill="#54504B" d="M13.173,21.009L11.916,3.482c-0.038-0.379-0.357-0.667-0.739-0.667h-0.726c-0.198,0-0.391,0.08-0.531,0.226
		C9.779,3.184,9.701,3.379,9.707,3.58l0.338,12.775c0,0.547-0.439,0.991-0.984,0.991c-0.548,0-0.988-0.442-0.988-1.005L7.738,3.537
		C7.725,3.135,7.396,2.815,6.995,2.815H6.174c-0.4,0-0.73,0.319-0.745,0.722L5.096,16.355c0,0.547-0.441,0.991-0.986,0.991
		c-0.551,0-1.219-0.466-1.223-0.976L3.48,3.594c0.01-0.202-0.062-0.401-0.203-0.548c-0.14-0.148-0.334-0.23-0.537-0.23H1.992
		c-0.383,0-0.701,0.288-0.74,0.667L0,21.011c0,3.822,1.947,4.735,4.777,4.938l-1.06,32.692c0,0.94,1.286,1.701,2.866,1.701
		c1.586,0,2.872-0.761,2.872-1.701L8.393,25.952C11.22,25.746,13.163,24.837,13.173,21.009"/>
	<path fill="#54504B" d="M26.549,14.561C26.964,6.067,30.305,0,33.384,0c0.411,0,0.744,0.333,0.744,0.744l1.354,57.729
		c0,1.033-1.166,1.869-2.592,1.869s-2.591-0.83-2.586-1.903l0.344-26.413C28.304,29.435,26.061,24.421,26.549,14.561"/>
</g>
</svg>
