<?xml version="1.0" encoding="utf-8"?>
<!-- Generator: Adobe Illustrator 16.2.1, SVG Export Plug-In . SVG Version: 6.00 Build 0)  -->
<!DOCTYPE svg PUBLIC "-//W3C//DTD SVG 1.1//EN" "http://www.w3.org/Graphics/SVG/1.1/DTD/svg11.dtd">
<svg version="1.1" id="Layer_1" xmlns="http://www.w3.org/2000/svg" xmlns:xlink="http://www.w3.org/1999/xlink" x="0px" y="0px"
	 width="61.111px" height="37.227px" viewBox="0 0 61.111 37.227" enable-background="new 0 0 61.111 37.227" xml:space="preserve">
<g>
	<g>
		<path fill="#54504B" d="M38.319,2.471H22.793c-0.683,0-1.233-0.554-1.233-1.235S22.11,0,22.793,0h15.526
			c0.683,0,1.231,0.554,1.231,1.235S39.002,2.471,38.319,2.471"/>
		<path fill="#54504B" d="M30.556,13.402c-0.683,0-1.231-0.553-1.231-1.235V1.235C29.324,0.554,29.873,0,30.556,0
			s1.231,0.554,1.231,1.235v10.932C31.787,12.85,31.238,13.402,30.556,13.402"/>
		<path fill="#54504B" d="M2.494,34.757h56.123c-0.701-15.713-14.826-21.353-28.062-21.353S3.195,19.044,2.494,34.757
			 M59.879,37.227H1.232C0.551,37.227,0,36.674,0,35.991c0-15.457,11.708-25.057,30.556-25.057c18.847,0,30.556,9.6,30.556,25.057
			C61.111,36.674,60.561,37.227,59.879,37.227"/>
	</g>
</g>
</svg>
