<?xml version="1.0" encoding="utf-8"?>
<!-- Generator: Adobe Illustrator 16.2.1, SVG Export Plug-In . SVG Version: 6.00 Build 0)  -->
<!DOCTYPE svg PUBLIC "-//W3C//DTD SVG 1.1//EN" "http://www.w3.org/Graphics/SVG/1.1/DTD/svg11.dtd">
<svg version="1.1" id="Layer_1" xmlns="http://www.w3.org/2000/svg" xmlns:xlink="http://www.w3.org/1999/xlink" x="0px" y="0px"
	 width="80.033px" height="38.43px" viewBox="0 0 80.033 38.43" enable-background="new 0 0 80.033 38.43" xml:space="preserve">
<g>
	<path fill="#54504B" d="M40.013,38.43h-24.28c-6.63,0-12.025-5.395-12.025-12.026V9.842c0-0.682,0.554-1.235,1.235-1.235
		S6.178,9.16,6.178,9.842v16.562c0,5.269,4.285,9.557,9.555,9.557h24.28c5.271,0,9.558-4.288,9.558-9.557V8.517
		c0-0.681,0.551-1.234,1.232-1.234s1.232,0.554,1.232,1.234v17.887C52.035,33.035,46.646,38.43,40.013,38.43"/>
	<path fill="#54504B" d="M78.801,9.752H1.236C0.554,9.752,0,9.199,0,8.518c0-0.683,0.554-1.235,1.236-1.235h77.564
		c0.682,0,1.232,0.553,1.232,1.235C80.033,9.199,79.482,9.752,78.801,9.752"/>
	<path fill="#54504B" d="M35.155,9.752c-0.682,0-1.233-0.553-1.233-1.234c0-3.336-2.712-6.048-6.047-6.048
		c-3.336,0-6.052,2.712-6.052,6.048c0,0.682-0.552,1.234-1.233,1.234s-1.234-0.553-1.234-1.234c0-4.696,3.82-8.518,8.52-8.518
		c4.693,0,8.512,3.821,8.512,8.518C36.387,9.199,35.837,9.752,35.155,9.752"/>
</g>
</svg>
