<?xml version="1.0" encoding="utf-8"?>
<!-- Generator: Adobe Illustrator 16.2.1, SVG Export Plug-In . SVG Version: 6.00 Build 0)  -->
<!DOCTYPE svg PUBLIC "-//W3C//DTD SVG 1.1//EN" "http://www.w3.org/Graphics/SVG/1.1/DTD/svg11.dtd">
<svg version="1.1" id="Layer_1" xmlns="http://www.w3.org/2000/svg" xmlns:xlink="http://www.w3.org/1999/xlink" x="0px" y="0px"
	 width="35.851px" height="56.729px" viewBox="0 0 35.851 56.729" enable-background="new 0 0 35.851 56.729" xml:space="preserve">
<g>
	<path fill="#54504B" d="M29.667,56.729H6.184c-0.639,0-1.175-0.488-1.232-1.126L0.006,1.35c-0.064-0.68,0.439-1.281,1.121-1.344
		c0.754-0.052,1.281,0.441,1.344,1.121l4.844,53.128h21.222l4.843-53.128c0.062-0.68,0.566-1.178,1.346-1.121
		c0.68,0.062,1.182,0.664,1.121,1.344l-4.947,54.254C30.842,56.241,30.305,56.729,29.667,56.729"/>
	<path fill="#54504B" d="M33.844,10.698H1.988c-0.683,0-1.238-0.554-1.238-1.238c0-0.684,0.556-1.237,1.238-1.237h31.855
		c0.682,0,1.236,0.554,1.236,1.237C35.08,10.145,34.525,10.698,33.844,10.698"/>
	<path fill="#54504B" d="M33.844,2.476H1.988c-0.683,0-1.238-0.554-1.238-1.238C0.75,0.555,1.306,0,1.988,0h31.855
		c0.682,0,1.236,0.555,1.236,1.237C35.08,1.922,34.525,2.476,33.844,2.476"/>
</g>
</svg>
