<?xml version="1.0" encoding="utf-8"?>
<!-- Generator: Adobe Illustrator 16.2.1, SVG Export Plug-In . SVG Version: 6.00 Build 0)  -->
<!DOCTYPE svg PUBLIC "-//W3C//DTD SVG 1.1//EN" "http://www.w3.org/Graphics/SVG/1.1/DTD/svg11.dtd">
<svg version="1.1" id="Layer_1" xmlns="http://www.w3.org/2000/svg" xmlns:xlink="http://www.w3.org/1999/xlink" x="0px" y="0px"
	 width="71.548px" height="46.911px" viewBox="0 0 71.548 46.911" enable-background="new 0 0 71.548 46.911" xml:space="preserve">
<g>
	<path fill="#54504B" d="M70.311,13.924H32.224c-0.683,0-1.237-0.553-1.237-1.237s0.555-1.237,1.237-1.237h38.087
		c0.682,0,1.236,0.553,1.236,1.237S70.992,13.924,70.311,13.924"/>
	<path fill="#54504B" d="M44.676,40.011c-0.449,0-0.88-0.244-1.104-0.669c-0.308-0.61-0.071-1.356,0.539-1.668l24.961-12.866V2.475
		H33.461v10.212c0,0.684-0.557,1.238-1.237,1.238c-0.682,0-1.237-0.555-1.237-1.238V1.237C30.986,0.554,31.542,0,32.224,0h38.087
		c0.682,0,1.237,0.554,1.237,1.237v24.324c0,0.464-0.261,0.887-0.672,1.1L45.24,39.872C45.062,39.968,44.869,40.011,44.676,40.011"
		/>
	<path fill="#54504B" d="M1.237,46.911C0.555,46.911,0,46.358,0,45.673V26.981c0-0.484,0.28-0.921,0.721-1.124l30.985-14.295
		c0.604-0.29,1.353-0.02,1.638,0.606c0.291,0.619,0.021,1.354-0.604,1.642L2.475,27.773v17.899
		C2.475,46.358,1.92,46.911,1.237,46.911"/>
	<path fill="#54504B" d="M44.676,40.011H1.238C0.556,40.011,0,39.458,0,38.773c0-0.684,0.556-1.238,1.238-1.238h43.438
		c0.682,0,1.236,0.555,1.236,1.238C45.912,39.458,45.357,40.011,44.676,40.011"/>
	<path fill="#54504B" d="M44.25,46.911c-0.682,0-1.236-0.553-1.236-1.238v-6.899c0-0.685,0.555-1.237,1.236-1.237
		s1.238,0.553,1.238,1.237v6.899C45.488,46.358,44.932,46.911,44.25,46.911"/>
	<path fill="#54504B" d="M70.311,35.02c-0.682,0-1.236-0.553-1.236-1.238v-6.899c0-0.685,0.555-1.237,1.236-1.237
		s1.236,0.553,1.236,1.237v6.899C71.547,34.467,70.992,35.02,70.311,35.02"/>
</g>
</svg>
