<?xml version="1.0" encoding="utf-8"?>
<!-- Generator: Adobe Illustrator 15.1.0, SVG Export Plug-In . SVG Version: 6.00 Build 0)  -->
<!DOCTYPE svg PUBLIC "-//W3C//DTD SVG 1.1//EN" "http://www.w3.org/Graphics/SVG/1.1/DTD/svg11.dtd">
<svg version="1.1" id="Layer_1" xmlns="http://www.w3.org/2000/svg" xmlns:xlink="http://www.w3.org/1999/xlink" x="0px" y="0px"
	 width="10px" height="14px" viewBox="8.822 12.871 10 14" enable-background="new 8.822 12.871 10 14" xml:space="preserve">
<g>
	<path fill="#54504B" d="M18.623,14.263c0.067-0.118,0.036-0.268-0.071-0.349l-0.435-0.32c-0.058-0.041-0.127-0.058-0.199-0.046
		c-0.07,0.01-0.134,0.05-0.175,0.107c-0.003,0.006-0.343,0.481-1.372,1.834c-0.173-0.563-0.365-1.099-0.376-1.128
		c-0.024-0.07-0.079-0.125-0.146-0.154c-0.071-0.029-0.146-0.028-0.212,0.001l-0.564,0.251c-0.108,0.047-0.17,0.157-0.157,0.272
		l0.242,2.167l-6.12,8.093c-0.058,0.078-0.07,0.18-0.03,0.27c0.015,0.03,0.358,0.773,1.155,0.911c0.121,0.021,0.246,0.03,0.373,0.02
		c0.083-0.004,0.157-0.05,0.201-0.117c0.832-1.258,1.989-2.849,2.273-3.239l0.664-0.092c0.075-0.011,0.145-0.051,0.185-0.116
		l0.5-0.757c0.042-0.064,0.055-0.142,0.035-0.216c-0.021-0.074-0.073-0.135-0.142-0.171l-0.3-0.14
		c0.333-0.479,1.044-1.507,1.4-2.033C17.656,15.913,18.615,14.279,18.623,14.263"/>
</g>
</svg>
